<?xml version="1.0" encoding="utf-8"?>
<!-- Generator: Adobe Illustrator 26.0.0, SVG Export Plug-In . SVG Version: 6.00 Build 0)  -->
<svg version="1.1" id="Camada_1" xmlns="http://www.w3.org/2000/svg" xmlns:xlink="http://www.w3.org/1999/xlink" x="0px" y="0px"
	 viewBox="0 0 468.7 486.9" style="enable-background:new 0 0 468.7 486.9;" xml:space="preserve">
<style type="text/css">
	.st0{display:none;}
	.st1{fill:none;stroke:#000000;stroke-width:6;stroke-linecap:round;stroke-linejoin:round;stroke-miterlimit:10;}
	.st2{fill:#4A494A;}
	.st3{fill:none;stroke:#000000;stroke-width:11;stroke-linecap:round;stroke-miterlimit:10;}
	.st4{fill:none;stroke:#000000;stroke-width:11;stroke-miterlimit:10;}
	.st5{fill:none;stroke:#000000;stroke-width:15;stroke-linecap:round;stroke-miterlimit:10;}
	.st6{fill:none;stroke:#000000;stroke-width:12;stroke-linecap:round;stroke-miterlimit:10;}
	.st7{fill:none;stroke:#000000;stroke-width:7;stroke-linecap:round;stroke-miterlimit:10;}
	.st8{fill:none;stroke:#000000;stroke-width:6;stroke-linecap:round;stroke-miterlimit:10;}
	.st9{fill:none;stroke:#000000;stroke-width:6;stroke-linecap:round;stroke-linejoin:round;stroke-miterlimit:9.9999;}
	.st10{fill:none;stroke:#000000;stroke-width:6;stroke-linecap:square;stroke-linejoin:round;stroke-miterlimit:10;}
	.st11{fill:#E67E1D;}
	.st12{fill:#F4952E;}
	.st13{fill:none;stroke:#F4952E;stroke-miterlimit:10;}
	.st14{fill:none;stroke:#EB5B6A;stroke-miterlimit:10;}
	.st15{fill:#EB5B6A;}
	.st16{fill:none;stroke:#000000;stroke-width:4;stroke-linecap:round;stroke-linejoin:round;stroke-miterlimit:10;}
</style>
<g id="Camada_1_00000179620126937517637550000014674114616148379798_" class="st0">
</g>
<g id="Camada_4">
	<path class="st1" d="M188.6,253c9.8-5.4,15.4-14.1,13.1-21.8c-2.8-9.5-16.8-13.8-31.2-9.5c-10.8,3.2-18.8,10.3-20.9,17.7"/>
</g>
<g id="Camada_3" class="st0">
</g>
<rect x="118.6" y="66.4" transform="matrix(0.9784 -0.2066 0.2066 0.9784 -13.4763 30.3827)" class="st2" width="40.3" height="26.7"/>
<g id="Camada_2_00000016796249434013607500000002662432711470529694_">
	<line class="st3" x1="234.1" y1="476.2" x2="234.1" y2="269.8"/>
	<line class="st3" x1="415.1" y1="405.4" x2="234.1" y2="476.2"/>
	<line class="st3" x1="413.4" y1="269.8" x2="415.1" y2="405.4"/>
	<path class="st4" d="M109,184.4c-17.7,7-34.7,15.8-52.4,22.6"/>
	<line class="st3" x1="280" y1="318.3" x2="234.1" y2="268.8"/>
	<line class="st3" x1="457.9" y1="249" x2="280" y2="318.3"/>
	<line class="st3" x1="414.3" y1="206.7" x2="457.9" y2="249"/>
	<line class="st3" x1="337.5" y1="180.5" x2="414.3" y2="206.7"/>
	<line class="st5" x1="315.3" y1="476.9" x2="377" y2="453.4"/>
	<line class="st6" x1="405.4" y1="443.1" x2="421" y2="436.2"/>
	<line class="st3" x1="8.1" y1="249" x2="52.7" y2="206.7"/>
	<line class="st3" x1="234.1" y1="268.8" x2="187" y2="318.3"/>
	<line class="st3" x1="8.1" y1="249" x2="187" y2="318.3"/>
	<line class="st3" x1="234.1" y1="476.2" x2="45.2" y2="407.4"/>
	<line class="st3" x1="46.2" y1="265.6" x2="45.2" y2="407.4"/>
	<line class="st3" x1="45.9" y1="306.7" x2="157.8" y2="344.8"/>
	<line class="st3" x1="157.8" y1="401.7" x2="157.8" y2="344.8"/>
	<line class="st3" x1="48" y1="360.6" x2="157.8" y2="401.7"/>
	<line class="st3" x1="185.3" y1="344.8" x2="185.3" y2="355.7"/>
	<line class="st3" x1="185.3" y1="378.7" x2="185.3" y2="411.1"/>
	<line class="st7" x1="242.9" y1="29.3" x2="297.9" y2="29.3"/>
	<line class="st7" x1="297.9" y1="4.1" x2="297.9" y2="29.3"/>
	<line class="st7" x1="241" y1="4.1" x2="297.9" y2="4.1"/>
	<line class="st7" x1="241" y1="29.3" x2="241" y2="4.1"/>
	<path class="st8" d="M165.9,116.5"/>
	
		<rect x="113.1" y="34.6" transform="matrix(0.9832 -0.1825 0.1825 0.9832 -6.9081 25.1119)" class="st9" width="39.7" height="30.9"/>
	<line class="st10" x1="116.3" y1="52.6" x2="137.5" y2="48.6"/>
	<path class="st1" d="M130.6,202.3c0,0,25.2-30.1,67.4-17.8"/>
	<path class="st1" d="M142.7,209.9c0,0,25.3-17.5,50.7-12.1"/>
	<line class="st1" x1="198" y1="184.4" x2="193.3" y2="197.8"/>
	<line class="st1" x1="130.6" y1="202.3" x2="142.7" y2="209.9"/>
	<path class="st1" d="M151.4,248.5"/>
	<g>
		<g>
			<path class="st11" d="M140.7,100.8c1.9,0.1,3.8-0.4,5.7-0.7c1.7-0.3,3.4-0.6,5.1-1c1.7-0.3,3.3-0.6,5-0.8c1.8-0.2,3.4-0.9,5-1.5
				c1.3-0.5,2.1-1.7,1.7-3.1c-0.3-1.2-1.8-2.2-3.1-1.7c-1.5,0.6-3,1.2-4.7,1.4c-1.7,0.2-3.3,0.4-5,0.8c-1.7,0.3-3.4,0.7-5.1,1
				c-1.5,0.3-3.2,0.7-4.8,0.6c-1.3-0.1-2.5,1.2-2.5,2.5C138.2,99.7,139.4,100.7,140.7,100.8L140.7,100.8z"/>
		</g>
	</g>
	<g>
		<g>
			<path class="st11" d="M141.3,103c2.2,0.3,4.1,0,6.2-0.5c1.7-0.4,3.4-0.4,5.1-0.4c3.8-0.1,7.8-0.8,11.2-2.4
				c1.2-0.6,1.5-2.3,0.9-3.4c-0.7-1.3-2.2-1.5-3.4-0.9c-1.4,0.6-2.9,0.9-4.3,1.2c-1.6,0.3-3.1,0.5-4.7,0.5c-1.8,0-3.5,0.1-5.3,0.5
				c-1.4,0.3-2.9,0.8-4.3,0.6c-1.3-0.2-2.7,0.3-3.1,1.7C139.2,101.1,139.9,102.8,141.3,103L141.3,103z"/>
		</g>
	</g>
	<g>
		<g>
			<path class="st11" d="M142,105c3.7,0.2,7.2-0.8,10.8-1.1c1.7-0.1,3.4-0.1,5.1-0.3c1.9-0.2,3.8-0.6,5.7-1.1
				c3.1-0.9,1.8-5.7-1.3-4.8c-1.5,0.4-3.1,0.8-4.7,1c-1.7,0.2-3.4,0.1-5.1,0.3c-3.5,0.3-6.9,1.3-10.4,1.1c-1.3-0.1-2.5,1.2-2.5,2.5
				C139.5,103.9,140.6,104.9,142,105L142,105z"/>
		</g>
	</g>
	<g>
		<g>
			<path class="st11" d="M144,107.2c3.1,0.3,6.2-0.6,9.2-0.8c1.6-0.1,3.2-0.1,4.9-0.4c1.5-0.3,3-0.6,4.5-1c1.3-0.3,2.1-1.8,1.7-3.1
				c-0.4-1.4-1.8-2-3.1-1.7c-1.4,0.3-2.8,0.6-4.2,0.9s-2.8,0.2-4.2,0.3c-3,0.3-5.8,1-8.8,0.7c-1.3-0.1-2.5,1.2-2.5,2.5
				C141.5,106.2,142.6,107.1,144,107.2L144,107.2z"/>
		</g>
	</g>
	<g>
		<g>
			<path class="st11" d="M143.9,109.3c1.8,0.3,3.5,0.3,5.3,0c1.4-0.2,2.8-0.6,4.1-0.6c3.1-0.2,6.3,0.3,9.3-0.6
				c1.3-0.4,2.1-1.8,1.7-3.1c-0.4-1.3-1.8-2.1-3.1-1.7c-2.5,0.7-5.3,0.3-8,0.4c-2.8,0.2-5.4,1.2-8.1,0.8c-1.3-0.2-2.7,0.3-3.1,1.7
				C141.9,107.5,142.6,109.1,143.9,109.3L143.9,109.3z"/>
		</g>
	</g>
	<g>
		<g>
			<path class="st11" d="M146.3,112.1c3,0.3,6-0.4,8.9-0.9c2.7-0.5,5.6-0.5,8.4-0.4c1.4,0,2.5-1.2,2.5-2.5c0-1.4-1.1-2.5-2.5-2.5
				c-3.1-0.1-6.1-0.1-9.1,0.4c-2.8,0.5-5.3,1.2-8.2,0.9c-1.3-0.2-2.5,1.3-2.5,2.5C143.8,111.1,145,112,146.3,112.1L146.3,112.1z"/>
		</g>
	</g>
	<g>
		<g>
			<path class="st11" d="M148.6,114.6c1.3,0.1,2.6,0.1,4,0c0.7-0.1,1.4-0.2,2-0.3c0.4-0.1,0.7-0.1,1.1-0.2c0.5-0.1-0.1,0,0.4-0.1
				c2.6-0.2,5.2,0.1,7.8-0.5c1.3-0.3,2.2-1.8,1.7-3.1c-0.4-1.3-1.7-2.1-3.1-1.7c-0.7,0.2-0.7,0.2-1.5,0.2c-0.6,0-1.1,0-1.7,0
				c-1.2,0-2.4,0-3.6,0.1c-0.7,0.1-1.3,0.2-2,0.3c-0.3,0.1-0.6,0.1-0.9,0.2c-0.1,0-0.3,0-0.4,0.1c0.2,0,0.1,0-0.2,0
				c-1.2,0.1-2.4,0.1-3.7,0c-1.3,0-2.6,1.2-2.5,2.5C146.1,113.5,147.2,114.6,148.6,114.6L148.6,114.6z"/>
		</g>
	</g>
	<g>
		<g>
			<path class="st11" d="M150.5,116.8c1.9,0,3.8,0,5.7,0s3.9,0,5.8-0.6c1.2-0.4,2.2-1.8,1.7-3.1c-0.4-1.2-1.7-2.2-3.1-1.7
				c-0.4,0.1-0.8,0.2-1.3,0.3c-0.1,0-0.2,0-0.3,0c0.3,0,0.4,0,0.1,0c-0.2,0-0.4,0-0.6,0c-0.9,0.1-1.7,0-2.6,0c-1.8,0-3.7,0-5.5,0
				c-1.3,0-2.6,1.2-2.5,2.5C148.1,115.7,149.1,116.8,150.5,116.8L150.5,116.8z"/>
		</g>
	</g>
	<g>
		<g>
			<path class="st11" d="M153.2,119.6c2.8,0.1,5.6,0.1,8.4,0.1c1.3,0,2.6-1.1,2.5-2.5c-0.1-1.3-1.1-2.5-2.5-2.5
				c-2.8,0.1-5.6,0-8.4-0.1c-1.3,0-2.6,1.2-2.5,2.5C150.7,118.5,151.8,119.6,153.2,119.6L153.2,119.6z"/>
		</g>
	</g>
	<g>
		<g>
			<path class="st11" d="M155.7,123.1c3.4-0.2,6.9,0.1,10.3-0.9c1.3-0.4,2.2-1.8,1.7-3.1c-0.4-1.3-1.7-2.1-3.1-1.7
				c-0.4,0.1-0.8,0.2-1.2,0.3c-0.2,0-0.4,0.1-0.5,0.1c-0.6,0.1,0.5,0,0,0c-0.8,0.1-1.6,0.1-2.4,0.2c-1.6,0-3.2,0-4.8,0.1
				c-1.3,0.1-2.6,1.1-2.5,2.5C153.2,121.9,154.3,123.2,155.7,123.1L155.7,123.1z"/>
		</g>
	</g>
	<g>
		<g>
			<path class="st11" d="M160.1,126.1c3.5-0.6,6.9-1.3,10.3-2.1c1.3-0.3,2.1-1.8,1.7-3.1c-0.4-1.4-1.7-2-3.1-1.7
				c-3.4,0.7-6.9,1.4-10.3,2.1c-1.3,0.2-2.1,1.9-1.7,3.1C157.5,125.7,158.8,126.3,160.1,126.1L160.1,126.1z"/>
		</g>
	</g>
	<g>
		<g>
			<path class="st11" d="M162.7,128.9c3.6-0.2,7.1-1.3,10.1-3.3c1.1-0.7,1.7-2.2,0.9-3.4c-0.7-1.1-2.3-1.7-3.4-0.9
				c-0.5,0.4-1.1,0.7-1.7,1c-0.3,0.1-0.5,0.3-0.8,0.4c-0.1,0-0.2,0.1-0.3,0.1c0.1,0,0.2-0.1,0.3-0.1c-0.2,0-0.3,0.1-0.5,0.2
				c-1.2,0.5-2.5,0.8-3.8,1c0.2,0,0.4-0.1,0.7-0.1c-0.5,0.1-1,0.1-1.5,0.1c-1.3,0.1-2.6,1.1-2.5,2.5
				C160.2,127.7,161.3,129,162.7,128.9L162.7,128.9z"/>
		</g>
	</g>
	<g>
		<g>
			<path class="st11" d="M164.9,132.1c1.3,0,2.4-0.4,3.6-0.8c1-0.3,2-0.7,2.9-1c2.2-0.9,4.2-2,5.9-3.6c0.9-0.9,1-2.6,0-3.5
				s-2.5-1-3.5,0c-0.2,0.2-0.3,0.3-0.5,0.5c-0.1,0.1-0.2,0.2-0.3,0.2c-0.2,0.2-0.2,0.1,0.1-0.1c-0.2,0.3-0.8,0.6-1.2,0.8
				c-0.4,0.2-0.8,0.5-1.2,0.7c-0.2,0.1-0.4,0.2-0.6,0.3c-0.5,0.2,0.5-0.2-0.1,0.1c-0.9,0.3-1.7,0.6-2.6,0.9
				c-0.5,0.2-0.9,0.3-1.4,0.4c-0.3,0.1-0.5,0.1-0.8,0.2c-0.3,0-0.3,0,0.1,0c-0.1,0-0.3,0-0.4,0c-1.3,0-2.6,1.1-2.5,2.5
				C162.5,130.9,163.5,132.1,164.9,132.1L164.9,132.1z"/>
		</g>
	</g>
	<g>
		<g>
			<path class="st11" d="M165.5,134.5c1.5,0.4,3,0.4,4.4-0.2c1.2-0.5,2.4-1.1,3.6-1.7c1-0.6,1.9-1.2,2.9-1.8c1-0.7,2.1-1.4,2.9-2.4
				c0.4-0.5,0.7-1.1,0.7-1.8c0-0.6-0.3-1.3-0.7-1.8c-0.9-0.8-2.7-1.1-3.5,0c-0.3,0.4-0.7,0.7-1,1c-0.1,0.1-0.2,0.2-0.3,0.2
				c0.2-0.2,0.3-0.2,0,0c-0.2,0.1-0.3,0.2-0.5,0.4c-0.8,0.6-1.7,1.2-2.6,1.7c-0.9,0.5-1.7,1-2.7,1.4c-0.1,0-0.2,0.1-0.3,0.1
				c0.3-0.1,0.3-0.1,0,0c-0.2,0.1-0.6,0.3-0.8,0.2c0.3,0,0.3,0,0,0c-0.1,0-0.3,0-0.4,0c0.3,0.1,0.3,0.1,0,0c-0.1,0-0.3-0.1-0.4-0.1
				c-1.3-0.3-2.8,0.4-3.1,1.7C163.5,132.8,164.2,134.1,165.5,134.5L165.5,134.5z"/>
		</g>
	</g>
	<g>
		<g>
			<path class="st11" d="M168.3,137.9c2.5-1.3,5.1-2.6,7.4-4.2c1.2-0.8,2.3-1.7,3.2-2.8c0.9-1.1,2-2,2.8-3.2
				c0.7-1.1,0.3-2.8-0.9-3.4c-1.2-0.7-2.7-0.3-3.4,0.9c-0.1,0.2-0.1,0.1,0,0c-0.1,0.1-0.2,0.2-0.3,0.4c-0.2,0.2-0.4,0.4-0.6,0.6
				c-0.4,0.4-0.8,0.9-1.2,1.3c-0.4,0.5-0.8,0.9-1.2,1.3c-0.1,0.1-0.3,0.2-0.4,0.3c0.2-0.1,0.2-0.1,0,0c-0.3,0.2-0.5,0.4-0.8,0.5
				c-2.3,1.5-4.7,2.7-7.1,3.9c-1.2,0.6-1.6,2.3-0.9,3.4C165.7,138.2,167.1,138.6,168.3,137.9L168.3,137.9z"/>
		</g>
	</g>
	<g>
		<g>
			<path class="st11" d="M168.2,141c1.9-0.3,3.7-1.4,5.3-2.3c1.7-0.9,3.3-1.9,5-2.9c1.6-1,3.2-2,4.8-3c1.7-1.2,3.2-2.3,3.9-4.3
				c0.5-1.3-0.5-2.7-1.7-3.1c-1.4-0.4-2.6,0.5-3.1,1.7c0.1-0.2,0.1-0.2-0.1,0.1c0.1-0.2,0.1-0.1-0.1,0.1c-0.1,0.1-0.7,0.6-0.5,0.4
				c-0.7,0.5-1.4,1-2.1,1.4c-1.4,0.9-2.8,1.8-4.2,2.7c-1.4,0.9-2.8,1.7-4.3,2.5c-1.4,0.8-2.7,1.6-4.3,1.9c-1.3,0.2-2.1,1.9-1.7,3.1
				C165.5,140.7,166.9,141.2,168.2,141L168.2,141z"/>
		</g>
	</g>
	<g>
		<g>
			<path class="st11" d="M182.9,130.7c3.2,0,3.2-5,0-5C179.7,125.7,179.7,130.7,182.9,130.7L182.9,130.7z"/>
		</g>
	</g>
	<g>
		<g>
			<path class="st11" d="M170.9,143.8c2.7-2.2,5.4-4.5,8.3-6.5s5.9-3.8,8.5-6.1c1-0.9,0.9-2.6,0-3.5c-1-1-2.5-0.9-3.5,0
				c-2.4,2.1-5.2,3.8-7.9,5.7c-3.1,2.1-5.9,4.5-8.8,6.9c-1,0.9-0.9,2.6,0,3.5C168.4,144.9,169.9,144.7,170.9,143.8L170.9,143.8z"/>
		</g>
	</g>
	<g>
		<g>
			<path class="st11" d="M170.8,148c2-0.1,3.5-1.6,4.9-2.8c1.4-1.1,2.7-2.1,4.1-3.2c2.7-2.1,5.4-4.3,8.1-6.4c1-0.8,0.9-2.7,0-3.5
				c-1.1-1-2.4-0.9-3.5,0c-2.5,2-4.9,3.9-7.4,5.9c-1.2,0.9-2.4,1.9-3.6,2.8c-0.6,0.5-1.3,1-1.9,1.5c-0.3,0.3-0.6,0.5-1,0.8
				c0.1-0.1,0.1-0.1-0.1,0.1c-0.4,0.2-0.3,0.2,0.4-0.1c-1.3,0-2.6,1.1-2.5,2.5C168.3,146.9,169.4,148.1,170.8,148L170.8,148z"/>
		</g>
	</g>
	<g>
		<g>
			<path class="st11" d="M190.8,133c0.7-0.6,1.5-1.2,2.2-1.8c0.2-0.2,0.4-0.5,0.5-0.8c0.2-0.3,0.2-0.6,0.2-1c0-0.3-0.1-0.7-0.2-1
				s-0.3-0.6-0.5-0.8c-0.2-0.1-0.3-0.3-0.5-0.4c-0.4-0.2-0.8-0.3-1.3-0.3c-0.2,0-0.4,0.1-0.7,0.1c-0.4,0.1-0.8,0.3-1.1,0.6
				c-0.7,0.6-1.5,1.2-2.2,1.8c-0.2,0.2-0.4,0.5-0.5,0.8c-0.2,0.3-0.2,0.6-0.2,1c0,0.3,0.1,0.7,0.2,1s0.3,0.6,0.5,0.8
				c0.2,0.1,0.3,0.3,0.5,0.4c0.4,0.2,0.8,0.3,1.3,0.3c0.2,0,0.4-0.1,0.7-0.1C190.1,133.6,190.4,133.3,190.8,133L190.8,133z"/>
		</g>
	</g>
	<g>
		<g>
			<path class="st11" d="M188.1,136.6c3.2,0,3.2-5,0-5S184.9,136.6,188.1,136.6L188.1,136.6z"/>
		</g>
	</g>
	<g>
		<g>
			<path class="st11" d="M171.6,151.2c1.6-1,2.9-2.4,4.1-3.8c1.3-1.5,2.7-2.8,4.3-4c1.6-1.2,3.2-2.4,4.7-3.8
				c1.3-1.2,2.5-2.4,3.9-3.5c0.3-0.2,2-1,2-1.2c-0.2-0.1-0.3-0.2-0.5-0.3c-0.4-0.1-0.6-0.3-0.5-0.6c-0.4-0.3,0.2-0.4-0.2,0
				c-0.3,0.3-0.5,0.6-0.7,0.9c-1.4,1.5-3.1,2.8-4.7,4.1c-3,2.5-6.3,4.5-9.4,6.8c-1.7,1.3-3.5,2.8-4.5,4.8c-0.5,1.1-0.9,2.3-0.9,3.5
				c0,0.5,0.1,1.1,0.3,1.6c0.1,0.3,0.3,0.6,0.4,0.9c0.1,0.2,0.3,0.8,0.2,0.2c0.3,2.7,4.1,3.5,4.9,0.7c0.3-1,0.5-2,1.1-2.9
				s1.3-1.7,1.9-2.6c1.4-1.8,2.8-3.7,4.5-5.2c3.4-3.1,7.3-5.6,11.2-8.1c0.6-0.4,1.3-1.1,2-0.9c0.7,0.1,1.5,0.9,1.9,1.4
				c1.3,1.6,1.8,4,2.2,6.1c0.1,0.5,0.1,1,0.1,1.5s0,0.2-0.3,0.4c-1,0.6-2.2,1-3.2,1.5c-2.1,0.9-4.2,1.7-6.4,2.3
				c-2.5,0.8-5,1.4-7.6,2c-1.3,0.3-2.6,0.5-3.8,0.7c-0.6,0.1-1.2,0.2-1.8,0.3c-0.2,0-0.5,0-0.7,0.1c-0.4,0.1-0.5-0.1-0.2,0.2
				c0.3,0.3,0.6,0.6,0.9,0.9c0-0.1-0.1-0.1-0.1-0.2c0.1,0.4,0.2,0.8,0.3,1.3c0-0.1,0-0.1,0-0.2c-0.1,0.4-0.2,0.8-0.3,1.3
				c0.1-0.1,0.1-0.2,0.2-0.2c-0.3,0.3-0.6,0.6-0.9,0.9c1.8-1.1,3-2.6,3.9-4.5c0.9-1.8,1.6-3.5,3-5c3-3.2,7.1-4.9,11.2-6.3
				c0.6-0.2,2.8-1.2,2.4,0.1c-0.5,1.7-2.5,3.1-3.9,4c-3.8,2.4-8.5,3.9-13,3.9c0.8,0.6,1.6,1.2,2.4,1.8c0-0.1-0.1-0.2-0.1-0.3
				c0,0.4,0,0.9,0,1.3c-0.2,0.2-0.2,0.2-0.1,0c0.1-0.1,0.3-0.3,0.5-0.4c0.3-0.2,0.6-0.5,0.8-0.7c0.6-0.5,1.1-0.9,1.7-1.4
				c1.2-0.9,2.4-1.7,3.8-2.3c1.4-0.6,2.9-0.9,4.3-1.3c0.8-0.2,1.6-0.4,2.4-0.6s1.7-0.6,2.5-0.5c-0.4-0.1-0.8-0.2-1.3-0.3
				c0.7,0.3,1.5,0.9,2.1,1.4c-0.3-0.3-0.6-0.6-0.9-0.9c0,0.1,0.1,0.2,0.1,0.3c-0.1-0.4-0.2-0.8-0.3-1.3c0,0.1-0.6,1-0.9,1.3
				c-0.5,0.6-0.8,0.8-1.6,0.8c-2,0-4.2-0.5-6.2-1c-3.1-0.8-4.5,4.1-1.3,4.8c3.9,1,9.2,2.5,12.4-0.8c1.2-1.3,2.7-3.3,2.6-5.2
				c-0.1-1.5-0.9-2.1-2-2.8c-0.9-0.6-1.5-1.3-2.7-1.4c-2.1-0.2-4.5,0.8-6.6,1.4c-2.1,0.5-4.1,1.1-6,2.1c-1.8,1-3.5,2.3-5.1,3.6
				c-1.6,1.3-3.8,3-2.9,5.4c0.4,1,1.3,1.8,2.4,1.8c5.2,0,10.7-1.7,15.2-4.4c2.2-1.3,4.2-3,5.6-5.1c1.5-2.2,1.8-5.4-0.2-7.4
				c-1.8-1.9-4.5-1.8-6.9-1.1c-2.5,0.8-5,1.8-7.3,2.9c-4.4,2.2-8,5.5-10.1,10.1c-0.4,0.9-0.8,1.9-1.4,2.6c-0.6,0.8-1.6,1.1-2.2,2
				c-0.8,1.4-0.2,3.1,1.1,3.9c1.2,0.7,2.5,0.5,3.8,0.3c5.4-0.7,10.8-1.9,16-3.7c2.5-0.9,5-1.9,7.4-3c1.3-0.6,2.5-1.2,3.3-2.4
				c0.8-1.2,0.9-2.9,0.8-4.3c-0.5-4.9-2.7-11.6-8.2-12.7c-3.1-0.6-5.9,1.8-8.3,3.5c-2.5,1.7-5,3.5-7.4,5.4s-4.2,4-6.1,6.4
				c-1,1.2-2,2.4-2.9,3.8c-0.9,1.3-1.3,2.8-1.7,4.3c1.6,0.2,3.3,0.4,4.9,0.7c-0.1-0.7-0.2-1.3-0.5-2c-0.1-0.2-0.3-0.5-0.4-0.8
				c-0.1-0.6,0.4-1.4,0.7-1.8c1.2-1.7,3.1-2.9,4.8-4c3.9-2.6,7.5-5.4,11-8.4c1.6-1.4,3.3-3,3.7-5.2c0.4-2.6-1.5-4.9-4.1-4.7
				c-2.2,0.2-4.4,1.9-6,3.3c-1.6,1.3-3,2.8-4.5,4.1c-1.9,1.6-4,3-5.9,4.7c-1.6,1.6-2.9,3.6-4.8,4.8
				C166.4,148.6,168.9,152.9,171.6,151.2L171.6,151.2z"/>
		</g>
	</g>
	<path class="st1" d="M153.7,63.9c17.3,24.4,11.5,53.3,11.5,53.3s36.9,11.4,39.7,24.7"/>
	<g>
		<g>
			<path class="st12" d="M124.9,104.6c1.7,0,3.2-0.4,4.8-0.7c0.8-0.2,2.2-0.6,2.9,0c1.8,1.4,4,0.5,4.3-1.8c0.2-1.3-0.2-2.6-0.8-3.7
				c-1.4-2.5-5.2-0.8-4.6,1.9c0.6,2.3,0.9,4.9,2.1,6.8c0.6,0.9,1.3,1.7,2,2.7c0.6,0.9,1.2,1.9,1.7,2.8c2.4,4.2,5.3,7.7,8.5,11.2
				s6.6,6.9,9.5,10.6c2.4,3.2,4.2,6.9,5.3,10.7c1.4,4.6,1.9,9.3,1.8,14c0,1.4,1.2,2.5,2.5,2.5c1.5,0,2.3-1.2,2.5-2.5
				c0.3-3-1.1-5.7-1.4-8.7c-0.1-1.6-0.1-3.2-0.4-4.8c-0.3-1.6-0.9-3.1-1.4-4.6s-0.9-3-1.5-4.4c-0.6-1.5-1.3-2.6-2.3-3.8
				c-0.2-0.3-0.5-0.6-0.6-0.9c-0.1-0.8,0.1-1.5-0.1-2.3c-0.4-1.6-1.9-2.8-3.6-2.8c-3.2,0-3.2,5,0,5H156c-0.4-0.2-0.7-0.4-1.1-0.6
				c0.6,0.4-0.1-0.3,0-0.3c0,0,0,1,0,1.1c0,0.7,0.2,1.3,0.4,1.9c0.5,1.1,1.3,1.9,2,2.9c0.7,0.9,1,2,1.3,3.1c0.4,1.4,0.9,2.7,1.3,4.1
				c0.4,1.1,0.8,2.3,0.9,3.5c0.1,1.3,0,2.6,0.2,3.8c0.3,2.6,1.6,5.1,1.3,7.8c1.7,0,3.3,0,5,0c0.1-8.6-1.6-17.5-6.2-24.9
				c-5-8-13.2-13.7-18.2-21.7c-1.3-2.1-2.4-4.4-3.9-6.4c-0.8-1.1-1.5-1.9-1.9-3.2c-0.3-1.3-0.6-2.7-1-4c-1.5,0.6-3,1.3-4.6,1.9
				c0.2,0.4,0.2,0.7,0.1,1.2c1.4-0.6,2.8-1.2,4.3-1.8c-1.6-1.3-3.4-1.8-5.5-1.7c-2,0.2-3.8,1-5.8,0.9
				C121.7,99.5,121.7,104.5,124.9,104.6L124.9,104.6z"/>
		</g>
	</g>
	<g>
		<g>
			<path class="st11" d="M133.7,96.5c2.9,9.1,8.2,17.2,14.7,24.2c1.6,1.7,3.3,3.4,5.1,4.9c1.8,1.6,3.8,3.2,5.3,5.2
				c2.9,3.8,4.6,8.8,5.8,13.4c1.5,5.6,2,11.4,1.7,17.3c-0.2,3.2,4.8,3.2,5,0c0.6-10.4-1.4-21.7-6.5-30.8c-2.5-4.5-6.5-7.4-10.1-10.9
				c-3.3-3.2-6.4-6.7-9-10.5c-3-4.4-5.4-9-7-14.1C137.6,92.1,132.7,93.4,133.7,96.5L133.7,96.5z"/>
		</g>
	</g>
	<line class="st1" x1="120.2" y1="98.6" x2="163.5" y2="89.7"/>
	<g>
		<g>
			<path class="st12" d="M124.5,108c0.6,0.4,1.1,0.8,1.7,1.2c1.1,0.8,2.8,0.2,3.4-0.9c0.7-1.3,0.2-2.6-0.9-3.4
				c-0.4-0.3-0.9-0.6-1.3-1c-0.2,1.5-0.4,3-0.6,4.6c1.4-0.4,2.8-0.6,4.3-0.8c-0.4-1.6-0.8-3.1-1.3-4.7c-1.6,1.1-3.2,2.1-4.9,2.9
				c-1.4,0.7-1.6,2.9-0.5,3.9c1.3,1.2,2.9,1.6,4.6,1.3c1.5-0.2,2.7-1.1,4.1-1.4c-0.9-1.2-1.9-2.4-2.8-3.7c-0.8,1.2-2.2,2.1-3.6,2.2
				c-1.2,0.1-2.3,0.9-2.5,2.2c-0.1,1.1,0.5,2.6,1.8,2.7c3.5,0.5,7.1,0.7,9.8-1.9c-1.2-1.2-2.4-2.4-3.5-3.5c-1.2,1.6-2.7,3.7-4.9,3.6
				c-1.3-0.1-2.5,1.2-2.5,2.5c0,1.5,1.1,2.4,2.5,2.5c3.5,0.3,6.8-0.9,9.5-3.1c-1.4-0.8-2.8-1.6-4.2-2.4c-0.2,1-0.4,2-0.9,3
				c-0.1,0.3-0.6,0.7-0.6,1c0,0.1,0.9,0.1,1.1,0.5c-1.3,1-2.6,2-3.9,3c0.7,0.9,0.5,2.8,0.8,3.8c0.4,1.6,1.4,3.1,2.9,3.9
				c1.6,0.8,3.8-0.2,3.8-2.2c-0.1-3.1,0.8-6,2.5-8.6c-1.4,0-2.9,0-4.3,0c1,1.4,1.9,3,2.5,4.6c1.4-0.8,2.8-1.6,4.2-2.4
				c-0.5-0.6-1-1.4-1.4-2.1c-1.1,1.1-2.3,2.3-3.4,3.4c1.5,0.7,2.9,1.6,3.9,3c1.1,1.4,1.9,2.9,3.1,4.2c1.2,1.3,2.7,2.2,4,3.2
				s2.1,2.2,3,3.6s1.8,2.8,3,3.9c1.4,1.2,2.4,2,3.2,3.7c1.5,3.4,2.4,7,3,10.6c1.2-0.9,2.4-1.9,3.7-2.8c-2.6-1.8-3.9-5-5-7.8
				c-1.5-3.7-3.1-7.3-5.3-10.6c-2.2-3.3-4.7-6.4-7.6-9.1c-1.6-1.5-3.3-3.3-5.7-3.3c-2.1-0.1-3.9,1.3-5,3s-1.3,3.8-3,5.1
				c-2,1.6-4.2,2.9-6.4,4.3c-2.7,1.7-0.2,6,2.5,4.3c1.8-1.1,3.6-2.3,5.4-3.6c1.6-1.1,3.2-2.3,4.2-4.1c0.6-1.1,1-3.5,2.2-4
				c-0.1,0-0.3-0.1-0.1,0c0.4,0.2,0.7,0.5,1,0.7c0.7,0.6,1.4,1.3,2.1,2c2.6,2.6,4.8,5.4,6.7,8.5c1.8,3,3.2,6.1,4.5,9.4
				c1.5,3.8,3.4,7.3,6.8,9.6c2,1.3,4-0.9,3.7-2.8c-0.7-4-1.8-8.1-3.5-11.8c-0.8-1.7-1.9-3-3.3-4.2c-1.3-1.1-2.2-2.2-3.1-3.7
				c-1-1.5-2-3-3.4-4.2c-1.4-1.1-3-2.1-4.2-3.4s-2-3-3.2-4.3c-1.3-1.5-3-2.8-4.8-3.6c-2.2-1-4.7,1.1-3.4,3.4
				c0.6,1.1,1.4,2.1,2.2,3.1c1.5,1.9,5.1-0.1,4.2-2.4c-0.8-2-1.8-3.9-3-5.8c-1.1-1.6-3.3-1.6-4.3,0c-2.2,3.3-3.2,7.2-3.2,11.1
				c1.3-0.7,2.5-1.4,3.8-2.2c-0.8-0.4-0.8-1.9-0.9-2.7c-0.2-1.6-0.7-3-1.8-4.2c-1.9-2.3-5.1,0.6-3.9,3c1.2,2.4,4.3,2.5,6.2,1
				s2.9-4.3,3.2-6.6c0.4-2.5-2.2-4.1-4.2-2.4c-1.7,1.4-3.8,1.8-5.9,1.6c0,1.7,0,3.3,0,5c3.7,0.3,6.4-2.3,8.5-5c0.8-1.1,1-2.5,0-3.5
				s-2.6-0.9-3.5,0c-1.2,1.2-3.4,0.9-5,0.7c-0.2,1.6-0.4,3.3-0.7,4.9c3.3-0.3,6.1-1.9,7.9-4.7c1.2-1.9-0.8-4.1-2.8-3.7
				c-0.4,0.1-3.6,1.6-3.8,1.4c-0.2,1.3-0.3,2.6-0.5,3.9c1.7-0.9,3.3-1.8,4.9-2.9c0.9-0.6,1.5-1.7,1.1-2.8c-0.3-1-1.3-1.9-2.4-1.8
				c-1.9,0.2-3.8,0.5-5.6,1c-2.3,0.6-2.2,3.4-0.6,4.6c0.4,0.3,0.9,0.6,1.3,1c0.8-1.4,1.7-2.9,2.5-4.3c-0.6-0.4-1.1-0.8-1.7-1.2
				c-1.1-0.8-2.8-0.2-3.4,0.9C122.9,105.9,123.4,107.3,124.5,108L124.5,108z"/>
		</g>
	</g>
	<g>
		<g>
			<path class="st12" d="M136.1,123.2c1.1,1.9,2.3,3.8,3.4,5.7c1.1,1.9,2.3,3.2,4.2,4.3c2.8,1.6,4.9,4.2,5.9,7.3
				c1.2-0.9,2.4-1.9,3.7-2.8c-2.7-1.9-4.6-4.7-6-7.7c-1.2-2.7-1.9-9.5-6.5-7.3c-1.9,0.9-3.6,2.1-5.4,3.2c-1.8,1.1-3.7,2.2-5.3,3.5
				c-1.5,1.2-3,2.3-4.8,3.3s-3.5,2-5.1,3.3c-3.4,2.8-6.9,6.1-9,10c-1.5,2.8,2.8,5.4,4.3,2.5c1.3-2.5,3.3-4.4,5.3-6.3
				c1-1,2.1-2,3.2-2.9c1.2-0.9,2.5-1.5,3.8-2.2c2.7-1.4,4.8-3.5,7.3-5.1c1.3-0.8,2.7-1.6,4-2.4c0.7-0.4,1.4-0.8,2.1-1.2
				c0.3-0.2,0.7-0.4,1-0.6c0.1-0.1,1-0.5,0.7-0.4c-0.4,0-0.9,0-1.3,0c0.1,0,0.2,0,0.2,0.1c-0.4-0.2-0.7-0.4-1.1-0.6
				c-0.2-0.2-0.1-0.1,0,0.2c0.1,0.4,0.2,0.7,0.3,1.1c0.2,0.7,0.5,1.5,0.8,2.2c0.6,1.6,1.3,3.1,2.2,4.6c1.7,2.9,3.9,5.3,6.6,7.3
				c1.8,1.3,4.3-0.8,3.7-2.8c-1.2-3.7-3.4-6.9-6.6-9.2c-0.7-0.5-1.6-0.9-2.3-1.4s-1.1-1.1-1.5-1.9c-1.2-2-2.4-4-3.5-5.9
				C138.8,117.9,134.5,120.4,136.1,123.2L136.1,123.2z"/>
		</g>
	</g>
	<g>
		<g>
			<path class="st12" d="M141.5,126.6c-4.6,2.7-9.1,5.7-13.8,8.2c-2.2,1.2-4.4,1.8-6.7,2.8c-2.6,1.1-4.3,2.9-4.6,5.7
				c-0.2,1.8,2.3,3.2,3.8,2.2c4.1-2.9,8.5-4.2,13.3-5.3c4.5-1,9.2-2.1,13.1-4.9c1.1-0.8,1.6-2.2,0.9-3.4c-0.6-1.1-2.3-1.7-3.4-0.9
				c-2.1,1.5-4.1,3.2-5.9,5.1c-0.8,0.8-1,2.1-0.4,3c0.6,1,1.7,1.3,2.8,1.1c1.2-0.2,2.4-0.3,3.6-0.2c1.3,0.2,2.6,0.9,3.8,1.5
				c1.2,0.7,2.4,1.4,3.6,2.2c0.4,0.3,2,1.1,2,1.6c1.1-0.8,2.1-1.6,3.2-2.4c-4.5-1.4-9.1-2.9-13.8-3.8c-4.8-0.9-9.7-1-14.6-0.4
				c-4.8,0.6-9.5,1.7-14.2,2.9c-2.1,0.5-4.1,1.5-4.7,3.7c-0.3,0.9-0.2,1.7-0.7,2.6c-0.5,1-1.1,1.9-1.6,2.9c-1.1,2.2-1.9,4.6-2.2,7.1
				c-0.4,2.9,1.6,5.8,4.8,5c1-0.3,1.9-1.3,1.8-2.4c-0.1-1.7-0.3-3.5-0.4-5.2c-0.1-1.5,0.1-2,1.4-2.8c2.9-1.7,6-3.1,9.2-4.2
				c-0.9-1.2-1.9-2.4-2.8-3.7c-1,1.6-1.9,3.2-2.9,4.8c1.4,0.8,2.9,1.7,4.3,2.5c0.4-0.9,1.3-1.2,2.2-1.6c1.5-0.7,3.1-1.2,4.7-1.7
				c3.1-1.1,6.4-2,9.6-2.7c1.3-0.3,2.1-1.8,1.7-3.1c-0.4-1.4-1.7-2-3.1-1.7c-3,0.6-6.1,0.8-9.2,0.7c-2.7-0.1-5.5-0.1-7.8,1.5
				c-1.9,1.4-1.4,4.7,1.3,4.7c5.3-0.1,10.5-0.1,15.8-0.2c5-0.1,10-0.3,15,0c1.1,0.1,2.1,0.2,3.2,0.4c0.8,0.1,2.3,0.2,3,0.8
				c0.2,0.2,0.5,0.8,0.6,1.1c0.3,0.5,0.6,1.1,0.8,1.6c0.5,1,1,2,1.4,3.1c0.3,0.9,0.5,1.9,0.9,2.7c0,0.3,0,0.4,0,0.3
				c0.1-0.3,0.3-0.5,0.7-0.5c0,0.2-0.7-0.5-0.5-0.3c-0.7-0.7-1.1-1.9-1.5-2.8c-0.6-1.1-1.2-2.3-1.8-3.4c-0.9,1.2-1.9,2.4-2.8,3.7
				c1.2,0.4,2.2,1,3.3,1.7c2.4,1.6,5-2,3-3.9c-3.4-3.3-7.6-5.7-12.1-6.8c-5.1-1.2-10.3-0.8-15.5-1.2c-2.6-0.2-5.2-0.7-7.8-0.5
				c-2.6,0.1-5.1,0.8-7.6,1.6c-2.2,0.8-4.7,1.7-6.3,3.5c-0.8,0.9-1.2,1.9-1.8,2.9c-0.5,1-1.2,1.8-1.9,2.7c-1.7,2.2-2.6,4.6-3.1,7.3
				c-0.5,2.7-0.6,5.2,1.2,7.5c0.9,1,2.6,0.9,3.5,0c1-1,0.9-2.5,0-3.5c-0.6-0.8,0.1-3,0.3-3.9c0.4-1.9,1.2-3.4,2.4-4.9
				c0.6-0.8,1.3-1.6,1.8-2.5c0.4-0.7,0.7-1.5,1.2-2.2c1.1-1.3,3.5-1.9,5-2.4c2-0.6,4-1.1,6.1-1.1s4.2,0.4,6.4,0.5
				c4.3,0.4,8.8,0,13.1,0.7c4.4,0.7,8.3,2.7,11.5,5.8c1-1.3,2-2.6,3-3.9c-1.4-0.9-2.9-1.6-4.4-2.2c-2.2-0.8-3.8,1.9-2.8,3.7
				c1.8,3.5,4.2,10.5,9.4,8.8c5.4-1.8,2-8.8,0.4-12.1c-0.9-1.9-1.9-4.4-3.9-5.4c-2.2-1.1-4.9-1.3-7.2-1.6c-4.9-0.5-9.8-0.2-14.7-0.1
				c-5.7,0.1-11.5,0.1-17.2,0.2c0.4,1.6,0.8,3.1,1.3,4.7c1.9-1.3,4.5-0.8,6.6-0.8c3.1,0,6.1-0.3,9.1-0.9c-0.4-1.6-0.9-3.2-1.3-4.8
				c-3.7,0.8-7.4,1.9-11,3.1c-3,1.1-7,2.1-8.5,5.2c-1.4,2.9,2.7,5.3,4.3,2.5c1-1.6,1.9-3.2,2.9-4.8c1.1-1.8-0.7-4.4-2.8-3.7
				c-3.9,1.3-8.1,2.9-11.4,5.3c-1.9,1.3-2.8,3.2-2.9,5.5c-0.1,2.1,0.2,4.2,0.4,6.2c0.6-0.8,1.2-1.6,1.8-2.4c0.8,0.9,1.3,1.1,1.4,0.6
				c0-0.2,0-0.4,0.1-0.5c0.1-0.6,0.2-1.1,0.4-1.7c0.3-1.1,0.6-2.1,1.1-3.1c1-2.1,2.5-4.1,2.7-6.5c0.1-1,0-0.1,0-0.1
				c0.3-0.2,0.7-0.2,1-0.3c1.2-0.3,2.5-0.6,3.7-0.9c2.4-0.6,4.8-1.1,7.3-1.5c4.8-0.8,9.7-1.1,14.5-0.3c5,0.8,9.9,2.4,14.7,3.9
				c1.5,0.5,3.2-0.8,3.2-2.4c-0.2-4-4.6-6.2-7.7-7.9c-1.7-1-3.5-1.9-5.4-2.3c-2.1-0.4-4.2-0.1-6.3,0.2c0.8,1.4,1.6,2.8,2.4,4.2
				c1.5-1.6,3.2-3,4.9-4.3c-0.8-1.4-1.7-2.9-2.5-4.3c-3.7,2.7-8.2,3.6-12.7,4.6c-4.9,1.1-9.5,2.7-13.7,5.6c1.3,0.7,2.5,1.4,3.8,2.2
				c0.1-1.1,3.4-1.7,4.2-2c2.2-0.8,4.2-1.8,6.2-3c4.1-2.3,8.1-4.8,12.2-7.3C146.8,129.2,144.3,124.9,141.5,126.6L141.5,126.6z"/>
		</g>
	</g>
	<g>
		<g>
			<path class="st12" d="M131.9,160.6c-6.6-0.2-12.2,3.7-18.5,4.8c1.1,0.8,2.1,1.6,3.2,2.4c-0.5-3.6,0.9-7,3.6-9.4
				c2.7-2.4,6.1-2.2,9.5-2.7c6.9-1,15.4-2.5,21.3,2.3c0.6-1.4,1.2-2.8,1.8-4.3c-0.2,0-0.5,0.2-0.4,0.1s-0.1-0.1,0.1,0
				c0.7,0.4,1,1.1,0.9,1.5c-0.1,0.5-0.2,0.6-0.5,1c-0.4,0.6-1.1,0.8-1.9,0.5c-0.3-0.1-0.5-0.3-0.8-0.4s-0.1-0.4,0,0
				c0-0.1,0.2,0.6,0.2,0.5c0.6-1,1.2-2.1,1.7-3.1c-4.2,0.9-8.4,0.4-12.6,0c-2-0.2-4-0.4-6-0.5c-1.3-0.1-2.8-0.3-4.1-0.3
				c-2.9,0-5.9,0.6-8.4,2.2c-2.9,1.8-4.7,4.6-5.8,7.8c-0.8,2.5,2.4,4,4.2,2.4c1.3-1.2,2.3-4.2,1.4-5.9c-0.4-0.8-1.3-1.2-2.2-1.2
				c-2.4-0.1-2.9,2.9-3.4,4.7c-0.7,2.5,2.4,4,4.2,2.4c4.5-4,10.2-5.5,16.1-5.4c1.3,0,3-0.1,4.2,0.3c0.3,0.1,0.6,0.5,0.8,0.8
				c0.2,0.6,0.2,1.1-0.1,1.9c0.1-0.3-0.2,0.3-0.2,0.3c-0.3,0.5,0.2-0.1-0.3,0.3c-0.4,0.4-0.5,0.4-1.1,0.7c-1.2,0.6-1.5,2.3-0.9,3.4
				c0.7,1.3,2.2,1.5,3.4,0.9c2.8-1.3,4.5-4.4,4.2-7.5c-0.2-1.6-0.8-3.2-2.1-4.3c-1.5-1.3-3.3-1.6-5.2-1.7
				c-8.2-0.7-16.2,1.2-22.4,6.8c1.4,0.8,2.8,1.6,4.2,2.4c0.2-0.7,0.4-1.3,0.6-2c0.1-0.2,0.2-0.3,0.2-0.5c0,0.3-0.2,0.5-0.4,0.7
				c-0.6,0.2-1.2,0.5-1.8,0.7l0,0c-0.7-0.4-1.4-0.8-2.2-1.2l0,0c-0.1-0.4-0.2-0.8-0.3-1.3c0,0.3,0.2-0.7,0-0.1
				c-0.1,0.2-0.1,0.5-0.2,0.7c0,0.2-0.3,0.8-0.2,0.5c0.2-0.4,0,0-0.1,0.1c-0.3,0.4,0.4-0.4,0.1-0.1c1.4,0.8,2.8,1.6,4.2,2.4
				c0.8-2.5,2.3-4.3,4.5-5.4c1.9-0.9,4.2-1,6.6-0.9c1.3,0.1,2.9,0.2,4.5,0.3c1.9,0.1,3.8,0.4,5.7,0.6c4.1,0.4,8.1,0.6,12.2-0.4
				c1.3-0.3,2.2-1.8,1.7-3.1c-0.5-1.4-1.2-3-2.8-3.5c-1.4-0.4-2.8,0.2-3.5,1.4c-1.6,2.7,1.1,5.6,3.9,5.2c1-0.1,1.9-0.5,2.3-1.5
				c0.3-0.9,0.3-2.1-0.5-2.7c-5.9-4.8-13.2-5.2-20.5-4.3c-3.3,0.4-6.7,0.9-10,1.3c-3.4,0.4-6.6,2.3-8.8,4.9
				c-2.7,3.2-4.2,7.3-3.7,11.5c0.2,1.7,1.4,2.7,3.2,2.4c5.8-1,11.2-4.8,17.2-4.6C135.2,165.7,135.2,160.7,131.9,160.6L131.9,160.6z"
				/>
		</g>
	</g>
	<g>
		<g>
			<path class="st12" d="M129.2,165.2c-3,0.6-5.9,1.4-8.8,2.2c-1.4,0.4-2.8,0.7-4.2,1.1c-0.8,0.2-1.6,0.4-2.4,0.5
				c-0.3,0.1-0.6,0.1-0.9,0.2c-0.3,0.1-0.6,0.1-0.9,0.2c0.3,0.1,0.5,0.1,0.8,0.2c-0.5-0.3,0.9,0.7,0.6,0.8v0.1c0-0.2,0-0.3,0-0.5
				s0-0.3,0-0.5c0,0.4,0,0,0,0c0.2-1.3,0.3-1.6,0.7-2.8c0.7-2.1,1.3-4.3,2.2-6.2c0.9-2,2.2-3.9,3.9-5.3c1.9-1.5,4.9-2.2,7.3-2.6
				c5.3-0.9,10.8,0,15.9,0.9c2.3,0.4,4.6,0.9,6.9,1.6c0.2,0.1,0.4,0.1,0.6,0.2c0.1,0,0.2,0.1,0.3,0.1c-0.2-0.1-0.2-0.1,0,0
				s0.4,0.2,0.5,0.3c0.4,0.3-0.1-0.2,0.2,0.2c0.1,0.1,0.3,0.4,0.3,0.4c0.2,0.5,0.3,1,0.3,1.6c0.6-0.8,1.2-1.6,1.8-2.4
				c-5.8,1.9-11.8,3.8-17.9,4.3c-1.3,0.1-2.5,1.1-2.5,2.5c0,1.3,1.1,2.6,2.5,2.5c6.6-0.5,13-2.4,19.3-4.4c1-0.3,1.9-1.3,1.8-2.4
				c-0.1-2.7-1.1-5.2-3.5-6.6c-1.8-1.1-4.2-1.6-6.2-2c-6.5-1.3-13.2-2.6-19.8-1.8c-3.4,0.4-6.9,1.3-9.9,3c-2.4,1.4-4.4,4-5.7,6.5
				c-1.4,2.5-2.2,5.3-3.1,8c-0.2,0.7-0.5,1.4-0.7,2.1c-0.1,0.3-0.1,0.7-0.2,1c-0.1,0.6,0.1-0.6,0,0.1c-0.2,1.2-0.4,2.4,0,3.6
				c0.5,1.5,1.9,2.6,3.5,2.6c2.1-0.1,4.3-0.8,6.3-1.3c4-1,8-2.1,12.1-3c1.3-0.3,2.1-1.8,1.7-3.1
				C131.9,165.6,130.6,164.9,129.2,165.2L129.2,165.2z"/>
		</g>
	</g>
	<g>
		<g>
			<path class="st12" d="M111.5,171.3c-0.3-0.6-0.2,0.2-0.1-0.6c-1.4,0.6-2.8,1.2-4.3,1.8c0.3,0.3,0.2,0.5,0,0.9c1.6,0,3.2,0,4.8,0
				c-2.9-8.3,4-15.9,9-21.9c-0.4,0.2-0.7,0.4-1.1,0.6c4.5-1,9.1-1.5,13.7-1.7c2.3-0.1,4.6-0.1,6.9-0.2c2,0,4.2-0.2,6.1,0.1
				c5.8,1,8.8,8,12.8,12c0.4-1.4,0.7-2.8,1.1-4.2c-0.4,0.1-0.8,0.1-1.2,0.2c-0.2,0-1.2,0.1-0.6,0c-0.1,0-0.3,0-0.3-0.1
				c0.4,0.2,0.1,0,0.4,0.2c0.9,0.8,0.9,2.1,0.2,2.9c0,0-0.5,0.4-0.3,0.2c0,0-0.6,0.2-0.3,0.1c0.4-0.1-0.4,0-0.2,0
				c0.1,0,0.4,0.1,0.1,0c-0.5-0.2,0.8,0.3,0.3,0.1c0.3,0.1,0.7,0.4,0.9,0.5c0.4-1.4,0.7-2.8,1.1-4.2c-7,1.4-14.1,2.6-20.9,4.7
				c-3.1,1-1.8,5.8,1.3,4.8c6.8-2.1,13.9-3.3,20.9-4.7c1.7-0.3,2.5-3,1.1-4.2c-2.1-1.7-6.4-3.4-8.2-0.2c-0.9,1.6-0.1,3.3,1.4,4.2
				c1.7,0.9,3.9,0.6,5.7,0.2c1.9-0.4,2.4-2.9,1.1-4.2c-3-3-5.1-6.8-8.3-9.7c-1.7-1.5-3.6-2.7-5.8-3.3c-2.7-0.8-5.6-0.5-8.3-0.5
				c-6.4,0-12.8,0.4-19.1,1.5c-1.5,0.3-3.2,0.4-4.3,1.6c-0.8,0.9-1.5,1.8-2.3,2.8c-1.6,2-3.2,4.1-4.6,6.3
				c-3.2,5.2-5.1,11.3-3.1,17.3c0.8,2.4,3.9,2.3,4.8,0c0.8-2.1,0.2-4.2-1.3-5.8c-1.5-1.7-4.2-0.3-4.3,1.8c0,1.1,0.3,2.1,0.8,3.1
				C108.7,176.7,113,174.2,111.5,171.3L111.5,171.3z"/>
		</g>
	</g>
	<path class="st1" d="M119.2,70.8c-6.3,29.3,10.5,53.5,10.5,53.5s-29.4,25-26.8,38.4"/>
	<line class="st1" x1="114.9" y1="227.3" x2="103" y2="162.7"/>
	<line class="st13" x1="126.7" y1="172.7" x2="142.7" y2="169.1"/>
	<g>
		<g>
			<path class="st12" d="M128.8,162.6c2.7,0,5.3-0.4,7.9-1c-1-1-2.1-2.1-3.1-3.1c-0.1,0.5,0.3-0.5,0-0.1c0,0,0.4-0.4,0.1-0.2
				c-0.1,0.1-0.2,0.2-0.3,0.2c-0.2,0.3,0.5-0.4,0.1-0.1c-0.6,0.4-1.1,0.8-1.6,1.3c-1.1,1.1-1.8,2.8-1.7,4.4c0.1,1.2,0.6,2.2,1.6,2.8
				c0.9,0.5,1.8,0.4,2.8,0.4c0.3,0,0.6,0,0.9,0c0.1,0,0.2,0,0.4,0c0.6,0-0.5-0.1,0.1,0c0.3,0.1,0.5,0.1,0.8,0.2
				c0.1,0,0.3,0.1,0.4,0.1c-0.5-0.4-0.1,0,0,0.1c0.1,0,0.1,0.1,0.2,0.1c-1-0.7-1-1.8,0.1-3.3c0,0,0.6-0.3,0.2-0.1
				c-0.1,0-0.1,0-0.2,0c0.3,0,0.4-0.1,0.2,0c-0.2,0-0.3,0-0.5,0c-0.7,0-1.4-0.2-2.1-0.2c-1.5,0-3,0.3-4.4,0.8
				c-0.7,0.3-1.4,0.6-2.2,0.9c-0.7,0.3-1.5,0.6-2.1,1.2c-1.2,1.2-1.1,3.3,0.4,4.3c1,0.6,2,0.4,3.1,0.2c3.2-0.6,6.3-1.4,9.4-2.2
				c1.3-0.3,2.2-1.8,1.7-3.1c-0.4-1.3-1.7-2.1-3.1-1.7c-1.7,0.4-3.4,0.9-5.1,1.3c-0.9,0.2-1.7,0.4-2.6,0.6c-0.4,0.1-0.8,0.2-1.2,0.2
				c-0.2,0-0.4,0.1-0.6,0.1c-0.1,0-0.3,0.1-0.4,0.1c-0.3,0.1-0.3,0.1,0.2,0c0.4,0.1,0.8,0.2,1.3,0.3c0,0-0.1,0-0.1-0.1
				c0.4,0.5,0.8,1,1.1,1.5v-0.1c0,0.4,0,0.9,0,1.3c-0.1,0.2-0.3,0.4-0.4,0.6c-0.5,0.5-0.6,0.7-0.2,0.5c0.1,0,0.2-0.1,0.3-0.1
				c0.2-0.1,0.4-0.2,0.6-0.3c0.2-0.1,0.4-0.2,0.6-0.3c0.3-0.1-0.1,0-0.1,0.1c0.1-0.1,0.2-0.1,0.4-0.1c0.9-0.4,1.8-0.6,2.7-0.8
				c0.3-0.1-0.2,0-0.2,0s0.3,0,0.4,0c0.2,0,0.5,0,0.7,0c0.5,0,0.9,0.1,1.4,0.1c1.2,0.1,2.5,0.1,3.5-0.6c1.6-1.1,1.9-3.3,0.5-4.7
				c-0.7-0.8-1.9-1.2-3-1.5c-1-0.2-2.1-0.3-3.1-0.3c-0.2,0-0.4,0-0.6,0c-1.1,0.1,0.9,0.4,1.2,1.1c0,0.1,0.2,0.4,0.1,0.5
				c0-0.1,0-0.2,0-0.3c0-0.1,0-0.5,0-0.1s0,0,0-0.1s0.2-0.4,0-0.1c-0.1,0.3,0,0,0.1-0.1c0-0.1,0.3-0.4,0-0.1c-0.2,0.3,0,0,0.1-0.1
				s0.2-0.1,0.2-0.2c0.2-0.2-0.4,0.3-0.2,0.1c0.2-0.1,0.3-0.2,0.5-0.3c1.1-0.8,2-1.6,2.3-2.9c0.5-1.9-1.2-3.5-3.1-3.1
				c-0.6,0.1-1.2,0.3-1.7,0.4c-0.3,0.1-0.5,0.1-0.8,0.1c-0.1,0-0.3,0-0.4,0.1c-0.1,0-0.6,0.2-0.1,0c-0.5,0.1-1.1,0.1-1.7,0.2
				c-0.6,0-1.3,0.1-1.9,0.1c-1.3,0-2.6,1.1-2.5,2.5C126.4,161.5,127.4,162.7,128.8,162.6L128.8,162.6z"/>
		</g>
	</g>
	<path class="st1" d="M105.9,178.6c7.1-1.4,13.7-4.3,20.8-5.8"/>
	<path class="st1" d="M142.7,169.1c21.4-5.3,42.4-11.3,63.2-16.4"/>
	<path class="st14" d="M283.2,70.6c-2.6,0.5-5.2,1.1-7.9,1.6c-1.3,0.3-2.6,0.5-3.8,1c-0.7,0.2-1.4,0.5-2.1,0.8c-2,0.9-4,1.7-6.1,2.3
		s-4.3,0.8-6.4,0.5"/>
	<g>
		<g>
			<path class="st15" d="M273.3,93.4c5.2,0,10.2-4.6,10-10s-4.4-10-10-10c-5.2,0-10.2,4.6-10,10C263.5,88.8,267.7,93.4,273.3,93.4
				L273.3,93.4z"/>
		</g>
	</g>
	<g>
		<g>
			<path class="st15" d="M273.3,93.3c5.2,0,10.2-4.6,10-10s-4.4-10-10-10c-5.2,0-10.2,4.6-10,10C263.5,88.7,267.7,93.3,273.3,93.3
				L273.3,93.3z"/>
		</g>
	</g>
	<g>
		<g>
			<path class="st15" d="M270.8,94.3c5.2,0,10.2-4.6,10-10s-4.4-10-10-10c-5.2,0-10.2,4.6-10,10C261.1,89.7,265.2,94.3,270.8,94.3
				L270.8,94.3z"/>
		</g>
	</g>
	<g>
		<g>
			<path class="st15" d="M262.4,96.1c5.2,0,10.2-4.6,10-10s-4.4-10-10-10c-5.2,0-10.2,4.6-10,10C252.6,91.5,256.8,96.1,262.4,96.1
				L262.4,96.1z"/>
		</g>
	</g>
	<g>
		<g>
			<path class="st15" d="M277.2,91.1c5.2,0,10.2-4.6,10-10s-4.4-10-10-10c-5.2,0-10.2,4.6-10,10C267.4,86.5,271.6,91.1,277.2,91.1
				L277.2,91.1z"/>
		</g>
	</g>
	<g>
		<g>
			<path class="st15" d="M267.8,87.5c-0.8,0.9-1.6,1.8-2.1,2.9c-0.2,0.4-0.3,0.7-0.6,1c0.5-0.7,1-1.3,1.6-2
				c-0.1,0.2-0.3,0.3-0.4,0.4c0.7-0.5,1.3-1,2-1.6c-0.2,0.1-0.4,0.3-0.6,0.4c0.8-0.3,1.6-0.7,2.4-1c-0.3,0.1-0.7,0.2-1,0.3
				c0.9-0.1,1.8-0.2,2.7-0.4c-0.4,0-0.7,0-1.1,0c0.9,0.1,1.8,0.2,2.7,0.4c-0.8-0.1-1.6-0.4-2.4-0.7c0.8,0.3,1.6,0.7,2.4,1
				c-0.2-0.1-0.3-0.1-0.5-0.2c-1.1-0.7-2.4-1.1-3.7-1.2c-1.3-0.3-2.7-0.2-4,0.2c-1.3,0.3-2.4,0.9-3.4,1.8c-1.1,0.7-1.9,1.6-2.6,2.8
				c-0.3,0.8-0.7,1.6-1,2.4c-0.5,1.8-0.5,3.5,0,5.3c0.3,0.8,0.7,1.6,1,2.4c0.9,1.5,2.1,2.7,3.6,3.6c1.2,0.5,2.3,1,3.5,1.5
				c0.4,0.2,0.8,0.3,1.3,0.4c1.2,0.3,2.5,0.5,3.7,0.5c0.2,0,0.3,0,0.5,0c0.9-0.1,1.9-0.2,2.8-0.4c0.1,0,0.2,0,0.3-0.1
				c0.2,0,0.3-0.1,0.5-0.2c0.8-0.3,1.7-0.7,2.5-1c0.1,0,0.2-0.1,0.3-0.1c1-0.6,1.9-1.3,2.7-2.1c0.6-0.6,1.1-1.4,1.7-2.1
				c0.1-0.1,0.1-0.1,0.2-0.2c0.1-0.2,0.2-0.3,0.3-0.5c0.2-0.4,0.3-0.7,0.6-1c-0.5,0.7-1,1.3-1.6,2c0-0.1,0.1-0.1,0.1-0.2
				c1-0.9,1.7-2,2.1-3.2c0.6-1.2,0.9-2.5,0.9-3.9c0.1-1.4-0.2-2.7-0.9-3.9c-0.4-1.2-1.1-2.3-2.1-3.2c-0.7-0.5-1.3-1-2-1.6
				c-1.6-0.9-3.2-1.4-5-1.4c-0.9,0.1-1.8,0.2-2.7,0.4C270.5,85.4,269,86.2,267.8,87.5L267.8,87.5z"/>
		</g>
	</g>
	<g>
		<g>
			<path class="st15" d="M266.7,106.2c5.2,0,10.2-4.6,10-10s-4.4-10-10-10c-5.2,0-10.2,4.6-10,10C257,101.6,261.1,106.2,266.7,106.2
				L266.7,106.2z"/>
		</g>
	</g>
	<g>
		<g>
			<path class="st15" d="M264.8,105.3c5.2,0,10.2-4.6,10-10s-4.4-10-10-10c-5.2,0-10.2,4.6-10,10C255,100.7,259.2,105.3,264.8,105.3
				L264.8,105.3z"/>
		</g>
	</g>
	<g>
		<g>
			<path class="st15" d="M255.2,104.9L255.2,104.9c0.7,1.3,1.5,2.2,2.6,2.9c1,0.9,2.1,1.5,3.4,1.8c1.3,0.4,2.7,0.5,4,0.2
				c1.3-0.1,2.6-0.5,3.7-1.2c0.7-0.5,1.3-1,2-1.6c1.2-1.2,2.1-2.7,2.6-4.4c0.1-0.9,0.2-1.8,0.4-2.7c0-1.8-0.5-3.5-1.4-5v-0.1
				c-0.6-1.2-1.5-2.1-2.6-2.8c-1-0.9-2.1-1.5-3.4-1.8c-1.3-0.4-2.7-0.5-4-0.2c-1.3,0.1-2.6,0.5-3.7,1.2c-0.7,0.5-1.3,1-2,1.6
				c-1.2,1.2-2.1,2.7-2.6,4.4c-0.1,0.9-0.2,1.8-0.4,2.7C253.8,101.6,254.3,103.3,255.2,104.9L255.2,104.9z"/>
		</g>
	</g>
	<g>
		<g>
			<path class="st15" d="M273.4,117.7c3.3,0.8,6.6,1,9.9,1.5c-0.9-0.1-1.8-0.2-2.7-0.4c3.1,0.4,6,1.3,8.9,2.5
				c-0.8-0.3-1.6-0.7-2.4-1c3,1.3,6,2.5,8.9,3.8c2.8,1.2,5.5,2.6,7.9,4.4c-0.7-0.5-1.3-1-2-1.6c2.6,2.1,5.1,4.7,7.2,7.3
				c-0.5-0.7-1-1.3-1.6-2c0.4,0.5,0.7,1,1,1.6c-0.3-0.8-0.7-1.6-1-2.4c0.2,0.5,0.3,0.9,0.4,1.4c-0.1-0.9-0.2-1.8-0.4-2.7
				c0,0.1,0,0.3,0,0.4c0.1,2.6,1,5.2,2.9,7.1c1.7,1.7,4.6,3,7.1,2.9c2.6-0.1,5.3-1,7.1-2.9c1.8-1.9,3-4.4,2.9-7.1
				c-0.2-4.3-1.9-7.6-4.6-10.8c-1.3-1.5-2.7-2.9-4.1-4.3c-3.2-3.3-7-6-11.2-7.9c-4.4-2-8.9-3.9-13.3-5.7c-4.8-2-9.7-2.4-14.8-3.1
				c0.9,0.1,1.8,0.2,2.7,0.4c-1.2-0.2-2.4-0.4-3.6-0.6c-2.6-0.6-5.4-0.4-7.7,1c-2.1,1.2-4.1,3.6-4.6,6c-0.6,2.6-0.5,5.4,1,7.7
				C268.8,115.3,270.8,117.1,273.4,117.7L273.4,117.7z"/>
		</g>
	</g>
	<g>
		<g>
			<path class="st15" d="M309.8,136.6c0,3.7,0.9,7.4,1.4,11c-0.1-0.9-0.2-1.8-0.4-2.7c0.5,3.6,0.7,7.2,0.6,10.8
				c-0.1,3.6-0.8,7.1-0.4,10.7c0.3,2.7,0.9,5.1,2.9,7.1c1.7,1.7,4.6,3,7.1,2.9c2.6-0.1,5.3-1,7.1-2.9c1.7-1.8,3.2-4.5,2.9-7.1
				c-0.5-4.5,0.5-9,0.5-13.6c-0.1-5.3-1-10.5-1.8-15.7c0.1,0.9,0.2,1.8,0.4,2.7c-0.1-1.1-0.2-2.2-0.3-3.2c0-2.6-1.1-5.2-2.9-7.1
				c-1.7-1.7-4.6-3-7.1-2.9C314.4,126.9,309.7,131,309.8,136.6L309.8,136.6z"/>
		</g>
	</g>
	<g>
		<g>
			<path class="st15" d="M310.9,182.4c0,1.7,0,3.5-0.1,5.2c6.2-1.7,12.4-3.4,18.6-5c-0.1-0.2-0.3-0.4-0.4-0.7c0.3,0.8,0.7,1.6,1,2.4
				c-0.1-0.4-0.2-0.7-0.3-1.1c0.1,0.9,0.2,1.8,0.4,2.7c-0.1-0.8-0.1-1.6,0-2.4c-0.1,0.9-0.2,1.8-0.4,2.7c0.4-2.8,0.8-5.4,0.5-8.2
				c-0.3-1.9-0.8-3.7-1-5.5c0.1,0.9,0.2,1.8,0.4,2.7c-0.1-0.5-0.1-1.1,0-1.6c-0.1,0.9-0.2,1.8-0.4,2.7c0.1-0.4,0.1-0.8,0.3-1.1
				c-0.3,0.8-0.7,1.6-1,2.4c0.2-0.4,0.3-0.7,0.6-1c-0.5,0.7-1,1.3-1.6,2c1.5-1.9,2.8-3.4,3.4-5.8c0.7-2.3,0.6-4.7,0.1-7.1
				s-1.9-4.5-2.9-6.7c0.3,0.8,0.7,1.6,1,2.4c-0.2-0.5-0.4-1-0.4-1.6c0.1,0.9,0.2,1.8,0.4,2.7c-0.1-0.7,0-1.5,0.1-2.2
				c-0.1,0.9-0.2,1.8-0.4,2.7c0.4-2.5,0.9-4.9,0.9-7.4c0-1.8-0.2-3.6,0-5.4c-0.1,0.9-0.2,1.8-0.4,2.7c0-0.2,0.1-0.3,0.1-0.5
				c0.5-2.7,0.4-5.3-1-7.7c-1.2-2.1-3.6-4.1-6-4.6c-2.6-0.6-5.4-0.5-7.7,1c-2.1,1.3-4.1,3.4-4.6,6c-0.4,2.2-0.6,4.4-0.5,6.6
				c0.1,1.5,0.1,2.9-0.1,4.4c0.1-0.9,0.2-1.8,0.4-2.7c-0.5,3.4-1.1,6.5-0.4,9.9c0.5,2.4,1.9,4.5,2.9,6.7c-0.3-0.8-0.7-1.6-1-2.4
				c0.2,0.5,0.4,1,0.5,1.6c-0.1-0.9-0.2-1.8-0.4-2.7c0,0.3,0,0.5,0,0.8c0.1-0.9,0.2-1.8,0.4-2.7c0,0.3-0.1,0.5-0.2,0.8
				c0.3-0.8,0.7-1.6,1-2.4c-0.2,0.4-0.4,0.7-0.6,1c0.5-0.7,1-1.3,1.6-2c-1.5,2-2.6,3.4-3.4,5.8c-0.5,1.5-0.7,3.2-0.6,4.8
				c0.1,2.6,0.9,4.9,1.3,7.5c-0.1-0.9-0.2-1.8-0.4-2.7c0.1,0.9,0.1,1.8-0.1,2.8c0.1-0.9,0.2-1.8,0.4-2.7c-0.3,1.9-0.8,3.9-0.7,5.9
				c0.2,2.6,0.7,5.1,2.1,7.4c2.2,3.6,7,6,11.3,4.6s7.1-5.1,7.3-9.6c0.1-1.7,0.1-3.5,0.1-5.2c-0.1-2.6-1.1-5.2-2.9-7.1
				c-1.7-1.7-4.6-3-7.1-2.9C315.6,172.6,310.8,176.8,310.9,182.4L310.9,182.4z"/>
		</g>
	</g>
	<g>
		<g>
			<path class="st15" d="M310.5,194.4c0,0.2,0,0.3,0,0.5c6.5-0.9,13.1-1.8,19.6-2.7c-0.1-0.2-0.2-0.5-0.2-0.7
				c0.1,0.9,0.2,1.8,0.4,2.7c0-0.1,0-0.3,0-0.4c-0.1,0.9-0.2,1.8-0.4,2.7c0.3-1.8,1-3.4,1-5.3c0-3-1.2-6.5-3.5-8.5
				c-1.2-1.2-2.7-2.1-4.4-2.6c-1.8-0.5-3.5-0.5-5.3,0c-1.7,0.5-3.2,1.3-4.4,2.6c-1.2,1.2-2.1,2.7-2.6,4.4c-1.1,2.7-0.8,6.1-0.5,8.9
				c0.3,2.3,0.6,4.6,0.4,7c0.1-0.9,0.2-1.8,0.4-2.7c-0.3,2.5-0.9,4.9-1.2,7.4c-0.3,2.5,0.2,5,0.6,7.5c-0.1-0.9-0.2-1.8-0.4-2.7
				c0.1,1,0.1,1.9,0,2.9c0.1-0.9,0.2-1.8,0.4-2.7c-0.5,3.3-1.1,6.5-0.8,9.9c0.4,4.3,0.7,8.9,4.1,12c2.4-5.7,4.7-11.4,7.1-17.1
				c-3.8-0.3-7.6,1.8-9.8,4.7c-2.3,3-3.2,7.1-2.1,10.8c0.8,2.5,2.3,4.7,4.6,6c2.1,1.3,5.3,1.8,7.7,1c5-1.6,8.7-7,7-12.3
				c0-0.1-0.1-0.2-0.1-0.4c0.1,0.9,0.2,1.8,0.4,2.7c-0.1-0.2-0.1-0.5,0-0.7c-0.1,0.9-0.2,1.8-0.4,2.7c0-0.2,0.1-0.5,0.2-0.7
				c-0.3,0.8-0.7,1.6-1,2.4c0.1-0.1,0.1-0.2,0.2-0.3c-0.5,0.7-1,1.3-1.6,2c0.1-0.1,0.2-0.2,0.3-0.3c-0.7,0.5-1.3,1-2,1.6
				c0.2-0.2,0.4-0.3,0.6-0.4c-0.8,0.3-1.6,0.7-2.4,1c0.1,0,0.2-0.1,0.4-0.1c-0.9,0.1-1.8,0.2-2.7,0.4c0.2-0.1,0.5-0.1,0.7,0
				c1.6,0.1,3.7-0.6,5-1.4c1.9-1.1,3.3-2.8,4.1-4.8c1.5-3.5,0.9-8.3-2.1-10.9c-0.1-0.1-0.2-0.1-0.2-0.2c0.5,0.7,1,1.3,1.6,2
				c-0.1-0.2-0.2-0.3-0.3-0.5c0.3,0.8,0.7,1.6,1,2.4c-0.1-0.4-0.2-0.8-0.3-1.3c0.1,0.9,0.2,1.8,0.4,2.7c-0.3-2.6-0.6-5.2-0.3-7.8
				c-0.1,0.9-0.2,1.8-0.4,2.7c0.3-2,0.7-4,0.8-6c0.1-2-0.3-4-0.6-6c0.1,0.9,0.2,1.8,0.4,2.7c-0.2-1.2-0.1-2.4,0-3.7
				c-0.1,0.9-0.2,1.8-0.4,2.7c0.5-3.5,1.5-7,1.2-10.6c-0.2-2.9-0.9-5.7-0.6-8.6c-0.1,0.9-0.2,1.8-0.4,2.7c0.1-0.4,0.1-0.8,0.3-1.2
				c-5.6,1.5-11.1,2.9-16.7,4.4c0.1,0.1,0.2,0.1,0.2,0.2c-0.5-0.7-1-1.3-1.6-2c0.1,0.1,0.2,0.3,0.3,0.5c-0.3-0.8-0.7-1.6-1-2.4
				c0,0.1,0,0.2,0.1,0.3c-0.1-0.9-0.2-1.8-0.4-2.7c0,0.3,0,0.6,0,0.9c0.1-0.9,0.2-1.8,0.4-2.7c-0.6,2.8-1.5,5.7-0.4,8.6
				c0.9,2.4,2.2,4.7,4.6,6c2,1.1,4.1,1.5,6.4,1.2c4.8-0.6,8.8-4.8,8.7-9.8c0-0.2,0-0.3,0-0.5c0-2.6-1.1-5.2-2.9-7.1
				c-1.7-1.7-4.6-3-7.1-2.9C315.2,184.6,310.4,188.8,310.5,194.4L310.5,194.4z"/>
		</g>
	</g>
	<g>
		<g>
			<path class="st15" d="M218.7,260.2c5.2,0,10.2-4.6,10-10s-4.4-10-10-10c-5.2,0-10.2,4.6-10,10C209,255.6,213.1,260.2,218.7,260.2
				L218.7,260.2z"/>
		</g>
	</g>
	<g>
		<g>
			<path class="st15" d="M224.2,259.9c0.1,0,0.1,0,0.2,0c-0.2,0-0.4-0.1-0.7-0.1C223.9,259.8,224,259.8,224.2,259.9
				c-0.3-0.1-0.5-0.1-0.7-0.2c0.1,0.1,0.2,0.1,0.3,0.2c-0.2-0.1-0.3-0.3-0.5-0.4c0.1,0.1,0.1,0.1,0.2,0.2c0.2,0.2,0.5,0.4,0.8,0.5
				c0.3,0.2,0.6,0.2,1,0.2c0.3,0,0.7-0.1,1-0.2s0.6-0.3,0.8-0.5c0.1-0.2,0.3-0.3,0.4-0.5c0.2-0.4,0.3-0.8,0.3-1.3
				c0-0.2-0.1-0.4-0.1-0.7c-0.1-0.4-0.3-0.8-0.6-1.1L227,256c-0.2-0.2-0.4-0.3-0.6-0.5c-0.1-0.1-0.2-0.1-0.3-0.2
				c-0.2-0.1-0.4-0.2-0.7-0.3c0,0,0,0-0.1,0s-0.1,0-0.2,0c-0.3-0.1-0.5-0.1-0.8-0.1c-0.1,0-0.1,0-0.2,0c-0.3,0-0.7,0.1-1,0.2
				s-0.6,0.3-0.8,0.5c-0.2,0.2-0.4,0.5-0.5,0.8c-0.2,0.3-0.2,0.6-0.2,1c0,0.2,0.1,0.4,0.1,0.7c0.1,0.4,0.3,0.8,0.6,1.1
				c0.2,0.1,0.3,0.3,0.5,0.4C223.4,259.7,223.8,259.9,224.2,259.9L224.2,259.9z"/>
		</g>
	</g>
	<g>
		<g>
			<path class="st15" d="M224.3,260.2c1.8,0.9,3.6,1.7,5.5,2.6c0.8-1.4,1.7-2.9,2.5-4.3c-0.1,0-0.6-0.3-0.3-0.1
				c-0.1-0.1-0.5-0.5-0.2-0.2c-0.1-0.2-0.3-0.4-0.4-0.6c0.2,0.4-0.1-0.3-0.1-0.4c-0.2-0.8-0.1-2.1,0-3.2c-1.4,0.6-2.8,1.2-4.3,1.8
				c0.8,0.7,1.2,1.3,1.7,2.4c0.9-1.2,1.9-2.4,2.8-3.7c0.3,0.1,0.4,0.2,0.6,0.4c0.1,0.3,0.1,0.3,0.1,0.1c0-0.1-0.1-0.2-0.1-0.3
				c0.1,0.4,0,0,0-0.2c0,0.4,0,0.1,0.1-0.2c0.3-1.1,0.7-2.3,0.6-3.5c-0.1-0.6-0.2-1.2-0.4-1.8c-0.1-0.2-0.2-0.4-0.2-0.6
				c0,0-0.2-0.8-0.1-0.4c-0.1-1,0.2-1.9,0.6-3c-1.5,0.2-3,0.4-4.6,0.6c0.1,0.2,0.3,0.4,0.4,0.6c-0.2-0.4,0,0.3,0,0
				c0-0.2,0,0.4,0,0.4c0-0.4-0.1,0.2-0.1,0.3c-0.4,1.2,0.5,2.8,1.7,3.1c1.4,0.3,2.6-0.4,3.1-1.7c0.6-1.7,0.3-3.7-0.7-5.2
				c-0.6-0.8-1.4-1.3-2.5-1.2c-1,0.1-1.8,0.8-2.1,1.8c-0.5,1.5-0.9,3.1-0.7,4.6c0.1,0.8,0.3,1.5,0.6,2.2c0.1,0.2,0.2,0.5,0.3,0.8
				c0-0.2,0-0.2,0,0.1c0.1-0.2,0-0.2,0,0.1c-0.3,1.4-0.8,2.7-0.5,4.2c0.3,1.7,1.3,2.9,2.9,3.5c0.9,0.3,2.1-0.2,2.6-0.9
				c0.6-0.9,0.6-1.8,0.2-2.8c-0.6-1.3-1.4-2.4-2.4-3.4c-1.7-1.5-4.1-0.4-4.3,1.8c-0.3,3.2,0.1,7.2,3.5,8.8c1.2,0.6,2.7,0.3,3.4-0.9
				c0.6-1.1,0.3-2.8-0.9-3.4c-1.8-0.9-3.6-1.7-5.5-2.6c-1.2-0.6-2.7-0.3-3.4,0.9C222.8,257.9,223.1,259.6,224.3,260.2L224.3,260.2z"
				/>
		</g>
	</g>
	<g>
		<g>
			<path class="st15" d="M231,233.1c-0.2-0.2-0.3-0.5-0.4-0.7c0.4,1,0.8,2,1.3,3c-0.1-0.3-0.2-0.6-0.3-1c0.1,1.1,0.3,2.2,0.4,3.3
				c0-0.3,0-0.6,0-1c-0.1,1.1-0.3,2.2-0.4,3.3c0-0.3,0.1-0.5,0.2-0.8c0.5-1.7,0.6-3.3,0.2-5c-0.1-1.7-0.6-3.2-1.5-4.6
				c-0.8-1.5-1.9-2.6-3.2-3.5c-1.2-1.1-2.6-1.9-4.3-2.2c-1.1-0.1-2.2-0.3-3.3-0.4c-2.3,0-4.4,0.6-6.3,1.7c-0.8,0.7-1.7,1.3-2.5,2
				c-1.5,1.6-2.6,3.4-3.2,5.5c-0.1,0.1-0.1,0.3-0.1,0.4c-0.3,1.2-0.4,2.5-0.5,3.7c0,0.2,0,0.3,0,0.5c0,1.2,0.4,3.1,0.5,3.8
				c0,0.3,0.1,0.6,0.2,0.9c0.2,0.5,0.5,1.1,0.7,1.6s0.4,1.1,0.7,1.6c0,0.1,0.1,0.1,0.1,0.2c0.1,0.1,0.2,0.3,0.3,0.4
				c0.8,1.5,1.9,2.6,3.2,3.5c1.2,1.1,2.6,1.9,4.3,2.2c1.7,0.5,3.3,0.6,5,0.2c1.7-0.1,3.2-0.6,4.6-1.5c0.8-0.7,1.7-1.3,2.5-2
				c1.5-1.6,2.6-3.4,3.2-5.5c0.1-1.1,0.3-2.2,0.4-3.3C232.7,237.1,232.2,235,231,233.1L231,233.1z"/>
		</g>
	</g>
	<g>
		<g>
			<path class="st15" d="M220,247.5c3.2,0,6.6-1.4,8.8-3.7c2.2-2.2,3.8-5.7,3.7-8.8c-0.1-3.2-1.2-6.6-3.7-8.8
				c-2.4-2.2-5.5-3.7-8.8-3.7c-3.2,0-6.6,1.4-8.8,3.7c-2.2,2.2-3.8,5.7-3.7,8.8c0.1,3.2,1.2,6.6,3.7,8.8
				C213.7,246.1,216.7,247.5,220,247.5L220,247.5z"/>
		</g>
	</g>
	<g>
		<g>
			<path class="st15" d="M231.1,240.8c0-0.1,0.1-0.1,0.1-0.2c0.9-1.4,1.4-3,1.5-4.6c0.4-1.7,0.3-3.3-0.2-5c-0.4-1.6-1.1-3-2.2-4.3
				c-0.9-1.4-2.1-2.4-3.5-3.2c-1-0.4-2-0.8-3-1.3c-2.2-0.6-4.4-0.6-6.6,0c-1,0.4-2,0.8-3,1.3c-1.9,1.1-3.4,2.6-4.5,4.5
				c0,0.1-0.1,0.1-0.1,0.2c-0.9,1.4-1.4,3-1.5,4.6c-0.4,1.7-0.3,3.3,0.2,5c0.4,1.6,1.1,3,2.2,4.3c0.9,1.4,2.1,2.4,3.5,3.2
				c1,0.4,2,0.8,3,1.3c2.2,0.6,4.4,0.6,6.6,0c1-0.4,2-0.8,3-1.3C228.5,244.1,230,242.6,231.1,240.8L231.1,240.8z"/>
		</g>
	</g>
	<g>
		<g>
			<path class="st15" d="M232.8,237.1c0.2-1.3,0.5-2.8,0.5-4.1c0-0.3,0-0.6,0-0.9c-0.1-1.4-0.3-2.8-0.6-4.1
				c-0.1-0.3-0.1-0.6-0.2-0.9c-0.4-1.6-1.1-3-2.2-4.3c-0.9-1.4-2.1-2.4-3.5-3.2c-1.4-0.9-3-1.4-4.6-1.5c-1.7-0.4-3.3-0.3-5,0.2
				c-1,0.4-2,0.8-3,1.3c-1.9,1.1-3.4,2.6-4.5,4.5c-0.4,1-0.8,2-1.3,3c-0.6,2.2-0.6,4.4,0,6.6c0.1,0.4,0.2,0.9,0.3,1.3
				c-0.1-1.1-0.3-2.2-0.4-3.3c0.1,0.7,0.1,1.3,0,2c0.1-1.1,0.3-2.2,0.4-3.3c0,0,0,0,0,0.1c-0.5,1.7-0.6,3.3-0.2,5
				c0.1,1.7,0.6,3.2,1.5,4.6c0.8,1.5,1.9,2.6,3.2,3.5c1.2,1.1,2.6,1.9,4.3,2.2c1.1,0.1,2.2,0.3,3.3,0.4c2.3,0,4.4-0.6,6.3-1.7
				c0.8-0.7,1.7-1.3,2.5-2C231.1,241.1,232.2,239.2,232.8,237.1L232.8,237.1z"/>
		</g>
	</g>
	<g>
		<g>
			<path class="st15" d="M232.5,226.7c-0.2-0.6-0.3-1.2-0.4-1.9c0.1,1.1,0.3,2.2,0.4,3.3c-0.1-0.5-0.1-1,0-1.6
				c-0.1,1.1-0.3,2.2-0.4,3.3c0.1-0.4,0.2-0.8,0.3-1.2c-0.4,1-0.8,2-1.3,3c0.8-1.8,1.9-3.6,2.5-5.5c0.4-1.4,0.5-3.1,0.7-4.5
				c0-0.6,0.1-1.1,0-1.7c-0.1-2.4-0.3-4.7-0.5-7.1c0.1-1.7-0.3-3.3-1.1-4.8c-0.5-1.5-1.4-2.9-2.6-4c-1.1-1.2-2.5-2.1-4-2.6
				c-1.5-0.8-3.1-1.1-4.8-1.1c-3.2,0.1-6.6,1.2-8.8,3.7c-2.2,2.4-3.9,5.5-3.7,8.8c0.1,1.5,0.2,3.1,0.3,4.6c0.1,1.4,0.3,2.9,0.1,4.3
				c0.1-1.1,0.3-2.2,0.4-3.3c-0.1,0.5-0.2,1-0.4,1.5c0.4-1,0.8-2,1.3-3c-0.9,2.1-2.2,4-2.6,6.3c-0.3,1.7-0.6,3.2-0.4,4.9
				c0.2,1.8,0.4,3.5,0.9,5.2c0.8,3,3,5.9,5.7,7.5c1.4,0.9,3,1.4,4.6,1.5c1.7,0.4,3.3,0.3,5-0.2c3-1,5.9-2.9,7.5-5.7
				C232.8,233.3,233.4,230,232.5,226.7L232.5,226.7z"/>
		</g>
	</g>
	<g>
		<g>
			<path class="st15" d="M231.7,198.2c-0.1-0.2-0.3-0.4-0.4-0.6c0.4,1,0.8,2,1.3,3c-0.1-0.4-0.2-0.7-0.3-1.1
				c0.1,1.1,0.3,2.2,0.4,3.3c-0.1-0.6-0.1-1.3,0-1.9c-0.1,1.1-0.3,2.2-0.4,3.3c0.2-0.9,0.4-1.8,0.7-2.8c0.4-1.8,0.6-3.7,0.8-5.5
				c0.2-1.8,0.2-3.7,0.2-5.5c0-1.9,0-3.8-0.1-5.7c-0.1-1.9-0.3-3.9-0.1-5.8c-0.1,1.1-0.3,2.2-0.4,3.3c0.5-2.9,1.2-5.9,1.2-8.9
				c0-3.1-0.6-6.2-1.1-9.3c-0.5-2.9-3.3-6.1-5.7-7.5c-2.7-1.6-6.6-2.2-9.6-1.3c-3,1-5.9,2.9-7.5,5.7c-0.4,1-0.8,2-1.3,3
				c-0.6,2.2-0.6,4.4,0,6.6c0.1,0.8,0.2,1.6,0.4,2.4c-0.1-1.1-0.3-2.2-0.4-3.3c0.3,2.1,0.4,4.1,0.1,6.2c0.1-1.1,0.3-2.2,0.4-3.3
				c-0.4,2.6-1.1,5.1-1.1,7.7c0,1.9,0.2,3.7,0.2,5.6c0.1,3.6,0.2,7.2-0.2,10.8c0.1-1.1,0.3-2.2,0.4-3.3c-0.4,2.6-1.2,5.1-1.4,7.8
				c-0.1,1.6,0.2,3.3,0.5,4.8c0.3,1.6,1,3.3,1.9,4.7c1.8,2.7,4.3,4.9,7.5,5.7c3,0.8,7,0.5,9.6-1.3c2.7-1.7,5-4.3,5.7-7.5
				C233.7,204.6,233.5,201,231.7,198.2L231.7,198.2z"/>
		</g>
	</g>
	<g>
		<g>
			<path class="st15" d="M233.2,161.1c-0.1-1.3-0.1-2.7,0.1-4c-0.1,1.1-0.3,2.2-0.4,3.3c0.2-1.1,0.4-2.1,0.7-3.2
				c0.4-2.1,0.7-4.3,0.8-6.4c0.1-2.3-0.1-4.6-0.4-6.9c0.1-1.7-0.3-3.3-1.1-4.8c-0.5-1.5-1.4-2.9-2.6-4c-1.1-1.2-2.5-2.1-4-2.6
				c-1.5-0.8-3.1-1.1-4.8-1.1c-3.2,0.1-6.6,1.2-8.8,3.7c-2.1,2.3-4,5.6-3.7,8.8c0.3,3,0.6,5.9,0.2,8.9c0.1-1.1,0.3-2.2,0.4-3.3
				c-0.2,1.4-0.6,2.8-0.8,4.2c-0.4,2.5-0.8,5-0.6,7.5c-0.1,1.7,0.3,3.3,1.1,4.8c0.5,1.5,1.4,2.9,2.6,4c1.1,1.2,2.5,2.1,4,2.6
				c1.5,0.8,3.1,1.1,4.8,1.1c3.2-0.1,6.6-1.2,8.8-3.7C231.7,167.7,233.5,164.4,233.2,161.1L233.2,161.1z"/>
		</g>
	</g>
	<g>
		<g>
			<path class="st15" d="M234.5,135.6c0-0.1,0-0.3,0-0.4c-0.1,1.1-0.3,2.2-0.4,3.3c0.1-0.8,0.3-1.5,0.6-2.2c-0.4,1-0.8,2-1.3,3
				c0.4-0.8,0.8-1.6,1.3-2.3c-0.7,0.8-1.3,1.7-2,2.5c0.7-0.9,1.5-1.7,2.4-2.5c-0.8,0.7-1.7,1.3-2.5,2c1.6-1.2,3.4-2.1,5.2-2.9
				c-1,0.4-2,0.8-3,1.3c5.5-2.3,11.2-4.3,16.7-6.6c2.4-1,4.7-2,7-3.1c1-0.5,2.2-0.9,3.1-1.6c2-1.3,3.7-2.9,5-4.9
				c1.3-2.2,1.8-4.5,1.9-7c0.2-2.9-1.5-6.9-3.7-8.8c-2.5-2.3-5.4-3.5-8.8-3.7c-4.4-0.3-7.9,1.5-11.8,3.2c1-0.4,2-0.8,3-1.3
				c-2.2,0.9-4.5,1.6-6.9,2.1c-2.3,0.5-4.8,0.6-7,1.4c-4.5,1.7-8.6,4.4-11,8.7c-2.4,4.4-2.7,9.3-0.3,13.8c1.9,3.6,5.4,5.2,9,6.6
				c5.3,1.9,11.1,2.4,16.7,2.5c4.9,0.1,9.7,0.1,14.6-0.1c3.7-0.2,7.3-0.6,10.9-1.2c2.8-0.4,5.5-1.3,8.3-1.7
				c-1.1,0.1-2.2,0.3-3.3,0.4c1.2-0.1,2.4-0.1,3.7,0c-1.1-0.1-2.2-0.3-3.3-0.4c2.9,0.4,5.7,1.1,8.5,1.6c2.7,0.5,5.5,0.9,8.1,1.9
				c-1-0.4-2-0.8-3-1.3c0.7,0.3,1.4,0.7,2,1.2c-0.8-0.7-1.7-1.3-2.5-2c1.4,1.1,2.5,2.6,3.8,3.9c2.6,2.6,5.8,4.7,9.3,5.6
				c1.1-8.2,2.2-16.4,3.3-24.6c-18.9,0.2-37.8,0.5-56.7,0.7c-5.4,0.1-10.9,0.1-16.3,0.2c-3.2,0-6.5,1.4-8.8,3.7
				c-2.2,2.2-3.8,5.7-3.7,8.8c0.1,3.2,1.2,6.6,3.7,8.8c2.4,2.2,5.5,3.7,8.8,3.7c18.9-0.2,37.8-0.5,56.7-0.7
				c5.5-0.1,10.9-0.1,16.4-0.2c6.2-0.1,11.5-4.7,12.3-10.8c0.4-2.7,0-5.6-1.5-8c-1.7-2.7-4.3-5-7.5-5.7c-0.3-0.1-0.6-0.2-0.9-0.3
				c1,0.4,2,0.8,3,1.3c-0.6-0.3-1.1-0.6-1.7-1c0.8,0.7,1.7,1.3,2.5,2c-1.1-0.9-1.9-1.9-2.8-2.9c-1.6-1.7-3.3-3.2-5.3-4.5
				c-1.4-1-3.2-1.6-4.8-2.2c-0.8-0.3-1.7-0.5-2.5-0.7c-1.9-0.4-3.8-0.8-5.7-1.2c-1.9-0.4-3.8-0.8-5.8-1.2c-2.7-0.5-5.5-1.1-8.3-0.9
				c-4.7,0.3-9.2,1.8-13.9,2.5c1.1-0.1,2.2-0.3,3.3-0.4c-4.6,0.6-9.2,0.7-13.8,0.7c-4.4,0-8.9,0-13.3-0.5c1.1,0.1,2.2,0.3,3.3,0.4
				c-2.7-0.4-5.3-1-7.9-2c1,0.4,2,0.8,3,1.3c-0.2-0.1-0.3-0.2-0.5-0.3c1.5,1.5,3,3,4.5,4.5c-0.1-0.1-0.1-0.1-0.2-0.2
				c0.6,2.1,1.1,4.2,1.7,6.3c0-0.1,0-0.2,0-0.4c-0.1,1.1-0.3,2.2-0.4,3.3c0-0.2,0.1-0.5,0.2-0.7c-0.4,1-0.8,2-1.3,3
				c0.2-0.3,0.4-0.6,0.6-0.9c-0.7,0.8-1.3,1.7-2,2.5c0.3-0.4,0.7-0.7,1.1-1.1c-0.8,0.7-1.7,1.3-2.5,2c0.6-0.5,1.3-0.8,2-1.1
				c-1,0.4-2,0.8-3,1.3c2.5-1,5.3-1,7.9-1.6c3.6-0.8,6.8-2.3,10.2-3.7c-1,0.4-2,0.8-3,1.3c1-0.4,1.9-0.7,3-0.9
				c-1.1,0.1-2.2,0.3-3.3,0.4c0.4,0,0.9-0.1,1.3,0c-4.2-4.2-8.3-8.3-12.5-12.5c0,0.1,0,0.2,0,0.3c0.1-1.1,0.3-2.2,0.4-3.3
				c0,0.1-0.1,0.2-0.1,0.3c0.4-1,0.8-2,1.3-3c-0.1,0.1-0.1,0.2-0.2,0.3c0.7-0.8,1.3-1.7,2-2.5c-0.1,0.1-0.2,0.2-0.2,0.2
				c0.8-0.7,1.7-1.3,2.5-2c-1.5,1.1-3.4,1.7-5,2.5c-1.8,0.8-3.7,1.6-5.5,2.4c1-0.4,2-0.8,3-1.3c-6,2.5-12.4,4.4-18.2,7.3
				c-1.2,0.6-2.3,1.2-3.3,2c-1.7,1.2-3.4,2.5-4.8,4.1c-1.3,1.6-2.7,3.2-3.6,5.1c-0.6,1.4-1.3,2.8-1.7,4.2c-0.4,1.6-0.5,3.2-0.7,4.8
				c-0.3,3,1.6,6.8,3.7,8.8c2.2,2.2,5.7,3.8,8.8,3.7c3.2-0.1,6.6-1.2,8.8-3.7c0.7-0.8,1.3-1.7,2-2.5
				C233.9,139.9,234.5,137.8,234.5,135.6L234.5,135.6z"/>
		</g>
	</g>
	<line class="st7" x1="252.6" y1="29.3" x2="252.6" y2="98.6"/>
	<path class="st16" d="M254.4,76.2c3,0.7,6.2,0.7,9.2,0"/>
	<path class="st16" d="M274.2,72.2c3.2-1,6.7-1.5,10.1-1.4"/>
	<line class="st7" x1="286.2" y1="29.3" x2="285.2" y2="98.6"/>
	<path class="st7" d="M285.2,98.6c0,0,47.7,7,47.7,44.5v89.6"/>
	<path class="st7" d="M252.6,99.6c0,0-45.8,6.9-45.8,43.1s0,113.6,0,113.6"/>
	<g>
		<g>
			<path class="st2" d="M236.2,175.3c0.2,0.4,0.3,0.8,0.4,1.3c-0.2-1.8-0.5-3.5-0.7-5.3c0,0.3,0,0.7,0,1c0.2-1.8,0.5-3.5,0.7-5.3
				c-0.1,0.4-0.2,0.8-0.4,1.3c0.7-1.6,1.3-3.2,2-4.8c-1.9,3.8-3.5,7.4-3.3,11.7c0.1,2.6,0.7,5.1,1.1,7.6c-0.2-1.8-0.5-3.5-0.7-5.3
				c0.1,0.8,0,1.5,0,2.3c0.2-1.8,0.5-3.5,0.7-5.3c-0.5,3.3-1.3,6.6-1.3,9.9c0,0.4,0,0.8,0.1,1.2c0.2,1.9,0.3,4.1,0.9,6
				c0.7,2.2,1.8,4.4,2.8,6.5c-0.7-1.6-1.3-3.2-2-4.8c0.1,0.2,0.1,0.4,0.1,0.6c-0.2-1.8-0.5-3.5-0.7-5.3c0,0.2,0,0.4,0,0.6
				c0.2-1.8,0.5-3.5,0.7-5.3c-0.3,2.1-0.8,4.2-0.9,6.4c0,1.1,0.1,1.6,0.3,3.1c0.1,0.7,0.2,2.3,0.5,3.2c0.6,2.6,1.8,4.9,3.6,6.8
				c1.4,2.2,3.3,3.9,5.6,5.2c2.3,1.5,4.8,2.3,7.4,2.4c2.7,0.6,5.3,0.5,8-0.4c4.8-1.6,9.5-4.6,12-9.2c2.4-4.6,3.8-10.4,2-15.4
				c-0.1-0.2-0.1-0.4-0.1-0.6c0.2,1.8,0.5,3.5,0.7,5.3c0-0.2,0-0.4,0-0.6c-0.2,1.8-0.5,3.5-0.7,5.3c0.8-4.8,1.3-7.4,0.2-12.1
				c-0.5-2.3-1.7-4.4-2.7-6.4c0.7,1.6,1.3,3.2,2,4.8c-0.2-0.4-0.3-0.8-0.4-1.3c0.2,1.8,0.5,3.5,0.7,5.3c-0.1-0.9-0.1-1.8,0-2.7
				c-0.2,1.8-0.5,3.5-0.7,5.3c0.4-3,1-5.9,1.3-8.9s-0.7-6-1.1-9c0.2,1.8,0.5,3.5,0.7,5.3c0-0.1,0-0.3,0-0.4
				c-0.2,1.8-0.5,3.5-0.7,5.3c0-0.2,0.1-0.5,0.2-0.7c-0.7,1.6-1.3,3.2-2,4.8c0.9-1.9,1.7-3.8,2.5-5.7c0.5-1.3,0.5-2.5,0.7-3.9
				c0.4-3.1,0.4-3.2,0-6.3c-0.2-1.3-0.2-2.7-0.7-3.9c-0.6-2.6-1.8-4.9-3.6-6.8c-1.4-2.2-3.3-3.9-5.6-5.2c-2.3-1.5-4.8-2.3-7.4-2.4
				c-2.7-0.6-5.3-0.5-8,0.4c-4.8,1.6-9.5,4.6-12,9.2c-0.7,1.6-1.3,3.2-2,4.8C235.3,168.2,235.3,171.8,236.2,175.3L236.2,175.3z"/>
		</g>
	</g>
	<g>
		<g>
			<path class="st2" d="M241.2,214.1c0.2,0.2,0.4,0.3,0.5,0.5c-1-1.3-2.1-2.7-3.1-4c0.2,0.3,0.4,0.6,0.5,0.9c-0.7-1.6-1.3-3.2-2-4.8
				c0.1,0.2,0.2,0.5,0.2,0.7c12.2-5.1,24.4-10.3,36.6-15.4c-0.5-1-1.1-2-1.6-3c-1.3-2.3-3-4.2-5.2-5.6c-1.9-1.8-4.2-3-6.8-3.6
				c-1.8-0.2-3.5-0.5-5.3-0.7c-2.8-0.1-5.3,0.5-7.7,1.7c-1.7,0.5-3.2,1.3-4.4,2.6c-2.2,1.4-3.9,3.3-5.2,5.6c-2.6,4.8-3.3,10-2,15.4
				c0.4,1.8,0.8,3.7,1.1,5.6c-0.2-1.8-0.5-3.5-0.7-5.3c0.7,4.9,0.7,9.7,0,14.6c0.2-1.8,0.5-3.5,0.7-5.3c-0.4,3.1-1.2,6.1-1.7,9.2
				s-1.1,6.3-1.1,9.5c0,2.3,0.3,4.7,0.8,7c0.1,0.4,0.2,0.7,0.3,1c0.7,1.6,1.3,3.2,2,4.8c0.5,0.9,1,1.6,1.7,2.3c0.8,1,1.2,1.7,2,2.5
				c1.3,1,2.7,2.1,4,3.1c0.9,0.5,1.8,0.9,2.8,1.2c1.6,0.7,2.8,1.2,4.4,1.5c1.6,0.4,3.2,0.7,4.8,1.1c0.8,0.2,1.5,0.4,2.3,0.5
				c4.9,0.9,7,1.1,11.9,0c1.8-0.4,3.7-1.4,5.3-2.2c0.3-0.1,0.5-0.2,0.8-0.4c1.9-1.2,3.6-2.7,5.4-4.1c-1.3,1-2.7,2.1-4,3.1
				c0.5-0.4,1-0.7,1.6-1c-1.6,0.7-3.2,1.3-4.8,2c1.1-0.4,2.2-0.6,3.4-0.8c-1.8,0.2-3.5,0.5-5.3,0.7c2.7-0.4,5.5-0.6,8.2-1.2
				c0.6-0.1,1.1-0.3,1.7-0.5c1.9-0.7,4-1.5,5.8-2.5s3.5-2.5,5.1-3.9c0.4-0.3,0.8-0.7,1.1-1c1.4-1.6,2.8-3.3,3.9-5.1
				c0.8-1.1,1.2-2.5,1.7-3.7s1.2-2.5,1.5-3.8c0.6-2.2,0.8-4.5,1-6.8c0.1-1.2,0.1-2.5,0.1-3.7c-0.1-2.6-0.3-5.2,0-7.8
				c-0.2,1.8-0.5,3.5-0.7,5.3c0.8-5.5,2.3-10.9,2.2-16.5c-0.1-5.7-1.6-11.4-2.4-17.1c0.2,1.8,0.5,3.5,0.7,5.3
				c-0.5-3.5-0.7-7-0.7-10.6c0-5.1,1.1-10.3-0.3-15.4c-2.1-7.7-8.5-13.3-16.1-15.2c-1.7-0.4-3.4-0.8-5.1-1
				c-5.2-0.8-10.2-1.4-15.5-1.2c-1.8,0.2-3.5,0.5-5.3,0.7c-2.6,0.6-4.9,1.8-6.8,3.6c-1.5,0.9-2.7,2.1-3.6,3.6
				c-1.8,1.9-3,4.2-3.6,6.8c-0.2,1.8-0.5,3.5-0.7,5.3c0.2,1.8,0.5,3.5,0.7,5.3c0.6,2.6,1.8,4.9,3.6,6.8c1.4,2.2,3.3,3.9,5.6,5.2
				c2.3,1.2,4.7,2.2,7.1,3c0.9,0.3,1.9,0.6,2.8,0.7c3.4,0.6,6.9,1.2,10.3,0.8c3.6-0.4,6.8-0.8,10.2-2.1c1.8-0.7,3.7-1.4,5.6-1.7
				c-1.8,0.2-3.5,0.5-5.3,0.7c0.6-0.1,1.1-0.1,1.7-0.1c2.8,0.1,5.3-0.5,7.7-1.7c2.5-0.8,4.6-2.2,6.4-4.1c2-1.8,3.3-4,4.1-6.4
				c1.3-2.4,1.8-5,1.7-7.7c-0.2-5.2-1.9-10.5-5.9-14.1s-8.7-5.8-14.1-5.9c-3.8-0.1-7.7,0.7-11.2,2c-2.1,0.8-4.1,1.6-6.3,1.9
				c1.8-0.2,3.5-0.5,5.3-0.7c-1.5,0.2-3.1,0.2-4.6,0c1.8,0.2,3.5,0.5,5.3,0.7c-1.4-0.2-2.7-0.6-4-1.1c1.6,0.7,3.2,1.3,4.8,2
				c-0.5-0.2-1-0.5-1.5-0.7c-3.4,12.4-6.7,24.8-10.1,37.3c3.2-0.2,6.3,0,9.4,0.4c-1.8-0.2-3.5-0.5-5.3-0.7c2.4,0.3,4.9,0.7,7.2,1.5
				c-1.6-0.7-3.2-1.3-4.8-2c0.1,0.1,0.2,0.1,0.3,0.2c-1.3-1-2.7-2.1-4-3.1c0.1,0.1,0.2,0.1,0.3,0.2c-1-1.3-2.1-2.7-3.1-4
				c0.1,0.1,0.1,0.2,0.2,0.3c-0.7-1.6-1.3-3.2-2-4.8c0,0.1,0.1,0.2,0.1,0.3c-0.2-1.8-0.5-3.5-0.7-5.3c0.1,2.3-0.4,4.7-0.5,7
				c-0.1,2.5,0,5,0.1,7.5c0.4,6.5,1.7,13,2.6,19.4c-0.2-1.8-0.5-3.5-0.7-5.3c0.3,2.5,0.4,5,0.1,7.5c0.2-1.8,0.5-3.5,0.7-5.3
				c-0.7,4.9-1.9,9.6-2.1,14.6c-0.2,3.1,0.4,6.3,0.1,9.4c0.2-1.8,0.5-3.5,0.7-5.3c-0.1,1-0.4,1.9-0.7,2.9c0.7-1.6,1.3-3.2,2-4.8
				c-0.3,0.7-0.7,1.3-1.2,1.9c1-1.3,2.1-2.7,3.1-4c-0.5,0.6-1,1.1-1.6,1.6c1.3-1,2.7-2.1,4-3.1c-0.6,0.4-1.3,0.8-2,1.1
				c1.6-0.7,3.2-1.3,4.8-2c-1.1,0.4-2.3,0.6-3.4,0.8c1.8-0.2,3.5-0.5,5.3-0.7c-3,0.4-6.2,0.5-9.2,1.4c-1.1,0.3-2.1,0.9-3.1,1.3
				c-0.9,0.4-2.1,0.8-3.1,1.3c-2,1.1-3.8,2.8-5.6,4.2c1.3-1,2.7-2.1,4-3.1c-0.5,0.4-1,0.7-1.6,1c1.6-0.7,3.2-1.3,4.8-2
				c-0.2,0.1-0.5,0.1-0.8,0.2c1.8-0.2,3.5-0.5,5.3-0.7c-0.3,0-0.6,0-0.9,0c1.8,0.2,3.5,0.5,5.3,0.7c-1.6-0.2-3.1-0.7-4.6-1
				c-1.6-0.4-3.2-0.6-4.7-1.1c1.6,0.7,3.2,1.3,4.8,2c-0.1-0.1-0.3-0.1-0.4-0.2c1.3,1,2.7,2.1,4,3.1c-0.2-0.1-0.3-0.3-0.5-0.5
				c1,1.3,2.1,2.7,3.1,4c-0.1-0.1-0.1-0.2-0.2-0.3c0.7,1.6,1.3,3.2,2,4.8c-0.1-0.3-0.2-0.7-0.3-1c0.2,1.8,0.5,3.5,0.7,5.3
				c-0.2-1.6-0.1-3.3,0.2-4.9c-0.2,1.8-0.5,3.5-0.7,5.3c0.4-2.5,1-5,1.4-7.5c0.8-4.2,1.4-8.5,1.6-12.8c0.1-2.6,0-5.2-0.2-7.8
				c-0.4-4.3-1-8.6-2-12.8c-12.2,5.1-24.4,10.3-36.6,15.4c0.5,1,1.1,2,1.6,3c1.3,2.3,3,4.2,5.2,5.6c1.9,1.8,4.2,3,6.8,3.6
				c1.8,0.2,3.5,0.5,5.3,0.7c2.8,0.1,5.3-0.5,7.7-1.7c1.7-0.5,3.2-1.3,4.4-2.6c2.2-1.4,3.9-3.3,5.2-5.6c0.7-1.6,1.3-3.2,2-4.8
				c1-3.5,1-7.1,0-10.6c-0.1-0.2-0.1-0.5-0.2-0.7c-0.7-1.6-1.3-3.2-2-4.8c-0.1-0.2-0.1-0.3-0.2-0.5c-0.5-0.9-1.4-1.9-1.9-2.5
				c-0.7-0.9-1.3-1.8-2.1-2.5c-3.8-3.6-8.8-5.9-14.1-5.9c-2.8-0.1-5.3,0.5-7.7,1.7c-2.5,0.8-4.6,2.2-6.4,4.1
				c-3.5,3.8-6.1,8.8-5.9,14.1C235.6,205.2,237.3,210.5,241.2,214.1L241.2,214.1z"/>
		</g>
	</g>
	<g>
		<g>
			<path class="st2" d="M239.3,166.7c0.4-1.2,0.4-2.5,0.3-3.8c0-0.5,0-1,0-1.5c0-0.3,0-0.3,0-0.1c0-0.2,0.1-0.3,0.1-0.5
				c0-0.3,0.1-0.5,0.1-0.8c0.4-2.5,0.6-5,0.2-7.5c-0.2-1.3-1-2.6-2.5-2.5c-1.2,0.1-2.7,1.1-2.5,2.5c0.1,1.1,0.2,2.3,0.2,3.4
				c0,0.6,0,1.1-0.1,1.7c0,0.1,0,0.3,0,0.4c0-0.2,0-0.2,0,0.1c0,0.3-0.1,0.5-0.1,0.8c-0.2,1.2-0.4,2.5-0.4,3.7c0,0.5,0,1,0,1.5
				c0,0.2,0,0.5,0,0.7c0.1-0.5-0.1,0.4-0.2,0.5c-0.4,1.2,0.5,2.8,1.7,3.1C237.6,168.8,238.8,168.1,239.3,166.7L239.3,166.7z"/>
		</g>
	</g>
	<g>
		<g>
			<path class="st2" d="M237.6,154.6c3.7-0.2,7.4-0.1,11.1,0.3c-0.2-1.6-0.4-3.3-0.7-4.9c-3.3,1-6.7,2.1-8.9,4.8
				c-1.2,1.4-0.9,3.7,1.1,4.2c7.9,1.9,16,1.2,24,1.3c7.7,0.1,15.6,0.4,23.1-1.8c2.1-0.6,4-1.5,6.1-2.1c2.2-0.6,4.4-0.8,6.6-0.9
				c1.3-0.1,2.5-1.1,2.5-2.5c0-1.3-1.1-2.6-2.5-2.5c-2.6,0.2-5.2,0.4-7.7,1.1c-2.3,0.6-4.5,1.6-6.7,2.3c-4.6,1.3-9.4,1.6-14.2,1.6
				c-5,0-9.9-0.1-14.9-0.1c-5,0-10,0-14.9-1.2c0.4,1.4,0.7,2.8,1.1,4.2c1.7-2,4.3-2.8,6.7-3.5c1.2-0.4,2-1.5,1.8-2.7
				c-0.2-1.3-1.2-2-2.5-2.2c-3.7-0.4-7.4-0.6-11.1-0.3C234.4,149.8,234.4,154.8,237.6,154.6L237.6,154.6z"/>
		</g>
	</g>
	<g>
		<g>
			<path class="st2" d="M298.6,154.7c1.1,0,2.2,0.1,3.3,0.1c0.5,0,1,0,1.4,0.1c0.3,0,0.6,0,1,0c0.7,0.1,0.6,0-0.3-0.3
				c-0.2-0.4-0.4-0.7-0.6-1.1c0-0.1,0.1-0.3-0.1,0.1c-0.1,0.3-0.1,0.7-0.2,0.9c-0.1,0.7-0.2,1.4-0.3,2.1c-0.2,1.6-0.4,3.1-0.5,4.7
				c-0.3,3-0.5,5.9-0.1,8.9c0.2,1.3,0.7,2.6,0.8,4c0.1,1.1-0.6,2.3-0.8,3.4c-0.5,3-0.4,5.9-0.1,8.9c0.1,1.3,1.1,2.5,2.5,2.5
				c1.3,0,2.6-1.1,2.5-2.5c-0.2-1.9-0.3-3.8-0.3-5.7c0.1-1.7,0.6-3.2,0.9-4.9c0.4-2.1-0.3-4-0.7-6.1c-0.3-1.8-0.3-3.6-0.1-5.4
				c0.1-1.9,0.3-3.8,0.5-5.7c0.2-1.8,0.9-3.6,0.9-5.3c0-2.2-1.6-3.4-3.6-3.5c-2.1-0.2-4.1-0.2-6.2-0.3
				C295.4,149.6,295.4,154.6,298.6,154.7L298.6,154.7z"/>
		</g>
	</g>
	<g>
		<g>
			<path class="st2" d="M306.7,195.3c2.2-4.2,1.2-9.2,0.9-13.7c-1.6,0.4-3.1,0.8-4.7,1.3c0.8,1.1,0.9,2.1,0.8,3.4
				c0,0.6-0.2,1.2-0.3,1.8c-0.1,0.4-0.2,0.8-0.3,1.1c0,0.2-0.4,0.9-0.2,0.6c0.5-0.4,1-0.8,1.5-1.1c-0.1,0-0.2,0.1-0.3,0.1
				c0.4,0,0.9,0,1.3,0c-0.5-0.1-1-0.8-1.4-1.2c-0.7-0.8-2.1-0.9-3-0.4c-1,0.6-1.3,1.7-1.1,2.8c0.3,1.7,1.1,3.2,1.8,4.7
				c0.6,1.1,1.3,2.3,1.1,3.6c-0.1,0.8-0.5,1.7-0.6,2.5c-0.2,1.1-0.3,2.2-0.3,3.4c-0.1,2,0,4.1,0.1,6.1c0.1,1.2,1.1,2.7,2.5,2.5
				c1.8-0.2,3.2-1.4,3-3.3c-0.1-1.2-0.8-1.8-0.4-3.1c-1.4,0.4-2.8,0.7-4.2,1.1c0.4,0.3-0.9,2.8-1,3.4c-0.2,1-0.1,1.9,0.1,2.9
				c0.1,0.7,0.4,1.4,0.2,2c1.5-0.2,3-0.4,4.6-0.6c-0.2-0.5,0.2-1,0.7-1.4c-1.4-0.8-2.8-1.6-4.2-2.4c-2.3,9.3-4.5,18.6-6.9,27.9
				c-0.4,1.5,0.8,3.3,2.4,3.2c1.1-0.1,2.1-0.4,3.1-0.9c0.8-0.5,1.4-1.1,2.3-1.5c1.1-0.5,2.1-0.5,2.8-1.6c0.7-1.1,0.8-2.4,1-3.6
				c0.9-5.3,1.2-10.5,1-15.8c-0.1-3.2-5.1-3.2-5,0c0.1,5.8-1.5,11.3-4.8,16.1c-0.8,1.1-0.2,2.8,0.9,3.4c1.2,0.7,2.7,0.2,3.4-0.9
				c3.7-5.4,5.6-12,5.5-18.6c-1.7,0-3.3,0-5,0c0.1,3,0.2,6.1-0.1,9.1c-0.1,1.3-0.3,2.7-0.5,4c-0.1,0.7-0.2,1.4-0.3,2.1
				c-0.1,0.5-0.1,1.4-0.4,1.7c0.3-0.3,0.6-0.6,0.9-0.9c-0.3,0.2-0.9,0.3-1.3,0.5c-0.5,0.2-1,0.5-1.5,0.8c-0.5,0.4-1.4,1.2-2,1.2
				c0.8,1.1,1.6,2.1,2.4,3.2c2.4-9.3,4.6-18.6,6.9-27.9c0.6-2.6-2.3-4-4.2-2.4c-2.3,1.8-2.6,4.9-1.4,7.4c0.9,2.1,4,1.2,4.6-0.6
				c0.4-1.2,0.3-2.5,0-3.7c-0.2-1.1-0.2-1.7,0.2-2.8c0.8-2.3,1.1-4.9-0.8-6.7c-1.4-1.4-3.6-0.7-4.2,1.1c-0.3,0.9-0.4,1.8-0.4,2.7
				c0.1,1,0.5,1.7,0.7,2.7c0-0.4,0-0.9,0-1.3c0,0.1-0.1,0.2-0.1,0.3c0.2-0.4,0.4-0.7,0.6-1.1c-0.1,0.1-0.1,0.1-0.2,0.2
				c0.6-0.2,1.2-0.5,1.8-0.7c-0.1,0-0.2,0-0.2,0c0.8,0.8,1.7,1.7,2.5,2.5c-0.1-2.2-0.2-4.4-0.1-6.6c0.1-1.9,0.8-3.6,0.9-5.5
				c0.2-3.6-2.5-6.2-3.1-9.5c-1.4,0.8-2.8,1.6-4.2,2.4c1.1,1.4,3,3,4.9,2.5s2.3-2.3,2.7-4c0.7-3.1,0.9-6.6-1-9.3
				c-0.7-0.9-1.7-1.5-2.8-1.1c-1,0.3-1.9,1.3-1.8,2.4c0.1,2.1,0.3,4.2,0.4,6.3c0.1,1.6,0.1,3.4-0.6,4.9
				C300.9,195.6,305.2,198.1,306.7,195.3L306.7,195.3z"/>
		</g>
	</g>
	<g>
		<g>
			<path class="st2" d="M240.3,205c-0.3-0.2-0.7-0.3-1-0.5c-1.8-0.9-3.5,0.2-3.8,2.2c-0.1,1.2,0.1,2.5,0.2,3.7
				c0.1,1.1,0.1,2.3,0.2,3.4c0.1,2.4,0.1,4.9,0,7.3c-0.1,2.2-0.8,4.3-1,6.5c-0.3,2.3,0.1,4.7-0.2,7.1c-0.3,2.3-1,4.6-1.2,7
				c-0.1,2,1,3.6,1.2,5.5c0.3,2.4,0.5,4.8,0.6,7.2c0.1,2.1,0.6,4.4-0.2,6.4c-0.5,1.3,0.6,2.6,1.7,3.1c3.1,1.2,5.8-0.6,8.3-2.3
				c2.4-1.6,5-2.6,7.7-3.6c2.3-0.8,2.5-4.1,0-4.8c-2.1-0.6-4.2-1.2-6.2-1.8c-1.5-0.4-3.4-0.6-4.5-1.8c-1,1.3-2,2.6-3,3.9
				c0.7,0.3,2,1.2,2.1,1.6c0-0.4,0-0.9,0-1.3c0.5-0.5,0.5-0.7,0.2-0.4c-0.1,0.1-0.3,0.2-0.4,0.3c-0.5,0.3-0.8,0.7-1.1,1.1
				c-0.6,0.9-0.7,1.8-0.4,2.8c0.5,1.9,3.7,2.6,4.6,0.6c1.4-3.1,3.5-5.7,6.4-7.5c2.7-1.7,0.2-6-2.5-4.3c-3.6,2.2-6.5,5.4-8.2,9.3
				c1.5,0.2,3,0.4,4.6,0.6c0-0.1-0.1-0.2-0.1-0.3c0,0.4,0,0.9,0,1.3c-0.5,0.5-0.5,0.6-0.1,0.3c0.3-0.2,0.5-0.4,0.8-0.6
				c0.3-0.3,0.6-0.6,0.8-1c0.6-1,0.5-2.2,0-3.2c-0.8-1.6-2.5-2.8-4-3.6c-2.5-1.3-5,1.8-3,3.9c1.5,1.7,3.7,2.3,5.7,2.8
				c2.4,0.7,4.8,1.4,7.2,2c0-1.6,0-3.2,0-4.8c-2.5,0.9-5.1,1.8-7.5,3.2c-1.7,1-3.9,3.5-5.9,2.7c0.6,1,1.2,2.1,1.7,3.1
				c0.9-2.1,0.6-4.5,0.5-6.8c-0.1-2.4-0.3-4.8-0.6-7.2c-0.1-1.3-0.2-2.6-0.5-3.8c-0.2-0.8-0.8-1.5-0.8-2.3c-0.1-1,0.3-2.2,0.5-3.1
				c0.2-1.2,0.4-2.5,0.6-3.8c0.3-2.4-0.1-4.7,0.2-7.1c0.1-1,0.4-1.9,0.6-2.9c0.3-1.3,0.4-2.7,0.4-4c0.1-2.4,0.1-4.9,0-7.3
				c0-1.1-0.1-2.3-0.2-3.4c-0.1-1.2-0.4-2.5-0.2-3.7c-1.3,0.7-2.5,1.4-3.8,2.2c0.3,0.2,0.7,0.3,1,0.5
				C240.6,210.8,243.1,206.5,240.3,205L240.3,205z"/>
		</g>
	</g>
	<polyline class="st16" points="234.1,267.6 234.1,148.6 309,148.6 309,243 	"/>
	<line class="st3" x1="234.1" y1="268.8" x2="414.3" y2="206.7"/>
	<g>
		<g>
			<path d="M184.1,235.8c3.2,0,3.2-5,0-5S180.9,235.8,184.1,235.8L184.1,235.8z"/>
		</g>
	</g>
	<g>
		<g>
			<path class="st2" d="M174.3,238.2c2.3,0.1,4.6-0.1,6.8-0.5c1.9-0.4,4.3-0.8,5.4-2.5c1.3-1.9,0.5-4.4-1.6-5.3
				c-1.8-0.8-4.1-0.6-6-0.6c-4.3-0.1-8.7-0.1-12.9,0.7c-1.8,0.3-3.5,0.8-5.3,0.7c-2.1-0.1-4.3,0.3-5.8,1.9c-2,2.2,0.5,5,3,3.9
				c1.3-0.6,2.7-1.2,3.7-2.2c0.9-0.8,1.3-1.8,2.5-2.4c2.8-1.3,5.9-2.2,8.9-2.9c2.9-0.7,5.9-1.5,8.9-1.7s6.1,1.2,8.9,2.1
				c1.5,0.5,4.2,1.1,4.8,2.8c0.4,1.1-0.2,2.4-0.5,3.5c-0.2,0.7-0.3,1.4-0.5,2.1c-0.2,0.6-0.5,0.9-0.8,1.4c-0.9,1.1-1.6,2.5-2.6,3.5
				s-1.6,0.7-2.8,0.2c-1.4-0.5-2.8-0.7-4.3-1c-1.5-0.4-2.9-0.9-4.3-1.4c-3.2-1.2-6.5-1.9-9.8-2.8c-3.6-1-7-2.6-10.4-4
				c-0.2,1.6-0.4,3.3-0.7,4.9c3.7,0.2,7.4,0.4,11.1,0.1c3.6-0.3,7.4-0.8,10.5-2.7c1.9-1.1,1.5-3.9-0.6-4.6c0.6,0.2,0.6,0.6,0.5,0.2
				c0-0.2-0.2-0.3-0.2-0.5c-0.3-0.6-0.5-1.1-1-1.6s-1.1-0.9-1.8-1.1c-0.4-0.1-0.8-0.2-1.2-0.2c-0.1,0-0.3,0-0.4,0
				c-0.7,0-0.5,0.1,0.6,0.6c-0.5,1.2-1,2.4-1.5,3.7c2-0.7,4.2-0.9,6.3-1.2c1.9-0.2,3.9-0.3,5.8,0.2c2.3,0.5,7.1,1.5,6,4.9
				c-0.4,1.3-1.5,1.9-2.8,2.3c-1.9,0.5-4,0.7-5.9,0.7c-4.1,0.1-8.1-0.5-11.9-1.8c0,1.6,0,3.2,0,4.8c2.4-1,5-0.9,7.5-1.3
				c2.7-0.4,5.4-0.9,8-1.8c2.3-0.8,6.4-1.9,5.6-5.2c-0.7-2.8-4.5-3.6-6.8-4.4c-2.7-0.9-4.3,3.2-1.9,4.6c1,0.6,2,1.2,2.9,1.9
				c0.5,0.3,1,0.7,1.4,1c0.2,0.1,0.4,0.3,0.5,0.4c0.3,0.3,0.3,0.3,0.1,0c0-0.4,0-0.9,0-1.3c0,0.1-0.1,0.2-0.1,0.3
				c0.2-0.4,0.4-0.7,0.6-1.1c-0.3,0.3-1.2,0.6-1.7,0.8c-0.6,0.3-1.3,0.6-1.9,0.8c-1.3,0.5-2.1,1.7-1.7,3.1c0.3,1.2,1.8,2.3,3.1,1.7
				c2.6-1,7.8-2.5,6.3-6.3c-0.6-1.4-2-2.3-3.2-3.2c-1.2-0.9-2.5-1.7-3.8-2.5c-0.6,1.5-1.3,3-1.9,4.6c0.7,0.2,1.5,0.5,2.2,0.8
				c0.2,0.1,0.5,0.2,0.7,0.3c0.2,0.1,0.4,0.2,0.6,0.3c0.3,0.2,0.2,0-0.2-0.5c0-0.4,0-0.9,0-1.3c0,0,0,0,0-0.1
				c0.3-0.3,0.6-0.6,0.9-0.9c-1.2,0.8-2.8,1.2-4.1,1.6c-1.6,0.5-3.2,0.9-4.8,1.2c-3.2,0.6-6.6,0.3-9.6,1.6c-2.2,0.9-2.5,4,0,4.8
				c3.9,1.3,8,2,12.1,2c2.1,0,4.1-0.2,6.1-0.5c1.9-0.3,3.8-0.7,5.4-1.8c3.2-2.3,4.3-6.5,2.6-10c-1.7-3.5-5.9-4.8-9.4-5.6
				c-2.3-0.5-4.6-0.5-7-0.2c-2.5,0.3-5.1,0.6-7.4,1.3c-1.6,0.5-2.2,2.2-1.5,3.7c0.5,1,1.4,1.6,2.4,1.8c0.4,0.1,0.9,0.1,1.4,0.1
				c0.6,0,0.5-0.1-0.3-0.3c-0.1-0.1-0.1-0.1,0,0c0,0.4,0.6,1.2,0.8,1.6c0.6,0.8,1.3,1.4,2.3,1.7c-0.2-1.5-0.4-3-0.6-4.6
				c-2.6,1.6-5.9,1.9-8.9,2.1c-3.4,0.2-6.8,0-10.2-0.1c-1.2-0.1-2.3,1-2.5,2.2c-0.2,1.3,0.6,2.3,1.8,2.7c3.4,1.4,6.8,3,10.4,4
				c1.7,0.5,3.4,0.8,5.1,1.2c1.8,0.5,3.5,1.1,5.2,1.7c1.6,0.6,3.1,1.1,4.7,1.4c0.7,0.2,1.4,0.3,2.1,0.5c1,0.2,1.9,0.7,2.9,0.9
				c3.9,0.8,6.4-2.3,8.4-5.2c0.9-1.3,1.9-2.4,2.4-4c0.5-1.8,1-3.5,1.2-5.3c0.4-3.4-1.5-6.1-4.4-7.6s-6.3-2.4-9.4-3.3
				c-1.7-0.5-3.5-0.8-5.3-0.6c-1.8,0.2-3.7,0.5-5.5,0.8c-3.9,0.8-7.8,1.8-11.5,3.2c-1.8,0.7-3.8,1.3-5.1,2.8
				c-0.5,0.5-0.9,1.2-1.5,1.7c-0.7,0.6-1.7,1-2.6,1.3c1,1.3,2,2.6,3,3.9c0.7-0.8,2.1-0.4,3.1-0.4c1.4,0,2.8-0.3,4.2-0.6
				c2.9-0.7,5.9-0.9,8.9-0.9c1.5,0,3,0,4.5,0.1c0.8,0,1.6,0.1,2.4,0.1c0.4,0,1.2,0.2,1.5,0.1c0.4-1.8,0.2-2.5-0.5-2.2
				c-0.1,0-0.2,0.1-0.2,0.1c-0.4,0-0.7,0.2-1.1,0.3c-0.8,0.2-1.5,0.3-2.3,0.5c-1.5,0.2-3,0.3-4.5,0.2
				C171.1,233.1,171.1,238.1,174.3,238.2L174.3,238.2z"/>
		</g>
	</g>
	<line class="st3" x1="56.5" y1="207" x2="234.1" y2="268.8"/>
</g>
</svg>
