<?xml version="1.0" encoding="utf-8"?>
<!-- Generator: Adobe Illustrator 26.0.0, SVG Export Plug-In . SVG Version: 6.00 Build 0)  -->
<svg version="1.1" id="Camada_2" xmlns="http://www.w3.org/2000/svg" xmlns:xlink="http://www.w3.org/1999/xlink" x="0px" y="0px"
	 viewBox="0 0 88.5 67.5" style="enable-background:new 0 0 88.5 67.5;" xml:space="preserve">
<style type="text/css">
	.st0{fill:#E52421;}
	.st1{fill:#010202;}
</style>
<g>
	<g>
		<g>
			<path class="st0" d="M5.3,10.6c2.6,0,5.1-2.3,5-5c-0.1-2.7-2.2-5-5-5c-2.6,0-5.1,2.3-5,5C0.4,8.3,2.5,10.6,5.3,10.6L5.3,10.6z"/>
		</g>
	</g>
	<g>
		<path class="st1" d="M22.1,5.6c6.9,0,13.7,0,20.6,0c-0.4,0-0.8,0-1.1,0c11.4,0,22.9,0,34.3,0"/>
		<g>
			<path class="st1" d="M22.1,10.6c6.9,0,13.7,0,20.6,0c0-3.3,0-6.7,0-10c-0.4,0-0.8,0-1.1,0c-2.6,0-5.1,2.3-5,5c0.1,2.7,2.2,5,5,5
				c11.4,0,22.9,0,34.3,0c2.6,0,5.1-2.3,5-5c-0.1-2.7-2.2-5-5-5c-11.4,0-22.9,0-34.3,0c0,3.3,0,6.7,0,10c0.4,0,0.8,0,1.1,0
				c2.6,0,5.1-2.3,5-5c-0.1-2.7-2.2-5-5-5c-6.9,0-13.7,0-20.6,0c-2.6,0-5.1,2.3-5,5C17.2,8.3,19.3,10.6,22.1,10.6L22.1,10.6z"/>
		</g>
	</g>
	<g>
		<path class="st1" d="M22.1,24.1c6.9,0,13.7,0,20.6,0c-0.4,0-0.8,0-1.1,0c11.4,0,22.9,0,34.3,0"/>
		<g>
			<path class="st1" d="M22.1,29.1c6.9,0,13.7,0,20.6,0c0-3.3,0-6.7,0-10c-0.4,0-0.8,0-1.1,0c-2.6,0-5.1,2.3-5,5c0.1,2.7,2.2,5,5,5
				c11.4,0,22.9,0,34.3,0c2.6,0,5.1-2.3,5-5c-0.1-2.7-2.2-5-5-5c-11.4,0-22.9,0-34.3,0c0,3.3,0,6.7,0,10c0.4,0,0.8,0,1.1,0
				c2.6,0,5.1-2.3,5-5c-0.1-2.7-2.2-5-5-5c-6.9,0-13.7,0-20.6,0c-2.6,0-5.1,2.3-5,5C17.2,26.8,19.3,29.1,22.1,29.1L22.1,29.1z"/>
		</g>
	</g>
	<g>
		<path class="st1" d="M23.5,43.4c3,0,6,0,9.1,0c-0.2,0-0.3,0-0.5,0c5,0,10.1,0,15.1,0"/>
		<g>
			<path class="st1" d="M23.5,48.4c3,0,6,0,9.1,0c2.6,0,5.1-2.3,5-5c-0.1-2.7-2.2-5-5-5c-0.2,0-0.3,0-0.5,0c-2.6,0-5.1,2.3-5,5
				c0.1,2.7,2.2,5,5,5c5,0,10.1,0,15.1,0c2.6,0,5.1-2.3,5-5c-0.1-2.7-2.2-5-5-5c-5,0-10.1,0-15.1,0c-2.6,0-5.1,2.3-5,5
				c0.1,2.7,2.2,5,5,5c0.2,0,0.3,0,0.5,0c2.6,0,5.1-2.3,5-5c-0.1-2.7-2.2-5-5-5c-3,0-6,0-9.1,0c-2.6,0-5.1,2.3-5,5
				C18.7,46.1,20.7,48.4,23.5,48.4L23.5,48.4z"/>
		</g>
	</g>
	<g>
		<path class="st1" d="M23.5,61.9c3,0,6,0,9.1,0c-0.2,0-0.3,0-0.5,0c5,0,10.1,0,15.1,0"/>
		<g>
			<path class="st1" d="M23.5,66.9c3,0,6,0,9.1,0c2.6,0,5.1-2.3,5-5c-0.1-2.7-2.2-5-5-5c-0.2,0-0.3,0-0.5,0c-2.6,0-5.1,2.3-5,5
				c0.1,2.7,2.2,5,5,5c5,0,10.1,0,15.1,0c2.6,0,5.1-2.3,5-5c-0.1-2.7-2.2-5-5-5c-5,0-10.1,0-15.1,0c-2.6,0-5.1,2.3-5,5
				c0.1,2.7,2.2,5,5,5c0.2,0,0.3,0,0.5,0c2.6,0,5.1-2.3,5-5c-0.1-2.7-2.2-5-5-5c-3,0-6,0-9.1,0c-2.6,0-5.1,2.3-5,5
				C18.7,64.6,20.7,66.9,23.5,66.9L23.5,66.9z"/>
		</g>
	</g>
	<g>
		<g>
			<path class="st0" d="M5.3,29.1c2.6,0,5.1-2.3,5-5c-0.1-2.7-2.2-5-5-5c-2.6,0-5.1,2.3-5,5C0.4,26.8,2.5,29.1,5.3,29.1L5.3,29.1z"
				/>
		</g>
	</g>
	<g>
		<g>
			<path class="st0" d="M5.3,48.4c2.6,0,5.1-2.3,5-5c-0.1-2.7-2.2-5-5-5c-2.6,0-5.1,2.3-5,5C0.4,46.1,2.5,48.4,5.3,48.4L5.3,48.4z"
				/>
		</g>
	</g>
	<g>
		<g>
			<path class="st0" d="M5.3,66.9c2.6,0,5.1-2.3,5-5c-0.1-2.7-2.2-5-5-5c-2.6,0-5.1,2.3-5,5C0.4,64.6,2.5,66.9,5.3,66.9L5.3,66.9z"
				/>
		</g>
	</g>
	<g>
		<g>
			<path class="st0" d="M69.7,43.5c0,5.7,0,11.5,0,17.2c0,2.6,2.3,5.1,5,5c2.7-0.1,5-2.2,5-5c0-5.7,0-11.5,0-17.2c0-2.6-2.3-5.1-5-5
				C72,38.6,69.7,40.7,69.7,43.5L69.7,43.5z"/>
		</g>
	</g>
	<g>
		<g>
			<path class="st0" d="M66.1,57.1c5.7,0,11.5,0,17.2,0c2.6,0,5.1-2.3,5-5c-0.1-2.7-2.2-5-5-5c-5.7,0-11.5,0-17.2,0
				c-2.6,0-5.1,2.3-5,5C61.2,54.8,63.3,57.1,66.1,57.1L66.1,57.1z"/>
		</g>
	</g>
</g>
</svg>
