<?xml version="1.0" encoding="utf-8"?>
<!-- Generator: Adobe Illustrator 26.0.0, SVG Export Plug-In . SVG Version: 6.00 Build 0)  -->
<svg version="1.1" xmlns="http://www.w3.org/2000/svg" xmlns:xlink="http://www.w3.org/1999/xlink" x="0px" y="0px"
	 viewBox="0 0 595.3 841.9" style="enable-background:new 0 0 595.3 841.9;" xml:space="preserve">
<style type="text/css">
	.st0{display:none;}
	.st1{fill:none;stroke:#000000;stroke-width:11;stroke-linecap:round;stroke-miterlimit:10;}
	.st2{fill:none;stroke:#000000;stroke-width:11;stroke-miterlimit:10;}
	.st3{fill:none;stroke:#000000;stroke-width:15;stroke-linecap:round;stroke-miterlimit:10;}
	.st4{fill:none;stroke:#000000;stroke-width:12;stroke-linecap:round;stroke-miterlimit:10;}
	.st5{fill:none;stroke:#000000;stroke-width:7;stroke-linecap:round;stroke-miterlimit:10;}
	.st6{fill:none;stroke:#000000;stroke-width:6;stroke-linecap:round;stroke-miterlimit:10;}
	.st7{fill:none;stroke:#000000;stroke-width:6;stroke-linecap:round;stroke-linejoin:round;stroke-miterlimit:10;}
	.st8{fill:none;stroke:#000000;stroke-width:6;stroke-linecap:square;stroke-linejoin:round;stroke-miterlimit:10;}
	.st9{fill:#E67E1D;}
	.st10{fill:#F4952E;}
	.st11{fill:none;stroke:#F4952E;stroke-miterlimit:10;}
	.st12{fill:none;stroke:#EB5B6A;stroke-miterlimit:10;}
	.st13{fill:#EB5B6A;}
	.st14{fill:none;stroke:#000000;stroke-width:4;stroke-linecap:round;stroke-linejoin:round;stroke-miterlimit:10;}
	.st15{fill:#4A494A;}
	.st16{fill:#4A494A;stroke:#000000;stroke-width:11;stroke-linecap:round;stroke-miterlimit:10;}
</style>
<g id="Camada_1" class="st0">
	
		<image style="display:inline;overflow:visible;" width="512" height="512" xlink:href="5731073.png"  transform="matrix(1 0 0 1 66 150)">
	</image>
</g>
<g id="Camada_2">
	<line class="st1" x1="322" y1="644.4" x2="322" y2="438"/>
	<line class="st1" x1="503" y1="573.6" x2="322" y2="644.4"/>
	<line class="st1" x1="501.3" y1="438" x2="503" y2="573.6"/>
	<path class="st2" d="M196.9,352.6c-17.7,7-34.7,15.8-52.4,22.6"/>
	<line class="st1" x1="367.9" y1="486.5" x2="322" y2="437"/>
	<line class="st1" x1="545.8" y1="417.2" x2="367.9" y2="486.5"/>
	<line class="st1" x1="502.2" y1="374.9" x2="545.8" y2="417.2"/>
	<line class="st1" x1="425.4" y1="348.7" x2="502.2" y2="374.9"/>
	<line class="st3" x1="403.2" y1="645.1" x2="464.9" y2="621.6"/>
	<line class="st4" x1="493.3" y1="611.3" x2="508.9" y2="604.4"/>
	<line class="st1" x1="96" y1="417.2" x2="140.6" y2="374.9"/>
	<line class="st1" x1="322" y1="437" x2="274.9" y2="486.5"/>
	<line class="st1" x1="96" y1="417.2" x2="274.9" y2="486.5"/>
	<line class="st1" x1="322" y1="644.4" x2="133.1" y2="575.6"/>
	<line class="st1" x1="134.1" y1="433.8" x2="133.1" y2="575.6"/>
	<line class="st1" x1="133.8" y1="474.9" x2="245.7" y2="513"/>
	<line class="st1" x1="245.7" y1="569.9" x2="245.7" y2="513"/>
	<line class="st1" x1="135.9" y1="528.8" x2="245.7" y2="569.9"/>
	<line class="st1" x1="273.2" y1="513" x2="273.2" y2="523.9"/>
	<line class="st1" x1="273.2" y1="546.9" x2="273.2" y2="579.3"/>
	<line class="st5" x1="330.8" y1="197.5" x2="385.8" y2="197.5"/>
	<line class="st5" x1="385.8" y1="172.3" x2="385.8" y2="197.5"/>
	<line class="st5" x1="328.9" y1="172.3" x2="385.8" y2="172.3"/>
	<line class="st5" x1="328.9" y1="197.5" x2="328.9" y2="172.3"/>
	<path class="st6" d="M253.8,284.7"/>
	
		<rect x="201" y="202.8" transform="matrix(0.9832 -0.1825 0.1825 0.9832 -36.1239 43.9706)" class="st7" width="39.7" height="30.9"/>
	<line class="st8" x1="204.2" y1="220.8" x2="225.4" y2="216.8"/>
	<path class="st7" d="M218.5,370.5c0,0,25.2-30.1,67.4-17.8"/>
	<path class="st7" d="M230.6,378.1c0,0,25.3-17.5,50.7-12.1"/>
	<line class="st7" x1="285.9" y1="352.6" x2="281.2" y2="366"/>
	<line class="st7" x1="218.5" y1="370.5" x2="230.6" y2="378.1"/>
	<path class="st7" d="M239.3,416.7"/>
	<g>
		<g>
			<path class="st9" d="M228.6,269c1.9,0.1,3.8-0.4,5.7-0.7c1.7-0.3,3.4-0.6,5.1-1c1.7-0.3,3.3-0.6,5-0.8c1.8-0.2,3.4-0.9,5-1.5
				c1.3-0.5,2.1-1.7,1.7-3.1c-0.3-1.2-1.8-2.2-3.1-1.7c-1.5,0.6-3,1.2-4.7,1.4c-1.7,0.2-3.3,0.4-5,0.8c-1.7,0.3-3.4,0.7-5.1,1
				c-1.5,0.3-3.2,0.7-4.8,0.6c-1.3-0.1-2.5,1.2-2.5,2.5C226.1,267.9,227.3,268.9,228.6,269L228.6,269z"/>
		</g>
	</g>
	<g>
		<g>
			<path class="st9" d="M229.2,271.2c2.2,0.3,4.1,0,6.2-0.5c1.7-0.4,3.4-0.4,5.1-0.4c3.8-0.1,7.8-0.8,11.2-2.4
				c1.2-0.6,1.5-2.3,0.9-3.4c-0.7-1.3-2.2-1.5-3.4-0.9c-1.4,0.6-2.9,0.9-4.3,1.2c-1.6,0.3-3.1,0.5-4.7,0.5c-1.8,0-3.5,0.1-5.3,0.5
				c-1.4,0.3-2.9,0.8-4.3,0.6c-1.3-0.2-2.7,0.3-3.1,1.7C227.1,269.3,227.8,271,229.2,271.2L229.2,271.2z"/>
		</g>
	</g>
	<g>
		<g>
			<path class="st9" d="M229.9,273.2c3.7,0.2,7.2-0.8,10.8-1.1c1.7-0.1,3.4-0.1,5.1-0.3c1.9-0.2,3.8-0.6,5.7-1.1
				c3.1-0.9,1.8-5.7-1.3-4.8c-1.5,0.4-3.1,0.8-4.7,1c-1.7,0.2-3.4,0.1-5.1,0.3c-3.5,0.3-6.9,1.3-10.4,1.1c-1.3-0.1-2.5,1.2-2.5,2.5
				C227.4,272.1,228.5,273.1,229.9,273.2L229.9,273.2z"/>
		</g>
	</g>
	<g>
		<g>
			<path class="st9" d="M231.9,275.4c3.1,0.3,6.2-0.6,9.2-0.8c1.6-0.1,3.2-0.1,4.9-0.4c1.5-0.3,3-0.6,4.5-1c1.3-0.3,2.1-1.8,1.7-3.1
				c-0.4-1.4-1.8-2-3.1-1.7c-1.4,0.3-2.8,0.6-4.2,0.9c-1.4,0.3-2.8,0.2-4.2,0.3c-3,0.3-5.8,1-8.8,0.7c-1.3-0.1-2.5,1.2-2.5,2.5
				C229.4,274.4,230.5,275.3,231.9,275.4L231.9,275.4z"/>
		</g>
	</g>
	<g>
		<g>
			<path class="st9" d="M231.8,277.5c1.8,0.3,3.5,0.3,5.3,0c1.4-0.2,2.8-0.6,4.1-0.6c3.1-0.2,6.3,0.3,9.3-0.6
				c1.3-0.4,2.1-1.8,1.7-3.1c-0.4-1.3-1.8-2.1-3.1-1.7c-2.5,0.7-5.3,0.3-8,0.4c-2.8,0.2-5.4,1.2-8.1,0.8c-1.3-0.2-2.7,0.3-3.1,1.7
				C229.8,275.7,230.5,277.3,231.8,277.5L231.8,277.5z"/>
		</g>
	</g>
	<g>
		<g>
			<path class="st9" d="M234.2,280.3c3,0.3,6-0.4,8.9-0.9c2.7-0.5,5.6-0.5,8.4-0.4c1.4,0,2.5-1.2,2.5-2.5c0-1.4-1.1-2.5-2.5-2.5
				c-3.1-0.1-6.1-0.1-9.1,0.4c-2.8,0.5-5.3,1.2-8.2,0.9c-1.3-0.2-2.5,1.3-2.5,2.5C231.7,279.3,232.9,280.2,234.2,280.3L234.2,280.3z
				"/>
		</g>
	</g>
	<g>
		<g>
			<path class="st9" d="M236.5,282.8c1.3,0.1,2.6,0.1,4,0c0.7-0.1,1.4-0.2,2-0.3c0.4-0.1,0.7-0.1,1.1-0.2c0.5-0.1-0.1,0,0.4-0.1
				c2.6-0.2,5.2,0.1,7.8-0.5c1.3-0.3,2.2-1.8,1.7-3.1c-0.4-1.3-1.7-2.1-3.1-1.7c-0.7,0.2-0.7,0.2-1.5,0.2c-0.6,0-1.1,0-1.7,0
				c-1.2,0-2.4,0-3.6,0.1c-0.7,0.1-1.3,0.2-2,0.3c-0.3,0.1-0.6,0.1-0.9,0.2c-0.1,0-0.3,0-0.4,0.1c0.2,0,0.1,0-0.2,0
				c-1.2,0.1-2.4,0.1-3.7,0c-1.3,0-2.6,1.2-2.5,2.5C234,281.7,235.1,282.8,236.5,282.8L236.5,282.8z"/>
		</g>
	</g>
	<g>
		<g>
			<path class="st9" d="M238.4,285c1.9,0,3.8,0,5.7,0c1.9,0,3.9,0,5.8-0.6c1.2-0.4,2.2-1.8,1.7-3.1c-0.4-1.2-1.7-2.2-3.1-1.7
				c-0.4,0.1-0.8,0.2-1.3,0.3c-0.1,0-0.2,0-0.3,0c0.3,0,0.4,0,0.1,0c-0.2,0-0.4,0-0.6,0c-0.9,0.1-1.7,0-2.6,0c-1.8,0-3.7,0-5.5,0
				c-1.3,0-2.6,1.2-2.5,2.5C236,283.9,237,285,238.4,285L238.4,285z"/>
		</g>
	</g>
	<g>
		<g>
			<path class="st9" d="M241.1,287.8c2.8,0.1,5.6,0.1,8.4,0.1c1.3,0,2.6-1.1,2.5-2.5c-0.1-1.3-1.1-2.5-2.5-2.5
				c-2.8,0.1-5.6,0-8.4-0.1c-1.3,0-2.6,1.2-2.5,2.5C238.6,286.7,239.7,287.8,241.1,287.8L241.1,287.8z"/>
		</g>
	</g>
	<g>
		<g>
			<path class="st9" d="M243.6,291.3c3.4-0.2,6.9,0.1,10.3-0.9c1.3-0.4,2.2-1.8,1.7-3.1c-0.4-1.3-1.7-2.1-3.1-1.7
				c-0.4,0.1-0.8,0.2-1.2,0.3c-0.2,0-0.4,0.1-0.5,0.1c-0.6,0.1,0.5,0,0,0c-0.8,0.1-1.6,0.1-2.4,0.2c-1.6,0-3.2,0-4.8,0.1
				c-1.3,0.1-2.6,1.1-2.5,2.5C241.1,290.1,242.2,291.4,243.6,291.3L243.6,291.3z"/>
		</g>
	</g>
	<g>
		<g>
			<path class="st9" d="M248,294.3c3.5-0.6,6.9-1.3,10.3-2.1c1.3-0.3,2.1-1.8,1.7-3.1c-0.4-1.4-1.7-2-3.1-1.7
				c-3.4,0.7-6.9,1.4-10.3,2.1c-1.3,0.2-2.1,1.9-1.7,3.1C245.4,293.9,246.7,294.5,248,294.3L248,294.3z"/>
		</g>
	</g>
	<g>
		<g>
			<path class="st9" d="M250.6,297.1c3.6-0.2,7.1-1.3,10.1-3.3c1.1-0.7,1.7-2.2,0.9-3.4c-0.7-1.1-2.3-1.7-3.4-0.9
				c-0.5,0.4-1.1,0.7-1.7,1c-0.3,0.1-0.5,0.3-0.8,0.4c-0.1,0-0.2,0.1-0.3,0.1c0.1,0,0.2-0.1,0.3-0.1c-0.2,0-0.3,0.1-0.5,0.2
				c-1.2,0.5-2.5,0.8-3.8,1c0.2,0,0.4-0.1,0.7-0.1c-0.5,0.1-1,0.1-1.5,0.1c-1.3,0.1-2.6,1.1-2.5,2.5
				C248.1,295.9,249.2,297.2,250.6,297.1L250.6,297.1z"/>
		</g>
	</g>
	<g>
		<g>
			<path class="st9" d="M252.8,300.3c1.3,0,2.4-0.4,3.6-0.8c1-0.3,2-0.7,2.9-1c2.2-0.9,4.2-2,5.9-3.6c0.9-0.9,1-2.6,0-3.5
				c-1-0.9-2.5-1-3.5,0c-0.2,0.2-0.3,0.3-0.5,0.5c-0.1,0.1-0.2,0.2-0.3,0.2c-0.2,0.2-0.2,0.1,0.1-0.1c-0.2,0.3-0.8,0.6-1.2,0.8
				c-0.4,0.2-0.8,0.5-1.2,0.7c-0.2,0.1-0.4,0.2-0.6,0.3c-0.5,0.2,0.5-0.2-0.1,0.1c-0.9,0.3-1.7,0.6-2.6,0.9
				c-0.5,0.2-0.9,0.3-1.4,0.4c-0.3,0.1-0.5,0.1-0.8,0.2c-0.3,0-0.3,0,0.1,0c-0.1,0-0.3,0-0.4,0c-1.3,0-2.6,1.1-2.5,2.5
				C250.4,299.1,251.4,300.3,252.8,300.3L252.8,300.3z"/>
		</g>
	</g>
	<g>
		<g>
			<path class="st9" d="M253.4,302.7c1.5,0.4,3,0.4,4.4-0.2c1.2-0.5,2.4-1.1,3.6-1.7c1-0.6,1.9-1.2,2.9-1.8c1-0.7,2.1-1.4,2.9-2.4
				c0.4-0.5,0.7-1.1,0.7-1.8c0-0.6-0.3-1.3-0.7-1.8c-0.9-0.8-2.7-1.1-3.5,0c-0.3,0.4-0.7,0.7-1,1c-0.1,0.1-0.2,0.2-0.3,0.2
				c0.2-0.2,0.3-0.2,0,0c-0.2,0.1-0.3,0.2-0.5,0.4c-0.8,0.6-1.7,1.2-2.6,1.7c-0.9,0.5-1.7,1-2.7,1.4c-0.1,0-0.2,0.1-0.3,0.1
				c0.3-0.1,0.3-0.1,0,0c-0.2,0.1-0.6,0.3-0.8,0.2c0.3,0,0.3,0,0,0c-0.1,0-0.3,0-0.4,0c0.3,0.1,0.3,0.1,0,0c-0.1,0-0.3-0.1-0.4-0.1
				c-1.3-0.3-2.8,0.4-3.1,1.7C251.4,301,252.1,302.3,253.4,302.7L253.4,302.7z"/>
		</g>
	</g>
	<g>
		<g>
			<path class="st9" d="M256.2,306.1c2.5-1.3,5.1-2.6,7.4-4.2c1.2-0.8,2.3-1.7,3.2-2.8c0.9-1.1,2-2,2.8-3.2c0.7-1.1,0.3-2.8-0.9-3.4
				c-1.2-0.7-2.7-0.3-3.4,0.9c-0.1,0.2-0.1,0.1,0,0c-0.1,0.1-0.2,0.2-0.3,0.4c-0.2,0.2-0.4,0.4-0.6,0.6c-0.4,0.4-0.8,0.9-1.2,1.3
				c-0.4,0.5-0.8,0.9-1.2,1.3c-0.1,0.1-0.3,0.2-0.4,0.3c0.2-0.1,0.2-0.1,0,0c-0.3,0.2-0.5,0.4-0.8,0.5c-2.3,1.5-4.7,2.7-7.1,3.9
				c-1.2,0.6-1.6,2.3-0.9,3.4C253.6,306.4,255,306.8,256.2,306.1L256.2,306.1z"/>
		</g>
	</g>
	<g>
		<g>
			<path class="st9" d="M256.1,309.2c1.9-0.3,3.7-1.4,5.3-2.3c1.7-0.9,3.3-1.9,5-2.9c1.6-1,3.2-2,4.8-3c1.7-1.2,3.2-2.3,3.9-4.3
				c0.5-1.3-0.5-2.7-1.7-3.1c-1.4-0.4-2.6,0.5-3.1,1.7c0.1-0.2,0.1-0.2-0.1,0.1c0.1-0.2,0.1-0.1-0.1,0.1c-0.1,0.1-0.7,0.6-0.5,0.4
				c-0.7,0.5-1.4,1-2.1,1.4c-1.4,0.9-2.8,1.8-4.2,2.7c-1.4,0.9-2.8,1.7-4.3,2.5c-1.4,0.8-2.7,1.6-4.3,1.9c-1.3,0.2-2.1,1.9-1.7,3.1
				C253.4,308.9,254.8,309.4,256.1,309.2L256.1,309.2z"/>
		</g>
	</g>
	<g>
		<g>
			<path class="st9" d="M270.8,298.9c3.2,0,3.2-5,0-5C267.6,293.9,267.6,298.9,270.8,298.9L270.8,298.9z"/>
		</g>
	</g>
	<g>
		<g>
			<path class="st9" d="M258.8,312c2.7-2.2,5.4-4.5,8.3-6.5c2.9-2,5.9-3.8,8.5-6.1c1-0.9,0.9-2.6,0-3.5c-1-1-2.5-0.9-3.5,0
				c-2.4,2.1-5.2,3.8-7.9,5.7c-3.1,2.1-5.9,4.5-8.8,6.9c-1,0.9-0.9,2.6,0,3.5C256.3,313.1,257.8,312.9,258.8,312L258.8,312z"/>
		</g>
	</g>
	<g>
		<g>
			<path class="st9" d="M258.7,316.2c2-0.1,3.5-1.6,4.9-2.8c1.4-1.1,2.7-2.1,4.1-3.2c2.7-2.1,5.4-4.3,8.1-6.4c1-0.8,0.9-2.7,0-3.5
				c-1.1-1-2.4-0.9-3.5,0c-2.5,2-4.9,3.9-7.4,5.9c-1.2,0.9-2.4,1.9-3.6,2.8c-0.6,0.5-1.3,1-1.9,1.5c-0.3,0.3-0.6,0.5-1,0.8
				c0.1-0.1,0.1-0.1-0.1,0.1c-0.4,0.2-0.3,0.2,0.4-0.1c-1.3,0-2.6,1.1-2.5,2.5C256.2,315.1,257.3,316.3,258.7,316.2L258.7,316.2z"/>
		</g>
	</g>
	<g>
		<g>
			<path class="st9" d="M278.7,301.2c0.7-0.6,1.5-1.2,2.2-1.8c0.2-0.2,0.4-0.5,0.5-0.8c0.2-0.3,0.2-0.6,0.2-1c0-0.3-0.1-0.7-0.2-1
				c-0.1-0.3-0.3-0.6-0.5-0.8c-0.2-0.1-0.3-0.3-0.5-0.4c-0.4-0.2-0.8-0.3-1.3-0.3c-0.2,0-0.4,0.1-0.7,0.1c-0.4,0.1-0.8,0.3-1.1,0.6
				c-0.7,0.6-1.5,1.2-2.2,1.8c-0.2,0.2-0.4,0.5-0.5,0.8c-0.2,0.3-0.2,0.6-0.2,1c0,0.3,0.1,0.7,0.2,1c0.1,0.3,0.3,0.6,0.5,0.8
				c0.2,0.1,0.3,0.3,0.5,0.4c0.4,0.2,0.8,0.3,1.3,0.3c0.2,0,0.4-0.1,0.7-0.1C278,301.8,278.3,301.5,278.7,301.2L278.7,301.2z"/>
		</g>
	</g>
	<g>
		<g>
			<path class="st9" d="M276,304.8c3.2,0,3.2-5,0-5C272.8,299.8,272.8,304.8,276,304.8L276,304.8z"/>
		</g>
	</g>
	<g>
		<g>
			<path class="st9" d="M259.5,319.4c1.6-1,2.9-2.4,4.1-3.8c1.3-1.5,2.7-2.8,4.3-4c1.6-1.2,3.2-2.4,4.7-3.8c1.3-1.2,2.5-2.4,3.9-3.5
				c0.3-0.2,2-1,2-1.2c-0.2-0.1-0.3-0.2-0.5-0.3c-0.4-0.1-0.6-0.3-0.5-0.6c-0.4-0.3,0.2-0.4-0.2,0c-0.3,0.3-0.5,0.6-0.7,0.9
				c-1.4,1.5-3.1,2.8-4.7,4.1c-3,2.5-6.3,4.5-9.4,6.8c-1.7,1.3-3.5,2.8-4.5,4.8c-0.5,1.1-0.9,2.3-0.9,3.5c0,0.5,0.1,1.1,0.3,1.6
				c0.1,0.3,0.3,0.6,0.4,0.9c0.1,0.2,0.3,0.8,0.2,0.2c0.3,2.7,4.1,3.5,4.9,0.7c0.3-1,0.5-2,1.1-2.9c0.6-0.9,1.3-1.7,1.9-2.6
				c1.4-1.8,2.8-3.7,4.5-5.2c3.4-3.1,7.3-5.6,11.2-8.1c0.6-0.4,1.3-1.1,2-0.9c0.7,0.1,1.5,0.9,1.9,1.4c1.3,1.6,1.8,4,2.2,6.1
				c0.1,0.5,0.1,1,0.1,1.5c0,0.5,0,0.2-0.3,0.4c-1,0.6-2.2,1-3.2,1.5c-2.1,0.9-4.2,1.7-6.4,2.3c-2.5,0.8-5,1.4-7.6,2
				c-1.3,0.3-2.6,0.5-3.8,0.7c-0.6,0.1-1.2,0.2-1.8,0.3c-0.2,0-0.5,0-0.7,0.1c-0.4,0.1-0.5-0.1-0.2,0.2c0.3,0.3,0.6,0.6,0.9,0.9
				c0-0.1-0.1-0.1-0.1-0.2c0.1,0.4,0.2,0.8,0.3,1.3c0-0.1,0-0.1,0-0.2c-0.1,0.4-0.2,0.8-0.3,1.3c0.1-0.1,0.1-0.2,0.2-0.2
				c-0.3,0.3-0.6,0.6-0.9,0.9c1.8-1.1,3-2.6,3.9-4.5c0.9-1.8,1.6-3.5,3-5c3-3.2,7.1-4.9,11.2-6.3c0.6-0.2,2.8-1.2,2.4,0.1
				c-0.5,1.7-2.5,3.1-3.9,4c-3.8,2.4-8.5,3.9-13,3.9c0.8,0.6,1.6,1.2,2.4,1.8c0-0.1-0.1-0.2-0.1-0.3c0,0.4,0,0.9,0,1.3
				c-0.2,0.2-0.2,0.2-0.1,0c0.1-0.1,0.3-0.3,0.5-0.4c0.3-0.2,0.6-0.5,0.8-0.7c0.6-0.5,1.1-0.9,1.7-1.4c1.2-0.9,2.4-1.7,3.8-2.3
				c1.4-0.6,2.9-0.9,4.3-1.3c0.8-0.2,1.6-0.4,2.4-0.6c0.8-0.2,1.7-0.6,2.5-0.5c-0.4-0.1-0.8-0.2-1.3-0.3c0.7,0.3,1.5,0.9,2.1,1.4
				c-0.3-0.3-0.6-0.6-0.9-0.9c0,0.1,0.1,0.2,0.1,0.3c-0.1-0.4-0.2-0.8-0.3-1.3c0,0.1-0.6,1-0.9,1.3c-0.5,0.6-0.8,0.8-1.6,0.8
				c-2,0-4.2-0.5-6.2-1c-3.1-0.8-4.5,4.1-1.3,4.8c3.9,1,9.2,2.5,12.4-0.8c1.2-1.3,2.7-3.3,2.6-5.2c-0.1-1.5-0.9-2.1-2-2.8
				c-0.9-0.6-1.5-1.3-2.7-1.4c-2.1-0.2-4.5,0.8-6.6,1.4c-2.1,0.5-4.1,1.1-6,2.1c-1.8,1-3.5,2.3-5.1,3.6c-1.6,1.3-3.8,3-2.9,5.4
				c0.4,1,1.3,1.8,2.4,1.8c5.2,0,10.7-1.7,15.2-4.4c2.2-1.3,4.2-3,5.6-5.1c1.5-2.2,1.8-5.4-0.2-7.4c-1.8-1.9-4.5-1.8-6.9-1.1
				c-2.5,0.8-5,1.8-7.3,2.9c-4.4,2.2-8,5.5-10.1,10.1c-0.4,0.9-0.8,1.9-1.4,2.6c-0.6,0.8-1.6,1.1-2.2,2c-0.8,1.4-0.2,3.1,1.1,3.9
				c1.2,0.7,2.5,0.5,3.8,0.3c5.4-0.7,10.8-1.9,16-3.7c2.5-0.9,5-1.9,7.4-3c1.3-0.6,2.5-1.2,3.3-2.4c0.8-1.2,0.9-2.9,0.8-4.3
				c-0.5-4.9-2.7-11.6-8.2-12.7c-3.1-0.6-5.9,1.8-8.3,3.5c-2.5,1.7-5,3.5-7.4,5.4c-2.4,1.9-4.2,4-6.1,6.4c-1,1.2-2,2.4-2.9,3.8
				c-0.9,1.3-1.3,2.8-1.7,4.3c1.6,0.2,3.3,0.4,4.9,0.7c-0.1-0.7-0.2-1.3-0.5-2c-0.1-0.2-0.3-0.5-0.4-0.8c-0.1-0.6,0.4-1.4,0.7-1.8
				c1.2-1.7,3.1-2.9,4.8-4c3.9-2.6,7.5-5.4,11-8.4c1.6-1.4,3.3-3,3.7-5.2c0.4-2.6-1.5-4.9-4.1-4.7c-2.2,0.2-4.4,1.9-6,3.3
				c-1.6,1.3-3,2.8-4.5,4.1c-1.9,1.6-4,3-5.9,4.7c-1.6,1.6-2.9,3.6-4.8,4.8C254.3,316.8,256.8,321.1,259.5,319.4L259.5,319.4z"/>
		</g>
	</g>
	<path class="st7" d="M241.6,232.1c17.3,24.4,11.5,53.3,11.5,53.3s36.9,11.4,39.7,24.7"/>
	<g>
		<g>
			<path class="st10" d="M212.8,272.8c1.7,0,3.2-0.4,4.8-0.7c0.8-0.2,2.2-0.6,2.9,0c1.8,1.4,4,0.5,4.3-1.8c0.2-1.3-0.2-2.6-0.8-3.7
				c-1.4-2.5-5.2-0.8-4.6,1.9c0.6,2.3,0.9,4.9,2.1,6.8c0.6,0.9,1.3,1.7,2,2.7c0.6,0.9,1.2,1.9,1.7,2.8c2.4,4.2,5.3,7.7,8.5,11.2
				c3.2,3.5,6.6,6.9,9.5,10.6c2.4,3.2,4.2,6.9,5.3,10.7c1.4,4.6,1.9,9.3,1.8,14c0,1.4,1.2,2.5,2.5,2.5c1.5,0,2.3-1.2,2.5-2.5
				c0.3-3-1.1-5.7-1.4-8.7c-0.1-1.6-0.1-3.2-0.4-4.8c-0.3-1.6-0.9-3.1-1.4-4.6c-0.5-1.5-0.9-3-1.5-4.4c-0.6-1.5-1.3-2.6-2.3-3.8
				c-0.2-0.3-0.5-0.6-0.6-0.9c-0.1-0.8,0.1-1.5-0.1-2.3c-0.4-1.6-1.9-2.8-3.6-2.8c-3.2,0-3.2,5,0,5c0,0-0.1,0-0.1,0
				c-0.4-0.2-0.7-0.4-1.1-0.6c0.6,0.4-0.1-0.3,0-0.3c0,0,0,1,0,1.1c0,0.7,0.2,1.3,0.4,1.9c0.5,1.1,1.3,1.9,2,2.9
				c0.7,0.9,1,2,1.3,3.1c0.4,1.4,0.9,2.7,1.3,4.1c0.4,1.1,0.8,2.3,0.9,3.5c0.1,1.3,0,2.6,0.2,3.8c0.3,2.6,1.6,5.1,1.3,7.8
				c1.7,0,3.3,0,5,0c0.1-8.6-1.6-17.5-6.2-24.9c-5-8-13.2-13.7-18.2-21.7c-1.3-2.1-2.4-4.4-3.9-6.4c-0.8-1.1-1.5-1.9-1.9-3.2
				c-0.3-1.3-0.6-2.7-1-4c-1.5,0.6-3,1.3-4.6,1.9c0.2,0.4,0.2,0.7,0.1,1.2c1.4-0.6,2.8-1.2,4.3-1.8c-1.6-1.3-3.4-1.8-5.5-1.7
				c-2,0.2-3.8,1-5.8,0.9C209.6,267.7,209.6,272.7,212.8,272.8L212.8,272.8z"/>
		</g>
	</g>
	<g>
		<g>
			<path class="st9" d="M221.6,264.7c2.9,9.1,8.2,17.2,14.7,24.2c1.6,1.7,3.3,3.4,5.1,4.9c1.8,1.6,3.8,3.2,5.3,5.2
				c2.9,3.8,4.6,8.8,5.8,13.4c1.5,5.6,2,11.4,1.7,17.3c-0.2,3.2,4.8,3.2,5,0c0.6-10.4-1.4-21.7-6.5-30.8c-2.5-4.5-6.5-7.4-10.1-10.9
				c-3.3-3.2-6.4-6.7-9-10.5c-3-4.4-5.4-9-7-14.1C225.5,260.3,220.6,261.6,221.6,264.7L221.6,264.7z"/>
		</g>
	</g>
	<line class="st7" x1="208.1" y1="266.8" x2="251.4" y2="257.9"/>
	<g>
		<g>
			<path class="st10" d="M212.4,276.2c0.6,0.4,1.1,0.8,1.7,1.2c1.1,0.8,2.8,0.2,3.4-0.9c0.7-1.3,0.2-2.6-0.9-3.4
				c-0.4-0.3-0.9-0.6-1.3-1c-0.2,1.5-0.4,3-0.6,4.6c1.4-0.4,2.8-0.6,4.3-0.8c-0.4-1.6-0.8-3.1-1.3-4.7c-1.6,1.1-3.2,2.1-4.9,2.9
				c-1.4,0.7-1.6,2.9-0.5,3.9c1.3,1.2,2.9,1.6,4.6,1.3c1.5-0.2,2.7-1.1,4.1-1.4c-0.9-1.2-1.9-2.4-2.8-3.7c-0.8,1.2-2.2,2.1-3.6,2.2
				c-1.2,0.1-2.3,0.9-2.5,2.2c-0.1,1.1,0.5,2.6,1.8,2.7c3.5,0.5,7.1,0.7,9.8-1.9c-1.2-1.2-2.4-2.4-3.5-3.5c-1.2,1.6-2.7,3.7-4.9,3.6
				c-1.3-0.1-2.5,1.2-2.5,2.5c0,1.5,1.1,2.4,2.5,2.5c3.5,0.3,6.8-0.9,9.5-3.1c-1.4-0.8-2.8-1.6-4.2-2.4c-0.2,1-0.4,2-0.9,3
				c-0.1,0.3-0.6,0.7-0.6,1c0,0.1,0.9,0.1,1.1,0.5c-1.3,1-2.6,2-3.9,3c0.7,0.9,0.5,2.8,0.8,3.8c0.4,1.6,1.4,3.1,2.9,3.9
				c1.6,0.8,3.8-0.2,3.8-2.2c-0.1-3.1,0.8-6,2.5-8.6c-1.4,0-2.9,0-4.3,0c1,1.4,1.9,3,2.5,4.6c1.4-0.8,2.8-1.6,4.2-2.4
				c-0.5-0.6-1-1.4-1.4-2.1c-1.1,1.1-2.3,2.3-3.4,3.4c1.5,0.7,2.9,1.6,3.9,3c1.1,1.4,1.9,2.9,3.1,4.2c1.2,1.3,2.7,2.2,4,3.2
				c1.3,1,2.1,2.2,3,3.6c0.9,1.4,1.8,2.8,3,3.9c1.4,1.2,2.4,2,3.2,3.7c1.5,3.4,2.4,7,3,10.6c1.2-0.9,2.4-1.9,3.7-2.8
				c-2.6-1.8-3.9-5-5-7.8c-1.5-3.7-3.1-7.3-5.3-10.6c-2.2-3.3-4.7-6.4-7.6-9.1c-1.6-1.5-3.3-3.3-5.7-3.3c-2.1-0.1-3.9,1.3-5,3
				c-1.1,1.7-1.3,3.8-3,5.1c-2,1.6-4.2,2.9-6.4,4.3c-2.7,1.7-0.2,6,2.5,4.3c1.8-1.1,3.6-2.3,5.4-3.6c1.6-1.1,3.2-2.3,4.2-4.1
				c0.6-1.1,1-3.5,2.2-4c-0.1,0-0.3-0.1-0.1,0c0.4,0.2,0.7,0.5,1,0.7c0.7,0.6,1.4,1.3,2.1,2c2.6,2.6,4.8,5.4,6.7,8.5
				c1.8,3,3.2,6.1,4.5,9.4c1.5,3.8,3.4,7.3,6.8,9.6c2,1.3,4-0.9,3.7-2.8c-0.7-4-1.8-8.1-3.5-11.8c-0.8-1.7-1.9-3-3.3-4.2
				c-1.3-1.1-2.2-2.2-3.1-3.7c-1-1.5-2-3-3.4-4.2c-1.4-1.1-3-2.1-4.2-3.4c-1.2-1.3-2-3-3.2-4.3c-1.3-1.5-3-2.8-4.8-3.6
				c-2.2-1-4.7,1.1-3.4,3.4c0.6,1.1,1.4,2.1,2.2,3.1c1.5,1.9,5.1-0.1,4.2-2.4c-0.8-2-1.8-3.9-3-5.8c-1.1-1.6-3.3-1.6-4.3,0
				c-2.2,3.3-3.2,7.2-3.2,11.1c1.3-0.7,2.5-1.4,3.8-2.2c-0.8-0.4-0.8-1.9-0.9-2.7c-0.2-1.6-0.7-3-1.8-4.2c-1.9-2.3-5.1,0.6-3.9,3
				c1.2,2.4,4.3,2.5,6.2,1c1.9-1.5,2.9-4.3,3.2-6.6c0.4-2.5-2.2-4.1-4.2-2.4c-1.7,1.4-3.8,1.8-5.9,1.6c0,1.7,0,3.3,0,5
				c3.7,0.3,6.4-2.3,8.5-5c0.8-1.1,1-2.5,0-3.5c-1-1-2.6-0.9-3.5,0c-1.2,1.2-3.4,0.9-5,0.7c-0.2,1.6-0.4,3.3-0.7,4.9
				c3.3-0.3,6.1-1.9,7.9-4.7c1.2-1.9-0.8-4.1-2.8-3.7c-0.4,0.1-3.6,1.6-3.8,1.4c-0.2,1.3-0.3,2.6-0.5,3.9c1.7-0.9,3.3-1.8,4.9-2.9
				c0.9-0.6,1.5-1.7,1.1-2.8c-0.3-1-1.3-1.9-2.4-1.8c-1.9,0.2-3.8,0.5-5.6,1c-2.3,0.6-2.2,3.4-0.6,4.6c0.4,0.3,0.9,0.6,1.3,1
				c0.8-1.4,1.7-2.9,2.5-4.3c-0.6-0.4-1.1-0.8-1.7-1.2c-1.1-0.8-2.8-0.2-3.4,0.9C210.8,274.1,211.3,275.5,212.4,276.2L212.4,276.2z"
				/>
		</g>
	</g>
	<g>
		<g>
			<path class="st10" d="M224,291.4c1.1,1.9,2.3,3.8,3.4,5.7c1.1,1.9,2.3,3.2,4.2,4.3c2.8,1.6,4.9,4.2,5.9,7.3
				c1.2-0.9,2.4-1.9,3.7-2.8c-2.7-1.9-4.6-4.7-6-7.7c-1.2-2.7-1.9-9.5-6.5-7.3c-1.9,0.9-3.6,2.1-5.4,3.2c-1.8,1.1-3.7,2.2-5.3,3.5
				c-1.5,1.2-3,2.3-4.8,3.3c-1.8,1-3.5,2-5.1,3.3c-3.4,2.8-6.9,6.1-9,10c-1.5,2.8,2.8,5.4,4.3,2.5c1.3-2.5,3.3-4.4,5.3-6.3
				c1-1,2.1-2,3.2-2.9c1.2-0.9,2.5-1.5,3.8-2.2c2.7-1.4,4.8-3.5,7.3-5.1c1.3-0.8,2.7-1.6,4-2.4c0.7-0.4,1.4-0.8,2.1-1.2
				c0.3-0.2,0.7-0.4,1-0.6c0.1-0.1,1-0.5,0.7-0.4c-0.4,0-0.9,0-1.3,0c0.1,0,0.2,0,0.2,0.1c-0.4-0.2-0.7-0.4-1.1-0.6
				c-0.2-0.2-0.1-0.1,0,0.2c0.1,0.4,0.2,0.7,0.3,1.1c0.2,0.7,0.5,1.5,0.8,2.2c0.6,1.6,1.3,3.1,2.2,4.6c1.7,2.9,3.9,5.3,6.6,7.3
				c1.8,1.3,4.3-0.8,3.7-2.8c-1.2-3.7-3.4-6.9-6.6-9.2c-0.7-0.5-1.6-0.9-2.3-1.4c-0.7-0.5-1.1-1.1-1.5-1.9c-1.2-2-2.4-4-3.5-5.9
				C226.7,286.1,222.4,288.6,224,291.4L224,291.4z"/>
		</g>
	</g>
	<g>
		<g>
			<path class="st10" d="M229.4,294.8c-4.6,2.7-9.1,5.7-13.8,8.2c-2.2,1.2-4.4,1.8-6.7,2.8c-2.6,1.1-4.3,2.9-4.6,5.7
				c-0.2,1.8,2.3,3.2,3.8,2.2c4.1-2.9,8.5-4.2,13.3-5.3c4.5-1,9.2-2.1,13.1-4.9c1.1-0.8,1.6-2.2,0.9-3.4c-0.6-1.1-2.3-1.7-3.4-0.9
				c-2.1,1.5-4.1,3.2-5.9,5.1c-0.8,0.8-1,2.1-0.4,3c0.6,1,1.7,1.3,2.8,1.1c1.2-0.2,2.4-0.3,3.6-0.2c1.3,0.2,2.6,0.9,3.8,1.5
				c1.2,0.7,2.4,1.4,3.6,2.2c0.4,0.3,2,1.1,2,1.6c1.1-0.8,2.1-1.6,3.2-2.4c-4.5-1.4-9.1-2.9-13.8-3.8c-4.8-0.9-9.7-1-14.6-0.4
				c-4.8,0.6-9.5,1.7-14.2,2.9c-2.1,0.5-4.1,1.5-4.7,3.7c-0.3,0.9-0.2,1.7-0.7,2.6c-0.5,1-1.1,1.9-1.6,2.9c-1.1,2.2-1.9,4.6-2.2,7.1
				c-0.4,2.9,1.6,5.8,4.8,5c1-0.3,1.9-1.3,1.8-2.4c-0.1-1.7-0.3-3.5-0.4-5.2c-0.1-1.5,0.1-2,1.4-2.8c2.9-1.7,6-3.1,9.2-4.2
				c-0.9-1.2-1.9-2.4-2.8-3.7c-1,1.6-1.9,3.2-2.9,4.8c1.4,0.8,2.9,1.7,4.3,2.5c0.4-0.9,1.3-1.2,2.2-1.6c1.5-0.7,3.1-1.2,4.7-1.7
				c3.1-1.1,6.4-2,9.6-2.7c1.3-0.3,2.1-1.8,1.7-3.1c-0.4-1.4-1.7-2-3.1-1.7c-3,0.6-6.1,0.8-9.2,0.7c-2.7-0.1-5.5-0.1-7.8,1.5
				c-1.9,1.4-1.4,4.7,1.3,4.7c5.3-0.1,10.5-0.1,15.8-0.2c5-0.1,10-0.3,15,0c1.1,0.1,2.1,0.2,3.2,0.4c0.8,0.1,2.3,0.2,3,0.8
				c0.2,0.2,0.5,0.8,0.6,1.1c0.3,0.5,0.6,1.1,0.8,1.6c0.5,1,1,2,1.4,3.1c0.3,0.9,0.5,1.9,0.9,2.7c0,0.3,0,0.4,0,0.3
				c0.1-0.3,0.3-0.5,0.7-0.5c0,0.2-0.7-0.5-0.5-0.3c-0.7-0.7-1.1-1.9-1.5-2.8c-0.6-1.1-1.2-2.3-1.8-3.4c-0.9,1.2-1.9,2.4-2.8,3.7
				c1.2,0.4,2.2,1,3.3,1.7c2.4,1.6,5-2,3-3.9c-3.4-3.3-7.6-5.7-12.1-6.8c-5.1-1.2-10.3-0.8-15.5-1.2c-2.6-0.2-5.2-0.7-7.8-0.5
				c-2.6,0.1-5.1,0.8-7.6,1.6c-2.2,0.8-4.7,1.7-6.3,3.5c-0.8,0.9-1.2,1.9-1.8,2.9c-0.5,1-1.2,1.8-1.9,2.7c-1.7,2.2-2.6,4.6-3.1,7.3
				c-0.5,2.7-0.6,5.2,1.2,7.5c0.9,1,2.6,0.9,3.5,0c1-1,0.9-2.5,0-3.5c-0.6-0.8,0.1-3,0.3-3.9c0.4-1.9,1.2-3.4,2.4-4.9
				c0.6-0.8,1.3-1.6,1.8-2.5c0.4-0.7,0.7-1.5,1.2-2.2c1.1-1.3,3.5-1.9,5-2.4c2-0.6,4-1.1,6.1-1.1c2.1,0,4.2,0.4,6.4,0.5
				c4.3,0.4,8.8,0,13.1,0.7c4.4,0.7,8.3,2.7,11.5,5.8c1-1.3,2-2.6,3-3.9c-1.4-0.9-2.9-1.6-4.4-2.2c-2.2-0.8-3.8,1.9-2.8,3.7
				c1.8,3.5,4.2,10.5,9.4,8.8c5.4-1.8,2-8.8,0.4-12.1c-0.9-1.9-1.9-4.4-3.9-5.4c-2.2-1.1-4.9-1.3-7.2-1.6c-4.9-0.5-9.8-0.2-14.7-0.1
				c-5.7,0.1-11.5,0.1-17.2,0.2c0.4,1.6,0.8,3.1,1.3,4.7c1.9-1.3,4.5-0.8,6.6-0.8c3.1,0,6.1-0.3,9.1-0.9c-0.4-1.6-0.9-3.2-1.3-4.8
				c-3.7,0.8-7.4,1.9-11,3.1c-3,1.1-7,2.1-8.5,5.2c-1.4,2.9,2.7,5.3,4.3,2.5c1-1.6,1.9-3.2,2.9-4.8c1.1-1.8-0.7-4.4-2.8-3.7
				c-3.9,1.3-8.1,2.9-11.4,5.3c-1.9,1.3-2.8,3.2-2.9,5.5c-0.1,2.1,0.2,4.2,0.4,6.2c0.6-0.8,1.2-1.6,1.8-2.4c0.8,0.9,1.3,1.1,1.4,0.6
				c0-0.2,0-0.4,0.1-0.5c0.1-0.6,0.2-1.1,0.4-1.7c0.3-1.1,0.6-2.1,1.1-3.1c1-2.1,2.5-4.1,2.7-6.5c0.1-1,0-0.1,0-0.1
				c0.3-0.2,0.7-0.2,1-0.3c1.2-0.3,2.5-0.6,3.7-0.9c2.4-0.6,4.8-1.1,7.3-1.5c4.8-0.8,9.7-1.1,14.5-0.3c5,0.8,9.9,2.4,14.7,3.9
				c1.5,0.5,3.2-0.8,3.2-2.4c-0.2-4-4.6-6.2-7.7-7.9c-1.7-1-3.5-1.9-5.4-2.3c-2.1-0.4-4.2-0.1-6.3,0.2c0.8,1.4,1.6,2.8,2.4,4.2
				c1.5-1.6,3.2-3,4.9-4.3c-0.8-1.4-1.7-2.9-2.5-4.3c-3.7,2.7-8.2,3.6-12.7,4.6c-4.9,1.1-9.5,2.7-13.7,5.6c1.3,0.7,2.5,1.4,3.8,2.2
				c0.1-1.1,3.4-1.7,4.2-2c2.2-0.8,4.2-1.8,6.2-3c4.1-2.3,8.1-4.8,12.2-7.3C234.7,297.4,232.2,293.1,229.4,294.8L229.4,294.8z"/>
		</g>
	</g>
	<g>
		<g>
			<path class="st10" d="M219.8,328.8c-6.6-0.2-12.2,3.7-18.5,4.8c1.1,0.8,2.1,1.6,3.2,2.4c-0.5-3.6,0.9-7,3.6-9.4
				c2.7-2.4,6.1-2.2,9.5-2.7c6.9-1,15.4-2.5,21.3,2.3c0.6-1.4,1.2-2.8,1.8-4.3c-0.2,0-0.5,0.2-0.4,0.1c0.1-0.1-0.1-0.1,0.1,0
				c0.7,0.4,1,1.1,0.9,1.5c-0.1,0.5-0.2,0.6-0.5,1c-0.4,0.6-1.1,0.8-1.9,0.5c-0.3-0.1-0.5-0.3-0.8-0.4c-0.3-0.1-0.1-0.4,0,0
				c0-0.1,0.2,0.6,0.2,0.5c0.6-1,1.2-2.1,1.7-3.1c-4.2,0.9-8.4,0.4-12.6,0c-2-0.2-4-0.4-6-0.5c-1.3-0.1-2.8-0.3-4.1-0.3
				c-2.9,0-5.9,0.6-8.4,2.2c-2.9,1.8-4.7,4.6-5.8,7.8c-0.8,2.5,2.4,4,4.2,2.4c1.3-1.2,2.3-4.2,1.4-5.9c-0.4-0.8-1.3-1.2-2.2-1.2
				c-2.4-0.1-2.9,2.9-3.4,4.7c-0.7,2.5,2.4,4,4.2,2.4c4.5-4,10.2-5.5,16.1-5.4c1.3,0,3-0.1,4.2,0.3c0.3,0.1,0.6,0.5,0.8,0.8
				c0.2,0.6,0.2,1.1-0.1,1.9c0.1-0.3-0.2,0.3-0.2,0.3c-0.3,0.5,0.2-0.1-0.3,0.3c-0.4,0.4-0.5,0.4-1.1,0.7c-1.2,0.6-1.5,2.3-0.9,3.4
				c0.7,1.3,2.2,1.5,3.4,0.9c2.8-1.3,4.5-4.4,4.2-7.5c-0.2-1.6-0.8-3.2-2.1-4.3c-1.5-1.3-3.3-1.6-5.2-1.7
				c-8.2-0.7-16.2,1.2-22.4,6.8c1.4,0.8,2.8,1.6,4.2,2.4c0.2-0.7,0.4-1.3,0.6-2c0.1-0.2,0.2-0.3,0.2-0.5c0,0.3-0.2,0.5-0.4,0.7
				c-0.6,0.2-1.2,0.5-1.8,0.7c0,0,0,0,0,0c-0.7-0.4-1.4-0.8-2.2-1.2c0,0,0,0,0,0c-0.1-0.4-0.2-0.8-0.3-1.3c0,0.3,0.2-0.7,0-0.1
				c-0.1,0.2-0.1,0.5-0.2,0.7c0,0.2-0.3,0.8-0.2,0.5c0.2-0.4,0,0-0.1,0.1c-0.3,0.4,0.4-0.4,0.1-0.1c1.4,0.8,2.8,1.6,4.2,2.4
				c0.8-2.5,2.3-4.3,4.5-5.4c1.9-0.9,4.2-1,6.6-0.9c1.3,0.1,2.9,0.2,4.5,0.3c1.9,0.1,3.8,0.4,5.7,0.6c4.1,0.4,8.1,0.6,12.2-0.4
				c1.3-0.3,2.2-1.8,1.7-3.1c-0.5-1.4-1.2-3-2.8-3.5c-1.4-0.4-2.8,0.2-3.5,1.4c-1.6,2.7,1.1,5.6,3.9,5.2c1-0.1,1.9-0.5,2.3-1.5
				c0.3-0.9,0.3-2.1-0.5-2.7c-5.9-4.8-13.2-5.2-20.5-4.3c-3.3,0.4-6.7,0.9-10,1.3c-3.4,0.4-6.6,2.3-8.8,4.9
				c-2.7,3.2-4.2,7.3-3.7,11.5c0.2,1.7,1.4,2.7,3.2,2.4c5.8-1,11.2-4.8,17.2-4.6C223.1,333.9,223.1,328.9,219.8,328.8L219.8,328.8z"
				/>
		</g>
	</g>
	<g>
		<g>
			<path class="st10" d="M217.1,333.4c-3,0.6-5.9,1.4-8.8,2.2c-1.4,0.4-2.8,0.7-4.2,1.1c-0.8,0.2-1.6,0.4-2.4,0.5
				c-0.3,0.1-0.6,0.1-0.9,0.2c-0.3,0.1-0.6,0.1-0.9,0.2c0.3,0.1,0.5,0.1,0.8,0.2c-0.5-0.3,0.9,0.7,0.6,0.8c0,0,0,0.1,0,0.1
				c0-0.2,0-0.3,0-0.5c0-0.2,0-0.3,0-0.5c0,0.4,0,0,0,0c0.2-1.3,0.3-1.6,0.7-2.8c0.7-2.1,1.3-4.3,2.2-6.2c0.9-2,2.2-3.9,3.9-5.3
				c1.9-1.5,4.9-2.2,7.3-2.6c5.3-0.9,10.8,0,15.9,0.9c2.3,0.4,4.6,0.9,6.9,1.6c0.2,0.1,0.4,0.1,0.6,0.2c0.1,0,0.2,0.1,0.3,0.1
				c-0.2-0.1-0.2-0.1,0,0c0.2,0.1,0.4,0.2,0.5,0.3c0.4,0.3-0.1-0.2,0.2,0.2c0.1,0.1,0.3,0.4,0.3,0.4c0.2,0.5,0.3,1,0.3,1.6
				c0.6-0.8,1.2-1.6,1.8-2.4c-5.8,1.9-11.8,3.8-17.9,4.3c-1.3,0.1-2.5,1.1-2.5,2.5c0,1.3,1.1,2.6,2.5,2.5c6.6-0.5,13-2.4,19.3-4.4
				c1-0.3,1.9-1.3,1.8-2.4c-0.1-2.7-1.1-5.2-3.5-6.6c-1.8-1.1-4.2-1.6-6.2-2c-6.5-1.3-13.2-2.6-19.8-1.8c-3.4,0.4-6.9,1.3-9.9,3
				c-2.4,1.4-4.4,4-5.7,6.5c-1.4,2.5-2.2,5.3-3.1,8c-0.2,0.7-0.5,1.4-0.7,2.1c-0.1,0.3-0.1,0.7-0.2,1c-0.1,0.6,0.1-0.6,0,0.1
				c-0.2,1.2-0.4,2.4,0,3.6c0.5,1.5,1.9,2.6,3.5,2.6c2.1-0.1,4.3-0.8,6.3-1.3c4-1,8-2.1,12.1-3c1.3-0.3,2.1-1.8,1.7-3.1
				C219.8,333.8,218.5,333.1,217.1,333.4L217.1,333.4z"/>
		</g>
	</g>
	<g>
		<g>
			<path class="st10" d="M199.4,339.5c-0.3-0.6-0.2,0.2-0.1-0.6c-1.4,0.6-2.8,1.2-4.3,1.8c0.3,0.3,0.2,0.5,0,0.9c1.6,0,3.2,0,4.8,0
				c-2.9-8.3,4-15.9,9-21.9c-0.4,0.2-0.7,0.4-1.1,0.6c4.5-1,9.1-1.5,13.7-1.7c2.3-0.1,4.6-0.1,6.9-0.2c2,0,4.2-0.2,6.1,0.1
				c5.8,1,8.8,8,12.8,12c0.4-1.4,0.7-2.8,1.1-4.2c-0.4,0.1-0.8,0.1-1.2,0.2c-0.2,0-1.2,0.1-0.6,0c-0.1,0-0.3,0-0.3-0.1
				c0.4,0.2,0.1,0,0.4,0.2c0.9,0.8,0.9,2.1,0.2,2.9c0,0-0.5,0.4-0.3,0.2c0,0-0.6,0.2-0.3,0.1c0.4-0.1-0.4,0-0.2,0
				c0.1,0,0.4,0.1,0.1,0c-0.5-0.2,0.8,0.3,0.3,0.1c0.3,0.1,0.7,0.4,0.9,0.5c0.4-1.4,0.7-2.8,1.1-4.2c-7,1.4-14.1,2.6-20.9,4.7
				c-3.1,1-1.8,5.8,1.3,4.8c6.8-2.1,13.9-3.3,20.9-4.7c1.7-0.3,2.5-3,1.1-4.2c-2.1-1.7-6.4-3.4-8.2-0.2c-0.9,1.6-0.1,3.3,1.4,4.2
				c1.7,0.9,3.9,0.6,5.7,0.2c1.9-0.4,2.4-2.9,1.1-4.2c-3-3-5.1-6.8-8.3-9.7c-1.7-1.5-3.6-2.7-5.8-3.3c-2.7-0.8-5.6-0.5-8.3-0.5
				c-6.4,0-12.8,0.4-19.1,1.5c-1.5,0.3-3.2,0.4-4.3,1.6c-0.8,0.9-1.5,1.8-2.3,2.8c-1.6,2-3.2,4.1-4.6,6.3
				c-3.2,5.2-5.1,11.3-3.1,17.3c0.8,2.4,3.9,2.3,4.8,0c0.8-2.1,0.2-4.2-1.3-5.8c-1.5-1.7-4.2-0.3-4.3,1.8c0,1.1,0.3,2.1,0.8,3.1
				C196.6,344.9,200.9,342.4,199.4,339.5L199.4,339.5z"/>
		</g>
	</g>
	<path class="st7" d="M207.1,239c-6.3,29.3,10.5,53.5,10.5,53.5s-29.4,25-26.8,38.4"/>
	<line class="st7" x1="202.8" y1="395.5" x2="190.9" y2="330.9"/>
	<line class="st11" x1="214.6" y1="340.9" x2="230.6" y2="337.3"/>
	<g>
		<g>
			<path class="st10" d="M216.7,330.8c2.7,0,5.3-0.4,7.9-1c-1-1-2.1-2.1-3.1-3.1c-0.1,0.5,0.3-0.5,0-0.1c0,0,0.4-0.4,0.1-0.2
				c-0.1,0.1-0.2,0.2-0.3,0.2c-0.2,0.3,0.5-0.4,0.1-0.1c-0.6,0.4-1.1,0.8-1.6,1.3c-1.1,1.1-1.8,2.8-1.7,4.4c0.1,1.2,0.6,2.2,1.6,2.8
				c0.9,0.5,1.8,0.4,2.8,0.4c0.3,0,0.6,0,0.9,0c0.1,0,0.2,0,0.4,0c0.6,0-0.5-0.1,0.1,0c0.3,0.1,0.5,0.1,0.8,0.2
				c0.1,0,0.3,0.1,0.4,0.1c-0.5-0.4-0.1,0,0,0.1c0.1,0,0.1,0.1,0.2,0.1c-1-0.7-1-1.8,0.1-3.3c0,0,0.6-0.3,0.2-0.1
				c-0.1,0-0.1,0-0.2,0c0.3,0,0.4-0.1,0.2,0c-0.2,0-0.3,0-0.5,0c-0.7,0-1.4-0.2-2.1-0.2c-1.5,0-3,0.3-4.4,0.8
				c-0.7,0.3-1.4,0.6-2.2,0.9c-0.7,0.3-1.5,0.6-2.1,1.2c-1.2,1.2-1.1,3.3,0.4,4.3c1,0.6,2,0.4,3.1,0.2c3.2-0.6,6.3-1.4,9.4-2.2
				c1.3-0.3,2.2-1.8,1.7-3.1c-0.4-1.3-1.7-2.1-3.1-1.7c-1.7,0.4-3.4,0.9-5.1,1.3c-0.9,0.2-1.7,0.4-2.6,0.6c-0.4,0.1-0.8,0.2-1.2,0.2
				c-0.2,0-0.4,0.1-0.6,0.1c-0.1,0-0.3,0.1-0.4,0.1c-0.3,0.1-0.3,0.1,0.2,0c0.4,0.1,0.8,0.2,1.3,0.3c0,0-0.1,0-0.1-0.1
				c0.4,0.5,0.8,1,1.1,1.5c0,0,0-0.1,0-0.1c0,0.4,0,0.9,0,1.3c-0.1,0.2-0.3,0.4-0.4,0.6c-0.5,0.5-0.6,0.7-0.2,0.5
				c0.1,0,0.2-0.1,0.3-0.1c0.2-0.1,0.4-0.2,0.6-0.3c0.2-0.1,0.4-0.2,0.6-0.3c0.3-0.1-0.1,0-0.1,0.1c0.1-0.1,0.2-0.1,0.4-0.1
				c0.9-0.4,1.8-0.6,2.7-0.8c0.3-0.1-0.2,0-0.2,0c0,0,0.3,0,0.4,0c0.2,0,0.5,0,0.7,0c0.5,0,0.9,0.1,1.4,0.1c1.2,0.1,2.5,0.1,3.5-0.6
				c1.6-1.1,1.9-3.3,0.5-4.7c-0.7-0.8-1.9-1.2-3-1.5c-1-0.2-2.1-0.3-3.1-0.3c-0.2,0-0.4,0-0.6,0c-1.1,0.1,0.9,0.4,1.2,1.1
				c0,0.1,0.2,0.4,0.1,0.5c0-0.1,0-0.2,0-0.3c0-0.1,0-0.5,0-0.1c0,0.4,0,0,0-0.1c0-0.1,0.2-0.4,0-0.1c-0.1,0.3,0,0,0.1-0.1
				c0-0.1,0.3-0.4,0-0.1c-0.2,0.3,0,0,0.1-0.1c0.1-0.1,0.2-0.1,0.2-0.2c0.2-0.2-0.4,0.3-0.2,0.1c0.2-0.1,0.3-0.2,0.5-0.3
				c1.1-0.8,2-1.6,2.3-2.9c0.5-1.9-1.2-3.5-3.1-3.1c-0.6,0.1-1.2,0.3-1.7,0.4c-0.3,0.1-0.5,0.1-0.8,0.1c-0.1,0-0.3,0-0.4,0.1
				c-0.1,0-0.6,0.2-0.1,0c-0.5,0.1-1.1,0.1-1.7,0.2c-0.6,0-1.3,0.1-1.9,0.1c-1.3,0-2.6,1.1-2.5,2.5
				C214.3,329.7,215.3,330.9,216.7,330.8L216.7,330.8z"/>
		</g>
	</g>
	<path class="st7" d="M193.8,346.8c7.1-1.4,13.7-4.3,20.8-5.8"/>
	<path class="st7" d="M230.6,337.3C252,332,273,326,293.8,320.9"/>
	<path class="st12" d="M371.1,238.8c-2.6,0.5-5.2,1.1-7.9,1.6c-1.3,0.3-2.6,0.5-3.8,1c-0.7,0.2-1.4,0.5-2.1,0.8
		c-2,0.9-4,1.7-6.1,2.3c-2.1,0.6-4.3,0.8-6.4,0.5"/>
	<g>
		<g>
			<path class="st13" d="M361.2,261.6c5.2,0,10.2-4.6,10-10c-0.2-5.4-4.4-10-10-10c-5.2,0-10.2,4.6-10,10
				C351.4,257,355.6,261.6,361.2,261.6L361.2,261.6z"/>
		</g>
	</g>
	<g>
		<g>
			<path class="st13" d="M361.2,261.5c5.2,0,10.2-4.6,10-10c-0.2-5.4-4.4-10-10-10c-5.2,0-10.2,4.6-10,10
				C351.4,256.9,355.6,261.5,361.2,261.5L361.2,261.5z"/>
		</g>
	</g>
	<g>
		<g>
			<path class="st13" d="M358.7,262.5c5.2,0,10.2-4.6,10-10c-0.2-5.4-4.4-10-10-10c-5.2,0-10.2,4.6-10,10
				C349,257.9,353.1,262.5,358.7,262.5L358.7,262.5z"/>
		</g>
	</g>
	<g>
		<g>
			<path class="st13" d="M350.3,264.3c5.2,0,10.2-4.6,10-10c-0.2-5.4-4.4-10-10-10c-5.2,0-10.2,4.6-10,10
				C340.5,259.7,344.7,264.3,350.3,264.3L350.3,264.3z"/>
		</g>
	</g>
	<g>
		<g>
			<path class="st13" d="M365.1,259.3c5.2,0,10.2-4.6,10-10c-0.2-5.4-4.4-10-10-10c-5.2,0-10.2,4.6-10,10
				C355.3,254.7,359.5,259.3,365.1,259.3L365.1,259.3z"/>
		</g>
	</g>
	<g>
		<g>
			<path class="st13" d="M355.7,255.7c-0.8,0.9-1.6,1.8-2.1,2.9c-0.2,0.4-0.3,0.7-0.6,1c0.5-0.7,1-1.3,1.6-2
				c-0.1,0.2-0.3,0.3-0.4,0.4c0.7-0.5,1.3-1,2-1.6c-0.2,0.1-0.4,0.3-0.6,0.4c0.8-0.3,1.6-0.7,2.4-1c-0.3,0.1-0.7,0.2-1,0.3
				c0.9-0.1,1.8-0.2,2.7-0.4c-0.4,0-0.7,0-1.1,0c0.9,0.1,1.8,0.2,2.7,0.4c-0.8-0.1-1.6-0.4-2.4-0.7c0.8,0.3,1.6,0.7,2.4,1
				c-0.2-0.1-0.3-0.1-0.5-0.2c-1.1-0.7-2.4-1.1-3.7-1.2c-1.3-0.3-2.7-0.2-4,0.2c-1.3,0.3-2.4,0.9-3.4,1.8c-1.1,0.7-1.9,1.6-2.6,2.8
				c-0.3,0.8-0.7,1.6-1,2.4c-0.5,1.8-0.5,3.5,0,5.3c0.3,0.8,0.7,1.6,1,2.4c0.9,1.5,2.1,2.7,3.6,3.6c1.2,0.5,2.3,1,3.5,1.5
				c0.4,0.2,0.8,0.3,1.3,0.4c1.2,0.3,2.5,0.5,3.7,0.5c0.2,0,0.3,0,0.5,0c0.9-0.1,1.9-0.2,2.8-0.4c0.1,0,0.2,0,0.3-0.1
				c0.2,0,0.3-0.1,0.5-0.2c0.8-0.3,1.7-0.7,2.5-1c0.1,0,0.2-0.1,0.3-0.1c1-0.6,1.9-1.3,2.7-2.1c0.6-0.6,1.1-1.4,1.7-2.1
				c0.1-0.1,0.1-0.1,0.2-0.2c0.1-0.2,0.2-0.3,0.3-0.5c0.2-0.4,0.3-0.7,0.6-1c-0.5,0.7-1,1.3-1.6,2c0-0.1,0.1-0.1,0.1-0.2
				c1-0.9,1.7-2,2.1-3.2c0.6-1.2,0.9-2.5,0.9-3.9c0.1-1.4-0.2-2.7-0.9-3.9c-0.4-1.2-1.1-2.3-2.1-3.2c-0.7-0.5-1.3-1-2-1.6
				c-1.6-0.9-3.2-1.4-5-1.4c-0.9,0.1-1.8,0.2-2.7,0.4C358.4,253.6,356.9,254.4,355.7,255.7L355.7,255.7z"/>
		</g>
	</g>
	<g>
		<g>
			<path class="st13" d="M354.6,274.4c5.2,0,10.2-4.6,10-10c-0.2-5.4-4.4-10-10-10c-5.2,0-10.2,4.6-10,10
				C344.9,269.8,349,274.4,354.6,274.4L354.6,274.4z"/>
		</g>
	</g>
	<g>
		<g>
			<path class="st13" d="M352.7,273.5c5.2,0,10.2-4.6,10-10c-0.2-5.4-4.4-10-10-10c-5.2,0-10.2,4.6-10,10
				C342.9,268.9,347.1,273.5,352.7,273.5L352.7,273.5z"/>
		</g>
	</g>
	<g>
		<g>
			<path class="st13" d="M343.1,273.1C343.1,273.1,343.1,273.1,343.1,273.1c0.7,1.3,1.5,2.2,2.6,2.9c1,0.9,2.1,1.5,3.4,1.8
				c1.3,0.4,2.7,0.5,4,0.2c1.3-0.1,2.6-0.5,3.7-1.2c0.7-0.5,1.3-1,2-1.6c1.2-1.2,2.1-2.7,2.6-4.4c0.1-0.9,0.2-1.8,0.4-2.7
				c0-1.8-0.5-3.5-1.4-5c0,0,0-0.1,0-0.1c-0.6-1.2-1.5-2.1-2.6-2.8c-1-0.9-2.1-1.5-3.4-1.8c-1.3-0.4-2.7-0.5-4-0.2
				c-1.3,0.1-2.6,0.5-3.7,1.2c-0.7,0.5-1.3,1-2,1.6c-1.2,1.2-2.1,2.7-2.6,4.4c-0.1,0.9-0.2,1.8-0.4,2.7
				C341.7,269.8,342.2,271.5,343.1,273.1L343.1,273.1z"/>
		</g>
	</g>
	<g>
		<g>
			<path class="st13" d="M361.3,285.9c3.3,0.8,6.6,1,9.9,1.5c-0.9-0.1-1.8-0.2-2.7-0.4c3.1,0.4,6,1.3,8.9,2.5
				c-0.8-0.3-1.6-0.7-2.4-1c3,1.3,6,2.5,8.9,3.8c2.8,1.2,5.5,2.6,7.9,4.4c-0.7-0.5-1.3-1-2-1.6c2.6,2.1,5.1,4.7,7.2,7.3
				c-0.5-0.7-1-1.3-1.6-2c0.4,0.5,0.7,1,1,1.6c-0.3-0.8-0.7-1.6-1-2.4c0.2,0.5,0.3,0.9,0.4,1.4c-0.1-0.9-0.2-1.8-0.4-2.7
				c0,0.1,0,0.3,0,0.4c0.1,2.6,1,5.2,2.9,7.1c1.7,1.7,4.6,3,7.1,2.9c2.6-0.1,5.3-1,7.1-2.9c1.8-1.9,3-4.4,2.9-7.1
				c-0.2-4.3-1.9-7.6-4.6-10.8c-1.3-1.5-2.7-2.9-4.1-4.3c-3.2-3.3-7-6-11.2-7.9c-4.4-2-8.9-3.9-13.3-5.7c-4.8-2-9.7-2.4-14.8-3.1
				c0.9,0.1,1.8,0.2,2.7,0.4c-1.2-0.2-2.4-0.4-3.6-0.6c-2.6-0.6-5.4-0.4-7.7,1c-2.1,1.2-4.1,3.6-4.6,6c-0.6,2.6-0.5,5.4,1,7.7
				C356.7,283.5,358.7,285.3,361.3,285.9L361.3,285.9z"/>
		</g>
	</g>
	<g>
		<g>
			<path class="st13" d="M397.7,304.8c0,3.7,0.9,7.4,1.4,11c-0.1-0.9-0.2-1.8-0.4-2.7c0.5,3.6,0.7,7.2,0.6,10.8
				c-0.1,3.6-0.8,7.1-0.4,10.7c0.3,2.7,0.9,5.1,2.9,7.1c1.7,1.7,4.6,3,7.1,2.9c2.6-0.1,5.3-1,7.1-2.9c1.7-1.8,3.2-4.5,2.9-7.1
				c-0.5-4.5,0.5-9,0.5-13.6c-0.1-5.3-1-10.5-1.8-15.7c0.1,0.9,0.2,1.8,0.4,2.7c-0.1-1.1-0.2-2.2-0.3-3.2c0-2.6-1.1-5.2-2.9-7.1
				c-1.7-1.7-4.6-3-7.1-2.9C402.3,295.1,397.6,299.2,397.7,304.8L397.7,304.8z"/>
		</g>
	</g>
	<g>
		<g>
			<path class="st13" d="M398.8,350.6c0,1.7,0,3.5-0.1,5.2c6.2-1.7,12.4-3.4,18.6-5c-0.1-0.2-0.3-0.4-0.4-0.7c0.3,0.8,0.7,1.6,1,2.4
				c-0.1-0.4-0.2-0.7-0.3-1.1c0.1,0.9,0.2,1.8,0.4,2.7c-0.1-0.8-0.1-1.6,0-2.4c-0.1,0.9-0.2,1.8-0.4,2.7c0.4-2.8,0.8-5.4,0.5-8.2
				c-0.3-1.9-0.8-3.7-1-5.5c0.1,0.9,0.2,1.8,0.4,2.7c-0.1-0.5-0.1-1.1,0-1.6c-0.1,0.9-0.2,1.8-0.4,2.7c0.1-0.4,0.1-0.8,0.3-1.1
				c-0.3,0.8-0.7,1.6-1,2.4c0.2-0.4,0.3-0.7,0.6-1c-0.5,0.7-1,1.3-1.6,2c1.5-1.9,2.8-3.4,3.4-5.8c0.7-2.3,0.6-4.7,0.1-7.1
				c-0.5-2.4-1.9-4.5-2.9-6.7c0.3,0.8,0.7,1.6,1,2.4c-0.2-0.5-0.4-1-0.4-1.6c0.1,0.9,0.2,1.8,0.4,2.7c-0.1-0.7,0-1.5,0.1-2.2
				c-0.1,0.9-0.2,1.8-0.4,2.7c0.4-2.5,0.9-4.9,0.9-7.4c0-1.8-0.2-3.6,0-5.4c-0.1,0.9-0.2,1.8-0.4,2.7c0-0.2,0.1-0.3,0.1-0.5
				c0.5-2.7,0.4-5.3-1-7.7c-1.2-2.1-3.6-4.1-6-4.6c-2.6-0.6-5.4-0.5-7.7,1c-2.1,1.3-4.1,3.4-4.6,6c-0.4,2.2-0.6,4.4-0.5,6.6
				c0.1,1.5,0.1,2.9-0.1,4.4c0.1-0.9,0.2-1.8,0.4-2.7c-0.5,3.4-1.1,6.5-0.4,9.9c0.5,2.4,1.9,4.5,2.9,6.7c-0.3-0.8-0.7-1.6-1-2.4
				c0.2,0.5,0.4,1,0.5,1.6c-0.1-0.9-0.2-1.8-0.4-2.7c0,0.3,0,0.5,0,0.8c0.1-0.9,0.2-1.8,0.4-2.7c0,0.3-0.1,0.5-0.2,0.8
				c0.3-0.8,0.7-1.6,1-2.4c-0.2,0.4-0.4,0.7-0.6,1c0.5-0.7,1-1.3,1.6-2c-1.5,2-2.6,3.4-3.4,5.8c-0.5,1.5-0.7,3.2-0.6,4.8
				c0.1,2.6,0.9,4.9,1.3,7.5c-0.1-0.9-0.2-1.8-0.4-2.7c0.1,0.9,0.1,1.8-0.1,2.8c0.1-0.9,0.2-1.8,0.4-2.7c-0.3,1.9-0.8,3.9-0.7,5.9
				c0.2,2.6,0.7,5.1,2.1,7.4c2.2,3.6,7,6,11.3,4.6c4.3-1.4,7.1-5.1,7.3-9.6c0.1-1.7,0.1-3.5,0.1-5.2c-0.1-2.6-1.1-5.2-2.9-7.1
				c-1.7-1.7-4.6-3-7.1-2.9C403.5,340.8,398.7,345,398.8,350.6L398.8,350.6z"/>
		</g>
	</g>
	<g>
		<g>
			<path class="st13" d="M398.4,362.6c0,0.2,0,0.3,0,0.5c6.5-0.9,13.1-1.8,19.6-2.7c-0.1-0.2-0.2-0.5-0.2-0.7
				c0.1,0.9,0.2,1.8,0.4,2.7c0-0.1,0-0.3,0-0.4c-0.1,0.9-0.2,1.8-0.4,2.7c0.3-1.8,1-3.4,1-5.3c0-3-1.2-6.5-3.5-8.5
				c-1.2-1.2-2.7-2.1-4.4-2.6c-1.8-0.5-3.5-0.5-5.3,0c-1.7,0.5-3.2,1.3-4.4,2.6c-1.2,1.2-2.1,2.7-2.6,4.4c-1.1,2.7-0.8,6.1-0.5,8.9
				c0.3,2.3,0.6,4.6,0.4,7c0.1-0.9,0.2-1.8,0.4-2.7c-0.3,2.5-0.9,4.9-1.2,7.4c-0.3,2.5,0.2,5,0.6,7.5c-0.1-0.9-0.2-1.8-0.4-2.7
				c0.1,1,0.1,1.9,0,2.9c0.1-0.9,0.2-1.8,0.4-2.7c-0.5,3.3-1.1,6.5-0.8,9.9c0.4,4.3,0.7,8.9,4.1,12c2.4-5.7,4.7-11.4,7.1-17.1
				c-3.8-0.3-7.6,1.8-9.8,4.7c-2.3,3-3.2,7.1-2.1,10.8c0.8,2.5,2.3,4.7,4.6,6c2.1,1.3,5.3,1.8,7.7,1c5-1.6,8.7-7,7-12.3
				c0-0.1-0.1-0.2-0.1-0.4c0.1,0.9,0.2,1.8,0.4,2.7c-0.1-0.2-0.1-0.5,0-0.7c-0.1,0.9-0.2,1.8-0.4,2.7c0-0.2,0.1-0.5,0.2-0.7
				c-0.3,0.8-0.7,1.6-1,2.4c0.1-0.1,0.1-0.2,0.2-0.3c-0.5,0.7-1,1.3-1.6,2c0.1-0.1,0.2-0.2,0.3-0.3c-0.7,0.5-1.3,1-2,1.6
				c0.2-0.2,0.4-0.3,0.6-0.4c-0.8,0.3-1.6,0.7-2.4,1c0.1,0,0.2-0.1,0.4-0.1c-0.9,0.1-1.8,0.2-2.7,0.4c0.2-0.1,0.5-0.1,0.7,0
				c1.6,0.1,3.7-0.6,5-1.4c1.9-1.1,3.3-2.8,4.1-4.8c1.5-3.5,0.9-8.3-2.1-10.9c-0.1-0.1-0.2-0.1-0.2-0.2c0.5,0.7,1,1.3,1.6,2
				c-0.1-0.2-0.2-0.3-0.3-0.5c0.3,0.8,0.7,1.6,1,2.4c-0.1-0.4-0.2-0.8-0.3-1.3c0.1,0.9,0.2,1.8,0.4,2.7c-0.3-2.6-0.6-5.2-0.3-7.8
				c-0.1,0.9-0.2,1.8-0.4,2.7c0.3-2,0.7-4,0.8-6c0.1-2-0.3-4-0.6-6c0.1,0.9,0.2,1.8,0.4,2.7c-0.2-1.2-0.1-2.4,0-3.7
				c-0.1,0.9-0.2,1.8-0.4,2.7c0.5-3.5,1.5-7,1.2-10.6c-0.2-2.9-0.9-5.7-0.6-8.6c-0.1,0.9-0.2,1.8-0.4,2.7c0.1-0.4,0.1-0.8,0.3-1.2
				c-5.6,1.5-11.1,2.9-16.7,4.4c0.1,0.1,0.2,0.1,0.2,0.2c-0.5-0.7-1-1.3-1.6-2c0.1,0.1,0.2,0.3,0.3,0.5c-0.3-0.8-0.7-1.6-1-2.4
				c0,0.1,0,0.2,0.1,0.3c-0.1-0.9-0.2-1.8-0.4-2.7c0,0.3,0,0.6,0,0.9c0.1-0.9,0.2-1.8,0.4-2.7c-0.6,2.8-1.5,5.7-0.4,8.6
				c0.9,2.4,2.2,4.7,4.6,6c2,1.1,4.1,1.5,6.4,1.2c4.8-0.6,8.8-4.8,8.7-9.8c0-0.2,0-0.3,0-0.5c0-2.6-1.1-5.2-2.9-7.1
				c-1.7-1.7-4.6-3-7.1-2.9C403.1,352.8,398.3,357,398.4,362.6L398.4,362.6z"/>
		</g>
	</g>
	<g>
		<g>
			<path class="st13" d="M306.6,428.4c5.2,0,10.2-4.6,10-10c-0.2-5.4-4.4-10-10-10c-5.2,0-10.2,4.6-10,10
				C296.9,423.8,301,428.4,306.6,428.4L306.6,428.4z"/>
		</g>
	</g>
	<g>
		<g>
			<path class="st13" d="M312.1,428.1c0.1,0,0.1,0,0.2,0c-0.2,0-0.4-0.1-0.7-0.1C311.8,428,311.9,428,312.1,428.1
				c-0.3-0.1-0.5-0.1-0.7-0.2c0.1,0.1,0.2,0.1,0.3,0.2c-0.2-0.1-0.3-0.3-0.5-0.4c0.1,0.1,0.1,0.1,0.2,0.2c0.2,0.2,0.5,0.4,0.8,0.5
				c0.3,0.2,0.6,0.2,1,0.2c0.3,0,0.7-0.1,1-0.2c0.3-0.1,0.6-0.3,0.8-0.5c0.1-0.2,0.3-0.3,0.4-0.5c0.2-0.4,0.3-0.8,0.3-1.3
				c0-0.2-0.1-0.4-0.1-0.7c-0.1-0.4-0.3-0.8-0.6-1.1c0,0-0.1-0.1-0.1-0.1c-0.2-0.2-0.4-0.3-0.6-0.5c-0.1-0.1-0.2-0.1-0.3-0.2
				c-0.2-0.1-0.4-0.2-0.7-0.3c0,0,0,0-0.1,0c-0.1,0-0.1,0-0.2,0c-0.3-0.1-0.5-0.1-0.8-0.1c-0.1,0-0.1,0-0.2,0c-0.3,0-0.7,0.1-1,0.2
				c-0.3,0.1-0.6,0.3-0.8,0.5c-0.2,0.2-0.4,0.5-0.5,0.8c-0.2,0.3-0.2,0.6-0.2,1c0,0.2,0.1,0.4,0.1,0.7c0.1,0.4,0.3,0.8,0.6,1.1
				c0.2,0.1,0.3,0.3,0.5,0.4C311.3,427.9,311.7,428.1,312.1,428.1L312.1,428.1z"/>
		</g>
	</g>
	<g>
		<g>
			<path class="st13" d="M312.2,428.4c1.8,0.9,3.6,1.7,5.5,2.6c0.8-1.4,1.7-2.9,2.5-4.3c-0.1,0-0.6-0.3-0.3-0.1
				c-0.1-0.1-0.5-0.5-0.2-0.2c-0.1-0.2-0.3-0.4-0.4-0.6c0.2,0.4-0.1-0.3-0.1-0.4c-0.2-0.8-0.1-2.1,0-3.2c-1.4,0.6-2.8,1.2-4.3,1.8
				c0.8,0.7,1.2,1.3,1.7,2.4c0.9-1.2,1.9-2.4,2.8-3.7c0.3,0.1,0.4,0.2,0.6,0.4c0.1,0.3,0.1,0.3,0.1,0.1c0-0.1-0.1-0.2-0.1-0.3
				c0.1,0.4,0,0,0-0.2c0,0.4,0,0.1,0.1-0.2c0.3-1.1,0.7-2.3,0.6-3.5c-0.1-0.6-0.2-1.2-0.4-1.8c-0.1-0.2-0.2-0.4-0.2-0.6
				c0,0-0.2-0.8-0.1-0.4c-0.1-1,0.2-1.9,0.6-3c-1.5,0.2-3,0.4-4.6,0.6c0.1,0.2,0.3,0.4,0.4,0.6c-0.2-0.4,0,0.3,0,0
				c0-0.2,0,0.4,0,0.4c0-0.4-0.1,0.2-0.1,0.3c-0.4,1.2,0.5,2.8,1.7,3.1c1.4,0.3,2.6-0.4,3.1-1.7c0.6-1.7,0.3-3.7-0.7-5.2
				c-0.6-0.8-1.4-1.3-2.5-1.2c-1,0.1-1.8,0.8-2.1,1.8c-0.5,1.5-0.9,3.1-0.7,4.6c0.1,0.8,0.3,1.5,0.6,2.2c0.1,0.2,0.2,0.5,0.3,0.8
				c0-0.2,0-0.2,0,0.1c0.1-0.2,0-0.2,0,0.1c-0.3,1.4-0.8,2.7-0.5,4.2c0.3,1.7,1.3,2.9,2.9,3.5c0.9,0.3,2.1-0.2,2.6-0.9
				c0.6-0.9,0.6-1.8,0.2-2.8c-0.6-1.3-1.4-2.4-2.4-3.4c-1.7-1.5-4.1-0.4-4.3,1.8c-0.3,3.2,0.1,7.2,3.5,8.8c1.2,0.6,2.7,0.3,3.4-0.9
				c0.6-1.1,0.3-2.8-0.9-3.4c-1.8-0.9-3.6-1.7-5.5-2.6c-1.2-0.6-2.7-0.3-3.4,0.9C310.7,426.1,311,427.8,312.2,428.4L312.2,428.4z"/>
		</g>
	</g>
	<g>
		<g>
			<path class="st13" d="M318.9,401.3c-0.2-0.2-0.3-0.5-0.4-0.7c0.4,1,0.8,2,1.3,3c-0.1-0.3-0.2-0.6-0.3-1c0.1,1.1,0.3,2.2,0.4,3.3
				c0-0.3,0-0.6,0-1c-0.1,1.1-0.3,2.2-0.4,3.3c0-0.3,0.1-0.5,0.2-0.8c0.5-1.7,0.6-3.3,0.2-5c-0.1-1.7-0.6-3.2-1.5-4.6
				c-0.8-1.5-1.9-2.6-3.2-3.5c-1.2-1.1-2.6-1.9-4.3-2.2c-1.1-0.1-2.2-0.3-3.3-0.4c-2.3,0-4.4,0.6-6.3,1.7c-0.8,0.7-1.7,1.3-2.5,2
				c-1.5,1.6-2.6,3.4-3.2,5.5c-0.1,0.1-0.1,0.3-0.1,0.4c-0.3,1.2-0.4,2.5-0.5,3.7c0,0.2,0,0.3,0,0.5c0,1.2,0.4,3.1,0.5,3.8
				c0,0.3,0.1,0.6,0.2,0.9c0.2,0.5,0.5,1.1,0.7,1.6c0.2,0.5,0.4,1.1,0.7,1.6c0,0.1,0.1,0.1,0.1,0.2c0.1,0.1,0.2,0.3,0.3,0.4
				c0.8,1.5,1.9,2.6,3.2,3.5c1.2,1.1,2.6,1.9,4.3,2.2c1.7,0.5,3.3,0.6,5,0.2c1.7-0.1,3.2-0.6,4.6-1.5c0.8-0.7,1.7-1.3,2.5-2
				c1.5-1.6,2.6-3.4,3.2-5.5c0.1-1.1,0.3-2.2,0.4-3.3C320.6,405.3,320.1,403.2,318.9,401.3L318.9,401.3z"/>
		</g>
	</g>
	<g>
		<g>
			<path class="st13" d="M307.9,415.7c3.2,0,6.6-1.4,8.8-3.7c2.2-2.2,3.8-5.7,3.7-8.8c-0.1-3.2-1.2-6.6-3.7-8.8
				c-2.4-2.2-5.5-3.7-8.8-3.7c-3.2,0-6.6,1.4-8.8,3.7c-2.2,2.2-3.8,5.7-3.7,8.8c0.1,3.2,1.2,6.6,3.7,8.8
				C301.6,414.3,304.6,415.7,307.9,415.7L307.9,415.7z"/>
		</g>
	</g>
	<g>
		<g>
			<path class="st13" d="M319,409c0-0.1,0.1-0.1,0.1-0.2c0.9-1.4,1.4-3,1.5-4.6c0.4-1.7,0.3-3.3-0.2-5c-0.4-1.6-1.1-3-2.2-4.3
				c-0.9-1.4-2.1-2.4-3.5-3.2c-1-0.4-2-0.8-3-1.3c-2.2-0.6-4.4-0.6-6.6,0c-1,0.4-2,0.8-3,1.3c-1.9,1.1-3.4,2.6-4.5,4.5
				c0,0.1-0.1,0.1-0.1,0.2c-0.9,1.4-1.4,3-1.5,4.6c-0.4,1.7-0.3,3.3,0.2,5c0.4,1.6,1.1,3,2.2,4.3c0.9,1.4,2.1,2.4,3.5,3.2
				c1,0.4,2,0.8,3,1.3c2.2,0.6,4.4,0.6,6.6,0c1-0.4,2-0.8,3-1.3C316.4,412.3,317.9,410.8,319,409L319,409z"/>
		</g>
	</g>
	<g>
		<g>
			<path class="st13" d="M320.7,405.3c0.2-1.3,0.5-2.8,0.5-4.1c0-0.3,0-0.6,0-0.9c-0.1-1.4-0.3-2.8-0.6-4.1
				c-0.1-0.3-0.1-0.6-0.2-0.9c-0.4-1.6-1.1-3-2.2-4.3c-0.9-1.4-2.1-2.4-3.5-3.2c-1.4-0.9-3-1.4-4.6-1.5c-1.7-0.4-3.3-0.3-5,0.2
				c-1,0.4-2,0.8-3,1.3c-1.9,1.1-3.4,2.6-4.5,4.5c-0.4,1-0.8,2-1.3,3c-0.6,2.2-0.6,4.4,0,6.6c0.1,0.4,0.2,0.9,0.3,1.3
				c-0.1-1.1-0.3-2.2-0.4-3.3c0.1,0.7,0.1,1.3,0,2c0.1-1.1,0.3-2.2,0.4-3.3c0,0,0,0,0,0.1c-0.5,1.7-0.6,3.3-0.2,5
				c0.1,1.7,0.6,3.2,1.5,4.6c0.8,1.5,1.9,2.6,3.2,3.5c1.2,1.1,2.6,1.9,4.3,2.2c1.1,0.1,2.2,0.3,3.3,0.4c2.3,0,4.4-0.6,6.3-1.7
				c0.8-0.7,1.7-1.3,2.5-2C319,409.3,320.1,407.4,320.7,405.3L320.7,405.3z"/>
		</g>
	</g>
	<g>
		<g>
			<path class="st13" d="M320.4,394.9c-0.2-0.6-0.3-1.2-0.4-1.9c0.1,1.1,0.3,2.2,0.4,3.3c-0.1-0.5-0.1-1,0-1.6
				c-0.1,1.1-0.3,2.2-0.4,3.3c0.1-0.4,0.2-0.8,0.3-1.2c-0.4,1-0.8,2-1.3,3c0.8-1.8,1.9-3.6,2.5-5.5c0.4-1.4,0.5-3.1,0.7-4.5
				c0-0.6,0.1-1.1,0-1.7c-0.1-2.4-0.3-4.7-0.5-7.1c0.1-1.7-0.3-3.3-1.1-4.8c-0.5-1.5-1.4-2.9-2.6-4c-1.1-1.2-2.5-2.1-4-2.6
				c-1.5-0.8-3.1-1.1-4.8-1.1c-3.2,0.1-6.6,1.2-8.8,3.7c-2.2,2.4-3.9,5.5-3.7,8.8c0.1,1.5,0.2,3.1,0.3,4.6c0.1,1.4,0.3,2.9,0.1,4.3
				c0.1-1.1,0.3-2.2,0.4-3.3c-0.1,0.5-0.2,1-0.4,1.5c0.4-1,0.8-2,1.3-3c-0.9,2.1-2.2,4-2.6,6.3c-0.3,1.7-0.6,3.2-0.4,4.9
				c0.2,1.8,0.4,3.5,0.9,5.2c0.8,3,3,5.9,5.7,7.5c1.4,0.9,3,1.4,4.6,1.5c1.7,0.4,3.3,0.3,5-0.2c3-1,5.9-2.9,7.5-5.7
				C320.7,401.5,321.3,398.2,320.4,394.9L320.4,394.9z"/>
		</g>
	</g>
	<g>
		<g>
			<path class="st13" d="M319.6,366.4c-0.1-0.2-0.3-0.4-0.4-0.6c0.4,1,0.8,2,1.3,3c-0.1-0.4-0.2-0.7-0.3-1.1
				c0.1,1.1,0.3,2.2,0.4,3.3c-0.1-0.6-0.1-1.3,0-1.9c-0.1,1.1-0.3,2.2-0.4,3.3c0.2-0.9,0.4-1.8,0.7-2.8c0.4-1.8,0.6-3.7,0.8-5.5
				c0.2-1.8,0.2-3.7,0.2-5.5c0-1.9,0-3.8-0.1-5.7c-0.1-1.9-0.3-3.9-0.1-5.8c-0.1,1.1-0.3,2.2-0.4,3.3c0.5-2.9,1.2-5.9,1.2-8.9
				c0-3.1-0.6-6.2-1.1-9.3c-0.5-2.9-3.3-6.1-5.7-7.5c-2.7-1.6-6.6-2.2-9.6-1.3c-3,1-5.9,2.9-7.5,5.7c-0.4,1-0.8,2-1.3,3
				c-0.6,2.2-0.6,4.4,0,6.6c0.1,0.8,0.2,1.6,0.4,2.4c-0.1-1.1-0.3-2.2-0.4-3.3c0.3,2.1,0.4,4.1,0.1,6.2c0.1-1.1,0.3-2.2,0.4-3.3
				c-0.4,2.6-1.1,5.1-1.1,7.7c0,1.9,0.2,3.7,0.2,5.6c0.1,3.6,0.2,7.2-0.2,10.8c0.1-1.1,0.3-2.2,0.4-3.3c-0.4,2.6-1.2,5.1-1.4,7.8
				c-0.1,1.6,0.2,3.3,0.5,4.8c0.3,1.6,1,3.3,1.9,4.7c1.8,2.7,4.3,4.9,7.5,5.7c3,0.8,7,0.5,9.6-1.3c2.7-1.7,5-4.3,5.7-7.5
				C321.6,372.8,321.4,369.2,319.6,366.4L319.6,366.4z"/>
		</g>
	</g>
	<g>
		<g>
			<path class="st13" d="M321.1,329.3c-0.1-1.3-0.1-2.7,0.1-4c-0.1,1.1-0.3,2.2-0.4,3.3c0.2-1.1,0.4-2.1,0.7-3.2
				c0.4-2.1,0.7-4.3,0.8-6.4c0.1-2.3-0.1-4.6-0.4-6.9c0.1-1.7-0.3-3.3-1.1-4.8c-0.5-1.5-1.4-2.9-2.6-4c-1.1-1.2-2.5-2.1-4-2.6
				c-1.5-0.8-3.1-1.1-4.8-1.1c-3.2,0.1-6.6,1.2-8.8,3.7c-2.1,2.3-4,5.6-3.7,8.8c0.3,3,0.6,5.9,0.2,8.9c0.1-1.1,0.3-2.2,0.4-3.3
				c-0.2,1.4-0.6,2.8-0.8,4.2c-0.4,2.5-0.8,5-0.6,7.5c-0.1,1.7,0.3,3.3,1.1,4.8c0.5,1.5,1.4,2.9,2.6,4c1.1,1.2,2.5,2.1,4,2.6
				c1.5,0.8,3.1,1.1,4.8,1.1c3.2-0.1,6.6-1.2,8.8-3.7C319.6,335.9,321.4,332.6,321.1,329.3L321.1,329.3z"/>
		</g>
	</g>
	<g>
		<g>
			<path class="st13" d="M322.4,303.8c0-0.1,0-0.3,0-0.4c-0.1,1.1-0.3,2.2-0.4,3.3c0.1-0.8,0.3-1.5,0.6-2.2c-0.4,1-0.8,2-1.3,3
				c0.4-0.8,0.8-1.6,1.3-2.3c-0.7,0.8-1.3,1.7-2,2.5c0.7-0.9,1.5-1.7,2.4-2.5c-0.8,0.7-1.7,1.3-2.5,2c1.6-1.2,3.4-2.1,5.2-2.9
				c-1,0.4-2,0.8-3,1.3c5.5-2.3,11.2-4.3,16.7-6.6c2.4-1,4.7-2,7-3.1c1-0.5,2.2-0.9,3.1-1.6c2-1.3,3.7-2.9,5-4.9
				c1.3-2.2,1.8-4.5,1.9-7c0.2-2.9-1.5-6.9-3.7-8.8c-2.5-2.3-5.4-3.5-8.8-3.7c-4.4-0.3-7.9,1.5-11.8,3.2c1-0.4,2-0.8,3-1.3
				c-2.2,0.9-4.5,1.6-6.9,2.1c-2.3,0.5-4.8,0.6-7,1.4c-4.5,1.7-8.6,4.4-11,8.7c-2.4,4.4-2.7,9.3-0.3,13.8c1.9,3.6,5.4,5.2,9,6.6
				c5.3,1.9,11.1,2.4,16.7,2.5c4.9,0.1,9.7,0.1,14.6-0.1c3.7-0.2,7.3-0.6,10.9-1.2c2.8-0.4,5.5-1.3,8.3-1.7
				c-1.1,0.1-2.2,0.3-3.3,0.4c1.2-0.1,2.4-0.1,3.7,0c-1.1-0.1-2.2-0.3-3.3-0.4c2.9,0.4,5.7,1.1,8.5,1.6c2.7,0.5,5.5,0.9,8.1,1.9
				c-1-0.4-2-0.8-3-1.3c0.7,0.3,1.4,0.7,2,1.2c-0.8-0.7-1.7-1.3-2.5-2c1.4,1.1,2.5,2.6,3.8,3.9c2.6,2.6,5.8,4.7,9.3,5.6
				c1.1-8.2,2.2-16.4,3.3-24.6c-18.9,0.2-37.8,0.5-56.7,0.7c-5.4,0.1-10.9,0.1-16.3,0.2c-3.2,0-6.5,1.4-8.8,3.7
				c-2.2,2.2-3.8,5.7-3.7,8.8c0.1,3.2,1.2,6.6,3.7,8.8c2.4,2.2,5.5,3.7,8.8,3.7c18.9-0.2,37.8-0.5,56.7-0.7
				c5.5-0.1,10.9-0.1,16.4-0.2c6.2-0.1,11.5-4.7,12.3-10.8c0.4-2.7,0-5.6-1.5-8c-1.7-2.7-4.3-5-7.5-5.7c-0.3-0.1-0.6-0.2-0.9-0.3
				c1,0.4,2,0.8,3,1.3c-0.6-0.3-1.1-0.6-1.7-1c0.8,0.7,1.7,1.3,2.5,2c-1.1-0.9-1.9-1.9-2.8-2.9c-1.6-1.7-3.3-3.2-5.3-4.5
				c-1.4-1-3.2-1.6-4.8-2.2c-0.8-0.3-1.7-0.5-2.5-0.7c-1.9-0.4-3.8-0.8-5.7-1.2c-1.9-0.4-3.8-0.8-5.8-1.2c-2.7-0.5-5.5-1.1-8.3-0.9
				c-4.7,0.3-9.2,1.8-13.9,2.5c1.1-0.1,2.2-0.3,3.3-0.4c-4.6,0.6-9.2,0.7-13.8,0.7c-4.4,0-8.9,0-13.3-0.5c1.1,0.1,2.2,0.3,3.3,0.4
				c-2.7-0.4-5.3-1-7.9-2c1,0.4,2,0.8,3,1.3c-0.2-0.1-0.3-0.2-0.5-0.3c1.5,1.5,3,3,4.5,4.5c-0.1-0.1-0.1-0.1-0.2-0.2
				c0.6,2.1,1.1,4.2,1.7,6.3c0-0.1,0-0.2,0-0.4c-0.1,1.1-0.3,2.2-0.4,3.3c0-0.2,0.1-0.5,0.2-0.7c-0.4,1-0.8,2-1.3,3
				c0.2-0.3,0.4-0.6,0.6-0.9c-0.7,0.8-1.3,1.7-2,2.5c0.3-0.4,0.7-0.7,1.1-1.1c-0.8,0.7-1.7,1.3-2.5,2c0.6-0.5,1.3-0.8,2-1.1
				c-1,0.4-2,0.8-3,1.3c2.5-1,5.3-1,7.9-1.6c3.6-0.8,6.8-2.3,10.2-3.7c-1,0.4-2,0.8-3,1.3c1-0.4,1.9-0.7,3-0.9
				c-1.1,0.1-2.2,0.3-3.3,0.4c0.4,0,0.9-0.1,1.3,0c-4.2-4.2-8.3-8.3-12.5-12.5c0,0.1,0,0.2,0,0.3c0.1-1.1,0.3-2.2,0.4-3.3
				c0,0.1-0.1,0.2-0.1,0.3c0.4-1,0.8-2,1.3-3c-0.1,0.1-0.1,0.2-0.2,0.3c0.7-0.8,1.3-1.7,2-2.5c-0.1,0.1-0.2,0.2-0.2,0.2
				c0.8-0.7,1.7-1.3,2.5-2c-1.5,1.1-3.4,1.7-5,2.5c-1.8,0.8-3.7,1.6-5.5,2.4c1-0.4,2-0.8,3-1.3c-6,2.5-12.4,4.4-18.2,7.3
				c-1.2,0.6-2.3,1.2-3.3,2c-1.7,1.2-3.4,2.5-4.8,4.1c-1.3,1.6-2.7,3.2-3.6,5.1c-0.6,1.4-1.3,2.8-1.7,4.2c-0.4,1.6-0.5,3.2-0.7,4.8
				c-0.3,3,1.6,6.8,3.7,8.8c2.2,2.2,5.7,3.8,8.8,3.7c3.2-0.1,6.6-1.2,8.8-3.7c0.7-0.8,1.3-1.7,2-2.5
				C321.8,308.1,322.4,306,322.4,303.8L322.4,303.8z"/>
		</g>
	</g>
	<line class="st5" x1="340.5" y1="197.5" x2="340.5" y2="266.8"/>
	<path class="st14" d="M342.3,244.4c3,0.7,6.2,0.7,9.2,0"/>
	<path class="st14" d="M362.1,240.4c3.2-1,6.7-1.5,10.1-1.4"/>
	<line class="st5" x1="374.1" y1="197.5" x2="373.1" y2="266.8"/>
	<path class="st5" d="M373.1,266.8c0,0,47.7,7,47.7,44.5v89.6"/>
	<path class="st5" d="M340.5,267.8c0,0-45.8,6.9-45.8,43.1s0,113.6,0,113.6"/>
	<g>
		<g>
			<path class="st15" d="M324.1,343.5c0.2,0.4,0.3,0.8,0.4,1.3c-0.2-1.8-0.5-3.5-0.7-5.3c0,0.3,0,0.7,0,1c0.2-1.8,0.5-3.5,0.7-5.3
				c-0.1,0.4-0.2,0.8-0.4,1.3c0.7-1.6,1.3-3.2,2-4.8c-1.9,3.8-3.5,7.4-3.3,11.7c0.1,2.6,0.7,5.1,1.1,7.6c-0.2-1.8-0.5-3.5-0.7-5.3
				c0.1,0.8,0,1.5,0,2.3c0.2-1.8,0.5-3.5,0.7-5.3c-0.5,3.3-1.3,6.6-1.3,9.9c0,0.4,0,0.8,0.1,1.2c0.2,1.9,0.3,4.1,0.9,6
				c0.7,2.2,1.8,4.4,2.8,6.5c-0.7-1.6-1.3-3.2-2-4.8c0.1,0.2,0.1,0.4,0.1,0.6c-0.2-1.8-0.5-3.5-0.7-5.3c0,0.2,0,0.4,0,0.6
				c0.2-1.8,0.5-3.5,0.7-5.3c-0.3,2.1-0.8,4.2-0.9,6.4c0,1.1,0.1,1.6,0.3,3.1c0.1,0.7,0.2,2.3,0.5,3.2c0.6,2.6,1.8,4.9,3.6,6.8
				c1.4,2.2,3.3,3.9,5.6,5.2c2.3,1.5,4.8,2.3,7.4,2.4c2.7,0.6,5.3,0.5,8-0.4c4.8-1.6,9.5-4.6,12-9.2c2.4-4.6,3.8-10.4,2-15.4
				c-0.1-0.2-0.1-0.4-0.1-0.6c0.2,1.8,0.5,3.5,0.7,5.3c0-0.2,0-0.4,0-0.6c-0.2,1.8-0.5,3.5-0.7,5.3c0.8-4.8,1.3-7.4,0.2-12.1
				c-0.5-2.3-1.7-4.4-2.7-6.4c0.7,1.6,1.3,3.2,2,4.8c-0.2-0.4-0.3-0.8-0.4-1.3c0.2,1.8,0.5,3.5,0.7,5.3c-0.1-0.9-0.1-1.8,0-2.7
				c-0.2,1.8-0.5,3.5-0.7,5.3c0.4-3,1-5.9,1.3-8.9c0.3-3-0.7-6-1.1-9c0.2,1.8,0.5,3.5,0.7,5.3c0-0.1,0-0.3,0-0.4
				c-0.2,1.8-0.5,3.5-0.7,5.3c0-0.2,0.1-0.5,0.2-0.7c-0.7,1.6-1.3,3.2-2,4.8c0.9-1.9,1.7-3.8,2.5-5.7c0.5-1.3,0.5-2.5,0.7-3.9
				c0.4-3.1,0.4-3.2,0-6.3c-0.2-1.3-0.2-2.7-0.7-3.9c-0.6-2.6-1.8-4.9-3.6-6.8c-1.4-2.2-3.3-3.9-5.6-5.2c-2.3-1.5-4.8-2.3-7.4-2.4
				c-2.7-0.6-5.3-0.5-8,0.4c-4.8,1.6-9.5,4.6-12,9.2c-0.7,1.6-1.3,3.2-2,4.8C323.2,336.4,323.2,340,324.1,343.5L324.1,343.5z"/>
		</g>
	</g>
	<g>
		<g>
			<path class="st15" d="M329.1,382.3c0.2,0.2,0.4,0.3,0.5,0.5c-1-1.3-2.1-2.7-3.1-4c0.2,0.3,0.4,0.6,0.5,0.9
				c-0.7-1.6-1.3-3.2-2-4.8c0.1,0.2,0.2,0.5,0.2,0.7c12.2-5.1,24.4-10.3,36.6-15.4c-0.5-1-1.1-2-1.6-3c-1.3-2.3-3-4.2-5.2-5.6
				c-1.9-1.8-4.2-3-6.8-3.6c-1.8-0.2-3.5-0.5-5.3-0.7c-2.8-0.1-5.3,0.5-7.7,1.7c-1.7,0.5-3.2,1.3-4.4,2.6c-2.2,1.4-3.9,3.3-5.2,5.6
				c-2.6,4.8-3.3,10-2,15.4c0.4,1.8,0.8,3.7,1.1,5.6c-0.2-1.8-0.5-3.5-0.7-5.3c0.7,4.9,0.7,9.7,0,14.6c0.2-1.8,0.5-3.5,0.7-5.3
				c-0.4,3.1-1.2,6.1-1.7,9.2c-0.5,3.1-1.1,6.3-1.1,9.5c0,2.3,0.3,4.7,0.8,7c0.1,0.4,0.2,0.7,0.3,1c0.7,1.6,1.3,3.2,2,4.8
				c0.5,0.9,1,1.6,1.7,2.3c0.8,1,1.2,1.7,2,2.5c1.3,1,2.7,2.1,4,3.1c0.9,0.5,1.8,0.9,2.8,1.2c1.6,0.7,2.8,1.2,4.4,1.5
				c1.6,0.4,3.2,0.7,4.8,1.1c0.8,0.2,1.5,0.4,2.3,0.5c4.9,0.9,7,1.1,11.9,0c1.8-0.4,3.7-1.4,5.3-2.2c0.3-0.1,0.5-0.2,0.8-0.4
				c1.9-1.2,3.6-2.7,5.4-4.1c-1.3,1-2.7,2.1-4,3.1c0.5-0.4,1-0.7,1.6-1c-1.6,0.7-3.2,1.3-4.8,2c1.1-0.4,2.2-0.6,3.4-0.8
				c-1.8,0.2-3.5,0.5-5.3,0.7c2.7-0.4,5.5-0.6,8.2-1.2c0.6-0.1,1.1-0.3,1.7-0.5c1.9-0.7,4-1.5,5.8-2.5c1.8-1,3.5-2.5,5.1-3.9
				c0.4-0.3,0.8-0.7,1.1-1c1.4-1.6,2.8-3.3,3.9-5.1c0.8-1.1,1.2-2.5,1.7-3.7c0.5-1.2,1.2-2.5,1.5-3.8c0.6-2.2,0.8-4.5,1-6.8
				c0.1-1.2,0.1-2.5,0.1-3.7c-0.1-2.6-0.3-5.2,0-7.8c-0.2,1.8-0.5,3.5-0.7,5.3c0.8-5.5,2.3-10.9,2.2-16.5
				c-0.1-5.7-1.6-11.4-2.4-17.1c0.2,1.8,0.5,3.5,0.7,5.3c-0.5-3.5-0.7-7-0.7-10.6c0-5.1,1.1-10.3-0.3-15.4
				c-2.1-7.7-8.5-13.3-16.1-15.2c-1.7-0.4-3.4-0.8-5.1-1c-5.2-0.8-10.2-1.4-15.5-1.2c-1.8,0.2-3.5,0.5-5.3,0.7
				c-2.6,0.6-4.9,1.8-6.8,3.6c-1.5,0.9-2.7,2.1-3.6,3.6c-1.8,1.9-3,4.2-3.6,6.8c-0.2,1.8-0.5,3.5-0.7,5.3c0.2,1.8,0.5,3.5,0.7,5.3
				c0.6,2.6,1.8,4.9,3.6,6.8c1.4,2.2,3.3,3.9,5.6,5.2c2.3,1.2,4.7,2.2,7.1,3c0.9,0.3,1.9,0.6,2.8,0.7c3.4,0.6,6.9,1.2,10.3,0.8
				c3.6-0.4,6.8-0.8,10.2-2.1c1.8-0.7,3.7-1.4,5.6-1.7c-1.8,0.2-3.5,0.5-5.3,0.7c0.6-0.1,1.1-0.1,1.7-0.1c2.8,0.1,5.3-0.5,7.7-1.7
				c2.5-0.8,4.6-2.2,6.4-4.1c2-1.8,3.3-4,4.1-6.4c1.3-2.4,1.8-5,1.7-7.7c-0.2-5.2-1.9-10.5-5.9-14.1c-4-3.6-8.7-5.8-14.1-5.9
				c-3.8-0.1-7.7,0.7-11.2,2c-2.1,0.8-4.1,1.6-6.3,1.9c1.8-0.2,3.5-0.5,5.3-0.7c-1.5,0.2-3.1,0.2-4.6,0c1.8,0.2,3.5,0.5,5.3,0.7
				c-1.4-0.2-2.7-0.6-4-1.1c1.6,0.7,3.2,1.3,4.8,2c-0.5-0.2-1-0.5-1.5-0.7c-3.4,12.4-6.7,24.8-10.1,37.3c3.2-0.2,6.3,0,9.4,0.4
				c-1.8-0.2-3.5-0.5-5.3-0.7c2.4,0.3,4.9,0.7,7.2,1.5c-1.6-0.7-3.2-1.3-4.8-2c0.1,0.1,0.2,0.1,0.3,0.2c-1.3-1-2.7-2.1-4-3.1
				c0.1,0.1,0.2,0.1,0.3,0.2c-1-1.3-2.1-2.7-3.1-4c0.1,0.1,0.1,0.2,0.2,0.3c-0.7-1.6-1.3-3.2-2-4.8c0,0.1,0.1,0.2,0.1,0.3
				c-0.2-1.8-0.5-3.5-0.7-5.3c0.1,2.3-0.4,4.7-0.5,7c-0.1,2.5,0,5,0.1,7.5c0.4,6.5,1.7,13,2.6,19.4c-0.2-1.8-0.5-3.5-0.7-5.3
				c0.3,2.5,0.4,5,0.1,7.5c0.2-1.8,0.5-3.5,0.7-5.3c-0.7,4.9-1.9,9.6-2.1,14.6c-0.2,3.1,0.4,6.3,0.1,9.4c0.2-1.8,0.5-3.5,0.7-5.3
				c-0.1,1-0.4,1.9-0.7,2.9c0.7-1.6,1.3-3.2,2-4.8c-0.3,0.7-0.7,1.3-1.2,1.9c1-1.3,2.1-2.7,3.1-4c-0.5,0.6-1,1.1-1.6,1.6
				c1.3-1,2.7-2.1,4-3.1c-0.6,0.4-1.3,0.8-2,1.1c1.6-0.7,3.2-1.3,4.8-2c-1.1,0.4-2.3,0.6-3.4,0.8c1.8-0.2,3.5-0.5,5.3-0.7
				c-3,0.4-6.2,0.5-9.2,1.4c-1.1,0.3-2.1,0.9-3.1,1.3c-0.9,0.4-2.1,0.8-3.1,1.3c-2,1.1-3.8,2.8-5.6,4.2c1.3-1,2.7-2.1,4-3.1
				c-0.5,0.4-1,0.7-1.6,1c1.6-0.7,3.2-1.3,4.8-2c-0.2,0.1-0.5,0.1-0.8,0.2c1.8-0.2,3.5-0.5,5.3-0.7c-0.3,0-0.6,0-0.9,0
				c1.8,0.2,3.5,0.5,5.3,0.7c-1.6-0.2-3.1-0.7-4.6-1c-1.6-0.4-3.2-0.6-4.7-1.1c1.6,0.7,3.2,1.3,4.8,2c-0.1-0.1-0.3-0.1-0.4-0.2
				c1.3,1,2.7,2.1,4,3.1c-0.2-0.1-0.3-0.3-0.5-0.5c1,1.3,2.1,2.7,3.1,4c-0.1-0.1-0.1-0.2-0.2-0.3c0.7,1.6,1.3,3.2,2,4.8
				c-0.1-0.3-0.2-0.7-0.3-1c0.2,1.8,0.5,3.5,0.7,5.3c-0.2-1.6-0.1-3.3,0.2-4.9c-0.2,1.8-0.5,3.5-0.7,5.3c0.4-2.5,1-5,1.4-7.5
				c0.8-4.2,1.4-8.5,1.6-12.8c0.1-2.6,0-5.2-0.2-7.8c-0.4-4.3-1-8.6-2-12.8c-12.2,5.1-24.4,10.3-36.6,15.4c0.5,1,1.1,2,1.6,3
				c1.3,2.3,3,4.2,5.2,5.6c1.9,1.8,4.2,3,6.8,3.6c1.8,0.2,3.5,0.5,5.3,0.7c2.8,0.1,5.3-0.5,7.7-1.7c1.7-0.5,3.2-1.3,4.4-2.6
				c2.2-1.4,3.9-3.3,5.2-5.6c0.7-1.6,1.3-3.2,2-4.8c1-3.5,1-7.1,0-10.6c-0.1-0.2-0.1-0.5-0.2-0.7c-0.7-1.6-1.3-3.2-2-4.8
				c-0.1-0.2-0.1-0.3-0.2-0.5c-0.5-0.9-1.4-1.9-1.9-2.5c-0.7-0.9-1.3-1.8-2.1-2.5c-3.8-3.6-8.8-5.9-14.1-5.9
				c-2.8-0.1-5.3,0.5-7.7,1.7c-2.5,0.8-4.6,2.2-6.4,4.1c-3.5,3.8-6.1,8.8-5.9,14.1C323.5,373.4,325.2,378.7,329.1,382.3L329.1,382.3
				z"/>
		</g>
	</g>
	<g>
		<g>
			<path class="st15" d="M327.2,334.9c0.4-1.2,0.4-2.5,0.3-3.8c0-0.5,0-1,0-1.5c0-0.3,0-0.3,0-0.1c0-0.2,0.1-0.3,0.1-0.5
				c0-0.3,0.1-0.5,0.1-0.8c0.4-2.5,0.6-5,0.2-7.5c-0.2-1.3-1-2.6-2.5-2.5c-1.2,0.1-2.7,1.1-2.5,2.5c0.1,1.1,0.2,2.3,0.2,3.4
				c0,0.6,0,1.1-0.1,1.7c0,0.1,0,0.3,0,0.4c0-0.2,0-0.2,0,0.1c0,0.3-0.1,0.5-0.1,0.8c-0.2,1.2-0.4,2.5-0.4,3.7c0,0.5,0,1,0,1.5
				c0,0.2,0,0.5,0,0.7c0.1-0.5-0.1,0.4-0.2,0.5c-0.4,1.2,0.5,2.8,1.7,3.1C325.5,337,326.7,336.3,327.2,334.9L327.2,334.9z"/>
		</g>
	</g>
	<g>
		<g>
			<path class="st15" d="M325.5,322.8c3.7-0.2,7.4-0.1,11.1,0.3c-0.2-1.6-0.4-3.3-0.7-4.9c-3.3,1-6.7,2.1-8.9,4.8
				c-1.2,1.4-0.9,3.7,1.1,4.2c7.9,1.9,16,1.2,24,1.3c7.7,0.1,15.6,0.4,23.1-1.8c2.1-0.6,4-1.5,6.1-2.1c2.2-0.6,4.4-0.8,6.6-0.9
				c1.3-0.1,2.5-1.1,2.5-2.5c0-1.3-1.1-2.6-2.5-2.5c-2.6,0.2-5.2,0.4-7.7,1.1c-2.3,0.6-4.5,1.6-6.7,2.3c-4.6,1.3-9.4,1.6-14.2,1.6
				c-5,0-9.9-0.1-14.9-0.1c-5,0-10,0-14.9-1.2c0.4,1.4,0.7,2.8,1.1,4.2c1.7-2,4.3-2.8,6.7-3.5c1.2-0.4,2-1.5,1.8-2.7
				c-0.2-1.3-1.2-2-2.5-2.2c-3.7-0.4-7.4-0.6-11.1-0.3C322.3,318,322.3,323,325.5,322.8L325.5,322.8z"/>
		</g>
	</g>
	<g>
		<g>
			<path class="st15" d="M386.5,322.9c1.1,0,2.2,0.1,3.3,0.1c0.5,0,1,0,1.4,0.1c0.3,0,0.6,0,1,0c0.7,0.1,0.6,0-0.3-0.3
				c-0.2-0.4-0.4-0.7-0.6-1.1c0-0.1,0.1-0.3-0.1,0.1c-0.1,0.3-0.1,0.7-0.2,0.9c-0.1,0.7-0.2,1.4-0.3,2.1c-0.2,1.6-0.4,3.1-0.5,4.7
				c-0.3,3-0.5,5.9-0.1,8.9c0.2,1.3,0.7,2.6,0.8,4c0.1,1.1-0.6,2.3-0.8,3.4c-0.5,3-0.4,5.9-0.1,8.9c0.1,1.3,1.1,2.5,2.5,2.5
				c1.3,0,2.6-1.1,2.5-2.5c-0.2-1.9-0.3-3.8-0.3-5.7c0.1-1.7,0.6-3.2,0.9-4.9c0.4-2.1-0.3-4-0.7-6.1c-0.3-1.8-0.3-3.6-0.1-5.4
				c0.1-1.9,0.3-3.8,0.5-5.7c0.2-1.8,0.9-3.6,0.9-5.3c0-2.2-1.6-3.4-3.6-3.5c-2.1-0.2-4.1-0.2-6.2-0.3
				C383.3,317.8,383.3,322.8,386.5,322.9L386.5,322.9z"/>
		</g>
	</g>
	<g>
		<g>
			<path class="st15" d="M394.6,363.5c2.2-4.2,1.2-9.2,0.9-13.7c-1.6,0.4-3.1,0.8-4.7,1.3c0.8,1.1,0.9,2.1,0.8,3.4
				c0,0.6-0.2,1.2-0.3,1.8c-0.1,0.4-0.2,0.8-0.3,1.1c0,0.2-0.4,0.9-0.2,0.6c0.5-0.4,1-0.8,1.5-1.1c-0.1,0-0.2,0.1-0.3,0.1
				c0.4,0,0.9,0,1.3,0c-0.5-0.1-1-0.8-1.4-1.2c-0.7-0.8-2.1-0.9-3-0.4c-1,0.6-1.3,1.7-1.1,2.8c0.3,1.7,1.1,3.2,1.8,4.7
				c0.6,1.1,1.3,2.3,1.1,3.6c-0.1,0.8-0.5,1.7-0.6,2.5c-0.2,1.1-0.3,2.2-0.3,3.4c-0.1,2,0,4.1,0.1,6.1c0.1,1.2,1.1,2.7,2.5,2.5
				c1.8-0.2,3.2-1.4,3-3.3c-0.1-1.2-0.8-1.8-0.4-3.1c-1.4,0.4-2.8,0.7-4.2,1.1c0.4,0.3-0.9,2.8-1,3.4c-0.2,1-0.1,1.9,0.1,2.9
				c0.1,0.7,0.4,1.4,0.2,2c1.5-0.2,3-0.4,4.6-0.6c-0.2-0.5,0.2-1,0.7-1.4c-1.4-0.8-2.8-1.6-4.2-2.4c-2.3,9.3-4.5,18.6-6.9,27.9
				c-0.4,1.5,0.8,3.3,2.4,3.2c1.1-0.1,2.1-0.4,3.1-0.9c0.8-0.5,1.4-1.1,2.3-1.5c1.1-0.5,2.1-0.5,2.8-1.6c0.7-1.1,0.8-2.4,1-3.6
				c0.9-5.3,1.2-10.5,1-15.8c-0.1-3.2-5.1-3.2-5,0c0.1,5.8-1.5,11.3-4.8,16.1c-0.8,1.1-0.2,2.8,0.9,3.4c1.2,0.7,2.7,0.2,3.4-0.9
				c3.7-5.4,5.6-12,5.5-18.6c-1.7,0-3.3,0-5,0c0.1,3,0.2,6.1-0.1,9.1c-0.1,1.3-0.3,2.7-0.5,4c-0.1,0.7-0.2,1.4-0.3,2.1
				c-0.1,0.5-0.1,1.4-0.4,1.7c0.3-0.3,0.6-0.6,0.9-0.9c-0.3,0.2-0.9,0.3-1.3,0.5c-0.5,0.2-1,0.5-1.5,0.8c-0.5,0.4-1.4,1.2-2,1.2
				c0.8,1.1,1.6,2.1,2.4,3.2c2.4-9.3,4.6-18.6,6.9-27.9c0.6-2.6-2.3-4-4.2-2.4c-2.3,1.8-2.6,4.9-1.4,7.4c0.9,2.1,4,1.2,4.6-0.6
				c0.4-1.2,0.3-2.5,0-3.7c-0.2-1.1-0.2-1.7,0.2-2.8c0.8-2.3,1.1-4.9-0.8-6.7c-1.4-1.4-3.6-0.7-4.2,1.1c-0.3,0.9-0.4,1.8-0.4,2.7
				c0.1,1,0.5,1.7,0.7,2.7c0-0.4,0-0.9,0-1.3c0,0.1-0.1,0.2-0.1,0.3c0.2-0.4,0.4-0.7,0.6-1.1c-0.1,0.1-0.1,0.1-0.2,0.2
				c0.6-0.2,1.2-0.5,1.8-0.7c-0.1,0-0.2,0-0.2,0c0.8,0.8,1.7,1.7,2.5,2.5c-0.1-2.2-0.2-4.4-0.1-6.6c0.1-1.9,0.8-3.6,0.9-5.5
				c0.2-3.6-2.5-6.2-3.1-9.5c-1.4,0.8-2.8,1.6-4.2,2.4c1.1,1.4,3,3,4.9,2.5c1.9-0.5,2.3-2.3,2.7-4c0.7-3.1,0.9-6.6-1-9.3
				c-0.7-0.9-1.7-1.5-2.8-1.1c-1,0.3-1.9,1.3-1.8,2.4c0.1,2.1,0.3,4.2,0.4,6.3c0.1,1.6,0.1,3.4-0.6,4.9
				C388.8,363.8,393.1,366.3,394.6,363.5L394.6,363.5z"/>
		</g>
	</g>
	<g>
		<g>
			<path class="st15" d="M328.2,373.2c-0.3-0.2-0.7-0.3-1-0.5c-1.8-0.9-3.5,0.2-3.8,2.2c-0.1,1.2,0.1,2.5,0.2,3.7
				c0.1,1.1,0.1,2.3,0.2,3.4c0.1,2.4,0.1,4.9,0,7.3c-0.1,2.2-0.8,4.3-1,6.5c-0.3,2.3,0.1,4.7-0.2,7.1c-0.3,2.3-1,4.6-1.2,7
				c-0.1,2,1,3.6,1.2,5.5c0.3,2.4,0.5,4.8,0.6,7.2c0.1,2.1,0.6,4.4-0.2,6.4c-0.5,1.3,0.6,2.6,1.7,3.1c3.1,1.2,5.8-0.6,8.3-2.3
				c2.4-1.6,5-2.6,7.7-3.6c2.3-0.8,2.5-4.1,0-4.8c-2.1-0.6-4.2-1.2-6.2-1.8c-1.5-0.4-3.4-0.6-4.5-1.8c-1,1.3-2,2.6-3,3.9
				c0.7,0.3,2,1.2,2.1,1.6c0-0.4,0-0.9,0-1.3c0.5-0.5,0.5-0.7,0.2-0.4c-0.1,0.1-0.3,0.2-0.4,0.3c-0.5,0.3-0.8,0.7-1.1,1.1
				c-0.6,0.9-0.7,1.8-0.4,2.8c0.5,1.9,3.7,2.6,4.6,0.6c1.4-3.1,3.5-5.7,6.4-7.5c2.7-1.7,0.2-6-2.5-4.3c-3.6,2.2-6.5,5.4-8.2,9.3
				c1.5,0.2,3,0.4,4.6,0.6c0-0.1-0.1-0.2-0.1-0.3c0,0.4,0,0.9,0,1.3c-0.5,0.5-0.5,0.6-0.1,0.3c0.3-0.2,0.5-0.4,0.8-0.6
				c0.3-0.3,0.6-0.6,0.8-1c0.6-1,0.5-2.2,0-3.2c-0.8-1.6-2.5-2.8-4-3.6c-2.5-1.3-5,1.8-3,3.9c1.5,1.7,3.7,2.3,5.7,2.8
				c2.4,0.7,4.8,1.4,7.2,2c0-1.6,0-3.2,0-4.8c-2.5,0.9-5.1,1.8-7.5,3.2c-1.7,1-3.9,3.5-5.9,2.7c0.6,1,1.2,2.1,1.7,3.1
				c0.9-2.1,0.6-4.5,0.5-6.8c-0.1-2.4-0.3-4.8-0.6-7.2c-0.1-1.3-0.2-2.6-0.5-3.8c-0.2-0.8-0.8-1.5-0.8-2.3c-0.1-1,0.3-2.2,0.5-3.1
				c0.2-1.2,0.4-2.5,0.6-3.8c0.3-2.4-0.1-4.7,0.2-7.1c0.1-1,0.4-1.9,0.6-2.9c0.3-1.3,0.4-2.7,0.4-4c0.1-2.4,0.1-4.9,0-7.3
				c0-1.1-0.1-2.3-0.2-3.4c-0.1-1.2-0.4-2.5-0.2-3.7c-1.3,0.7-2.5,1.4-3.8,2.2c0.3,0.2,0.7,0.3,1,0.5
				C328.5,379,331,374.7,328.2,373.2L328.2,373.2z"/>
		</g>
	</g>
	<polyline class="st14" points="322,435.8 322,316.8 396.9,316.8 396.9,411.2 	"/>
	<line class="st16" x1="322" y1="437" x2="502.2" y2="374.9"/>
	<g>
		<g>
			<path d="M272,404c3.2,0,3.2-5,0-5C268.8,399,268.8,404,272,404L272,404z"/>
		</g>
	</g>
	<g>
		<g>
			<path class="st15" d="M262.2,406.4c2.3,0.1,4.6-0.1,6.8-0.5c1.9-0.4,4.3-0.8,5.4-2.5c1.3-1.9,0.5-4.4-1.6-5.3
				c-1.8-0.8-4.1-0.6-6-0.6c-4.3-0.1-8.7-0.1-12.9,0.7c-1.8,0.3-3.5,0.8-5.3,0.7c-2.1-0.1-4.3,0.3-5.8,1.9c-2,2.2,0.5,5,3,3.9
				c1.3-0.6,2.7-1.2,3.7-2.2c0.9-0.8,1.3-1.8,2.5-2.4c2.8-1.3,5.9-2.2,8.9-2.9c2.9-0.7,5.9-1.5,8.9-1.7c3-0.2,6.1,1.2,8.9,2.1
				c1.5,0.5,4.2,1.1,4.8,2.8c0.4,1.1-0.2,2.4-0.5,3.5c-0.2,0.7-0.3,1.4-0.5,2.1c-0.2,0.6-0.5,0.9-0.8,1.4c-0.9,1.1-1.6,2.5-2.6,3.5
				c-1,1-1.6,0.7-2.8,0.2c-1.4-0.5-2.8-0.7-4.3-1c-1.5-0.4-2.9-0.9-4.3-1.4c-3.2-1.2-6.5-1.9-9.8-2.8c-3.6-1-7-2.6-10.4-4
				c-0.2,1.6-0.4,3.3-0.7,4.9c3.7,0.2,7.4,0.4,11.1,0.1c3.6-0.3,7.4-0.8,10.5-2.7c1.9-1.1,1.5-3.9-0.6-4.6c0.6,0.2,0.6,0.6,0.5,0.2
				c0-0.2-0.2-0.3-0.2-0.5c-0.3-0.6-0.5-1.1-1-1.6c-0.5-0.5-1.1-0.9-1.8-1.1c-0.4-0.1-0.8-0.2-1.2-0.2c-0.1,0-0.3,0-0.4,0
				c-0.7,0-0.5,0.1,0.6,0.6c-0.5,1.2-1,2.4-1.5,3.7c2-0.7,4.2-0.9,6.3-1.2c1.9-0.2,3.9-0.3,5.8,0.2c2.3,0.5,7.1,1.5,6,4.9
				c-0.4,1.3-1.5,1.9-2.8,2.3c-1.9,0.5-4,0.7-5.9,0.7c-4.1,0.1-8.1-0.5-11.9-1.8c0,1.6,0,3.2,0,4.8c2.4-1,5-0.9,7.5-1.3
				c2.7-0.4,5.4-0.9,8-1.8c2.3-0.8,6.4-1.9,5.6-5.2c-0.7-2.8-4.5-3.6-6.8-4.4c-2.7-0.9-4.3,3.2-1.9,4.6c1,0.6,2,1.2,2.9,1.9
				c0.5,0.3,1,0.7,1.4,1c0.2,0.1,0.4,0.3,0.5,0.4c0.3,0.3,0.3,0.3,0.1,0c0-0.4,0-0.9,0-1.3c0,0.1-0.1,0.2-0.1,0.3
				c0.2-0.4,0.4-0.7,0.6-1.1c-0.3,0.3-1.2,0.6-1.7,0.8c-0.6,0.3-1.3,0.6-1.9,0.8c-1.3,0.5-2.1,1.7-1.7,3.1c0.3,1.2,1.8,2.3,3.1,1.7
				c2.6-1,7.8-2.5,6.3-6.3c-0.6-1.4-2-2.3-3.2-3.2c-1.2-0.9-2.5-1.7-3.8-2.5c-0.6,1.5-1.3,3-1.9,4.6c0.7,0.2,1.5,0.5,2.2,0.8
				c0.2,0.1,0.5,0.2,0.7,0.3c0.2,0.1,0.4,0.2,0.6,0.3c0.3,0.2,0.2,0-0.2-0.5c0-0.4,0-0.9,0-1.3c0,0,0,0,0-0.1
				c0.3-0.3,0.6-0.6,0.9-0.9c-1.2,0.8-2.8,1.2-4.1,1.6c-1.6,0.5-3.2,0.9-4.8,1.2c-3.2,0.6-6.6,0.3-9.6,1.6c-2.2,0.9-2.5,4,0,4.8
				c3.9,1.3,8,2,12.1,2c2.1,0,4.1-0.2,6.1-0.5c1.9-0.3,3.8-0.7,5.4-1.8c3.2-2.3,4.3-6.5,2.6-10c-1.7-3.5-5.9-4.8-9.4-5.6
				c-2.3-0.5-4.6-0.5-7-0.2c-2.5,0.3-5.1,0.6-7.4,1.3c-1.6,0.5-2.2,2.2-1.5,3.7c0.5,1,1.4,1.6,2.4,1.8c0.4,0.1,0.9,0.1,1.4,0.1
				c0.6,0,0.5-0.1-0.3-0.3c-0.1-0.1-0.1-0.1,0,0c0,0.4,0.6,1.2,0.8,1.6c0.6,0.8,1.3,1.4,2.3,1.7c-0.2-1.5-0.4-3-0.6-4.6
				c-2.6,1.6-5.9,1.9-8.9,2.1c-3.4,0.2-6.8,0-10.2-0.1c-1.2-0.1-2.3,1-2.5,2.2c-0.2,1.3,0.6,2.3,1.8,2.7c3.4,1.4,6.8,3,10.4,4
				c1.7,0.5,3.4,0.8,5.1,1.2c1.8,0.5,3.5,1.1,5.2,1.7c1.6,0.6,3.1,1.1,4.7,1.4c0.7,0.2,1.4,0.3,2.1,0.5c1,0.2,1.9,0.7,2.9,0.9
				c3.9,0.8,6.4-2.3,8.4-5.2c0.9-1.3,1.9-2.4,2.4-4c0.5-1.8,1-3.5,1.2-5.3c0.4-3.4-1.5-6.1-4.4-7.6c-2.9-1.5-6.3-2.4-9.4-3.3
				c-1.7-0.5-3.5-0.8-5.3-0.6c-1.8,0.2-3.7,0.5-5.5,0.8c-3.9,0.8-7.8,1.8-11.5,3.2c-1.8,0.7-3.8,1.3-5.1,2.8
				c-0.5,0.5-0.9,1.2-1.5,1.7c-0.7,0.6-1.7,1-2.6,1.3c1,1.3,2,2.6,3,3.9c0.7-0.8,2.1-0.4,3.1-0.4c1.4,0,2.8-0.3,4.2-0.6
				c2.9-0.7,5.9-0.9,8.9-0.9c1.5,0,3,0,4.5,0.1c0.8,0,1.6,0.1,2.4,0.1c0.4,0,1.2,0.2,1.5,0.1c0.4-1.8,0.2-2.5-0.5-2.2
				c-0.1,0-0.2,0.1-0.2,0.1c-0.4,0-0.7,0.2-1.1,0.3c-0.8,0.2-1.5,0.3-2.3,0.5c-1.5,0.2-3,0.3-4.5,0.2
				C259,401.3,259,406.3,262.2,406.4L262.2,406.4z"/>
		</g>
	</g>
	<line class="st1" x1="144.4" y1="375.2" x2="322" y2="437"/>
</g>
<g id="Camada_4">
	<path class="st7" d="M276.5,421.2c9.8-5.4,15.4-14.1,13.1-21.8c-2.8-9.5-16.8-13.8-31.2-9.5c-10.8,3.2-18.8,10.3-20.9,17.7"/>
</g>
<g id="Camada_3" class="st0">
	
		<image style="display:inline;overflow:visible;opacity:0.34;" width="512" height="512" xlink:href="whisky.png"  transform="matrix(0.5884 -0.1454 0.1454 0.5884 117.108 220.4251)">
	</image>
</g>
</svg>
