<?xml version="1.0" encoding="utf-8"?>
<!-- Generator: Adobe Illustrator 26.0.0, SVG Export Plug-In . SVG Version: 6.00 Build 0)  -->
<svg version="1.1" xmlns="http://www.w3.org/2000/svg" xmlns:xlink="http://www.w3.org/1999/xlink" x="0px" y="0px"
	 viewBox="0 0 234.6 312.5" style="enable-background:new 0 0 234.6 312.5;" xml:space="preserve">
<style type="text/css">
	.st0{display:none;}
	.st1{fill:none;stroke:#010202;stroke-width:6;stroke-miterlimit:10;}
	.st2{fill:none;stroke:#010202;stroke-width:6;stroke-linecap:round;stroke-miterlimit:10;}
	.st3{fill:none;stroke:#010202;stroke-width:6;stroke-linejoin:round;stroke-miterlimit:10;}
	.st4{stroke:#010202;stroke-width:5;stroke-linecap:round;stroke-miterlimit:10;}
	.st5{fill:#010202;}
</style>
<g id="Camada_1" class="st0">
	
		<image style="display:inline;overflow:visible;" width="515" height="515" xlink:href="../../B694BF8C.jpg"  transform="matrix(0.4408 0 0 0.4408 -7.567 92.6374)">
	</image>
</g>
<g id="Camada_2" class="st0">
	
		<image style="display:inline;overflow:visible;opacity:0.46;" width="512" height="512" xlink:href="../../whisky.png"  transform="matrix(0.6894 0 0 0.6894 -51.2062 -22.1054)">
	</image>
</g>
<g id="Camada_3">
	<g>
		<path class="st1" d="M75.2,305c-9.8,0-19.5,0-29.3,0c-4.1,0-8.1,0-12.1-0.8c-1.2-0.2-2.4-0.6-3.4-1.3c-0.4-0.3-0.8-0.7-1.1-1.1
			c-3-3.6-4.9-8-5.4-12.7c0-9.4,0-18.7,0-28.1c0-11.3,0.1-22.6-0.1-34c-0.1-8.9,0-17.8,0-26.7c0-13.8,0-27.6,0-41.4
			c0-8.4,0-16.9,0-25.3c0-0.5,0-0.5,0-0.5c0.1-8,7.3-19.3,33.7-35.4c0,0-13.1-23.1,0-53"/>
		<path class="st2" d="M126.6,136.4c0-0.9,0-1.8,0-2.8c0-0.5,0-0.5,0-0.5c-0.1-8-7.3-19.3-33.7-35.4c0,0,13.1-23.1,0-53"/>
		<path class="st2" d="M75.2,305c9.8,0,19.5,0,29.3,0c4.1,0,8.1,0,12.1-0.8c1.2-0.2,2.4-0.6,3.4-1.3c0.4-0.3,0.8-0.7,1.1-1.1
			c3-3.6,4.9-8,5.4-12.7c0-3.4,0-6.9,0-10.3"/>
		<rect x="55.4" y="7.4" class="st3" width="39.6" height="37.3"/>
		<line class="st4" x1="75.2" y1="26.1" x2="55.4" y2="26.1"/>
	</g>
	<path class="st2" d="M37.4,214.5c0-1.6,0-3.1,0-4.7c0-13.8,0-27.6,0-41.4c0-8.4,0-16.9,0-25.3c0-0.5,0-0.5,0-0.5
		c0.1-6.3,4.6-14.6,19.3-25.7"/>
	<g>
		<g>
			<path class="st5" d="M99.1,161.1c26.6,0,53.3,0,79.9,0c7.5,0,15,0,22.5,0c5.2,0,10.2-4.6,10-10c-0.2-5.4-4.4-10-10-10
				c-26.6,0-53.3,0-79.9,0c-7.5,0-15,0-22.5,0c-5.2,0-10.2,4.6-10,10C89.3,156.5,93.5,161.1,99.1,161.1L99.1,161.1z"/>
		</g>
	</g>
	<g>
		<g>
			<path class="st5" d="M99.1,198.9c26.6,0,53.3,0,79.9,0c7.5,0,15,0,22.5,0c5.2,0,10.2-4.6,10-10c-0.2-5.4-4.4-10-10-10
				c-26.6,0-53.3,0-79.9,0c-7.5,0-15,0-22.5,0c-5.2,0-10.2,4.6-10,10C89.3,194.3,93.5,198.9,99.1,198.9L99.1,198.9z"/>
		</g>
	</g>
	<g>
		<g>
			<path class="st5" d="M99.1,235.6c15.3,0,30.7,0,46,0c5.2,0,10.2-4.6,10-10c-0.2-5.4-4.4-10-10-10c-15.3,0-30.7,0-46,0
				c-5.2,0-10.2,4.6-10,10C89.3,231.1,93.5,235.6,99.1,235.6L99.1,235.6z"/>
		</g>
	</g>
	<g>
		<g>
			<path class="st5" d="M99.1,272.4c15.3,0,30.7,0,46,0c5.2,0,10.2-4.6,10-10c-0.2-5.4-4.4-10-10-10c-15.3,0-30.7,0-46,0
				c-5.2,0-10.2,4.6-10,10C89.3,267.8,93.5,272.4,99.1,272.4L99.1,272.4z"/>
		</g>
	</g>
	<g>
		<g>
			<path class="st5" d="M192.6,226.4c0,12.4,0,24.7,0,37.1c0,5.2,4.6,10.2,10,10c5.4-0.2,10-4.4,10-10c0-12.4,0-24.7,0-37.1
				c0-5.2-4.6-10.2-10-10C197.2,216.6,192.6,220.8,192.6,226.4L192.6,226.4z"/>
		</g>
	</g>
	<g>
		<g>
			<path class="st5" d="M184.1,254.9c12.4,0,24.7,0,37.1,0c5.2,0,10.2-4.6,10-10c-0.2-5.4-4.4-10-10-10c-12.4,0-24.7,0-37.1,0
				c-5.2,0-10.2,4.6-10,10C174.3,250.4,178.5,254.9,184.1,254.9L184.1,254.9z"/>
		</g>
	</g>
</g>
</svg>
